<svg width="19" height="19" viewBox="0 0 19 19" fill="none" xmlns="http://www.w3.org/2000/svg">
<g clip-path="url(#clip0_129_4094)">
<path d="M9.40588 3.52053C8.52795 4.13799 7.53294 4.83783 6.9998 5.99568C6.07377 8.01572 8.89467 10.2192 9.01523 10.312C9.04325 10.3335 9.0768 10.3443 9.11023 10.3443C9.14575 10.3443 9.1813 10.3321 9.21017 10.308C9.26617 10.2611 9.28205 10.1816 9.24843 10.1168C9.23822 10.0971 8.22566 8.13031 8.26329 6.71934C8.27661 6.22791 8.96436 5.67041 9.69244 5.08019C10.3593 4.53958 11.1152 3.92687 11.5575 3.21011C12.5284 1.63237 11.4493 0.0809856 11.4382 0.0654739C11.3954 0.00528278 11.3163 -0.0165003 11.2486 0.0131499C11.181 0.0429857 11.1436 0.116054 11.159 0.188305C11.1612 0.198585 11.3711 1.22451 10.7871 2.28149C10.5466 2.71826 10.018 3.09002 9.40588 3.52053Z" fill="#DB380E"/>
<path d="M13.1047 4.21676C13.1666 4.17012 13.1848 4.08503 13.1473 4.01712C13.1098 3.94921 13.0282 3.91926 12.9557 3.94679C12.8065 4.0035 9.30353 5.35379 9.30353 6.9853C9.30353 8.10997 9.78394 8.70408 10.1347 9.13797C10.2723 9.30815 10.3911 9.4551 10.4303 9.58057C10.5405 9.94212 10.2794 10.5956 10.1696 10.8169C10.1379 10.8805 10.1534 10.9577 10.2073 11.0041C10.2364 11.0292 10.2727 11.042 10.3091 11.042C10.34 11.042 10.3711 11.0328 10.398 11.0141C10.4582 10.9722 11.87 9.97407 11.6168 8.77147C11.5225 8.31436 11.2979 7.98038 11.0997 7.68566C10.7926 7.22903 10.5708 6.8992 10.9073 6.29002C11.3015 5.57945 13.0866 4.23027 13.1047 4.21676Z" fill="#DB380E"/>
<path d="M3.98616 11.0675C3.92612 11.2473 3.95447 11.4256 4.06806 11.5834C4.4478 12.1106 5.7929 12.4009 7.85572 12.4009C7.85583 12.4009 7.85591 12.4009 7.85598 12.4009C8.13549 12.4009 8.43058 12.3954 8.73283 12.3846C12.0309 12.2665 13.2542 11.2391 13.3046 11.1954C13.3596 11.1478 13.3743 11.0685 13.3402 11.0044C13.3059 10.9403 13.2322 10.9081 13.1617 10.9275C12.0002 11.2446 9.83127 11.3572 8.32686 11.3572C6.64348 11.3572 5.78618 11.2359 5.57629 11.1464C5.68398 10.9985 6.34824 10.7344 7.17136 10.5725C7.25003 10.5571 7.30409 10.4844 7.2963 10.4047C7.28851 10.3249 7.22149 10.264 7.1413 10.264C6.6588 10.264 4.2391 10.3028 3.98616 11.0675Z" fill="#73A1FB"/>
<path d="M15.022 10.0093C14.3417 10.0093 13.6967 10.3502 13.6695 10.3647C13.6066 10.3983 13.5747 10.4705 13.5919 10.5398C13.6093 10.609 13.6715 10.6577 13.7429 10.6577C13.7573 10.6577 15.1939 10.6695 15.324 11.4903C15.4393 12.1984 13.9647 13.3458 13.3868 13.7282C13.3244 13.7695 13.3002 13.8492 13.3292 13.9183C13.3538 13.977 13.411 14.0138 13.4727 14.0138C13.4835 14.0138 13.4944 14.0126 13.5052 14.0103C13.6424 13.981 16.8601 13.2719 16.5199 11.3984C16.3123 10.2503 15.5907 10.0093 15.022 10.0093Z" fill="#73A1FB"/>
<path d="M12.8156 13.499C12.8268 13.439 12.8018 13.378 12.7518 13.3429L11.9803 12.8025C11.9427 12.7761 11.8951 12.7679 11.851 12.7795C11.8429 12.7816 11.0361 12.9937 9.86471 13.1238C9.39981 13.1759 8.87909 13.2034 8.35875 13.2034C7.18765 13.2034 6.42194 13.0658 6.31043 12.9649C6.29566 12.9366 6.30033 12.9237 6.30297 12.9165C6.32323 12.8602 6.43181 12.7932 6.5018 12.7667C6.5791 12.7381 6.62077 12.6542 6.59673 12.5754C6.57275 12.4964 6.49145 12.45 6.41122 12.4693C5.63727 12.656 5.25883 12.9172 5.28636 13.2455C5.33527 13.8276 6.68352 14.1264 7.82333 14.2054C7.98724 14.2166 8.16452 14.2222 8.3501 14.2222C8.35021 14.2222 8.35028 14.2222 8.3504 14.2222C10.2457 14.2222 12.6755 13.6276 12.6997 13.6215C12.7591 13.607 12.8043 13.5591 12.8156 13.499Z" fill="#73A1FB"/>
<path d="M6.99849 14.7481C7.05694 14.7101 7.08284 14.6379 7.0621 14.5713C7.04143 14.5048 6.9792 14.4611 6.90928 14.462C6.80556 14.4648 5.89438 14.5059 5.83059 15.086C5.81129 15.2594 5.86095 15.4178 5.97825 15.5568C6.3054 15.9445 7.18853 16.175 8.67761 16.2613C8.85377 16.2718 9.03271 16.2772 9.20953 16.2772C11.1027 16.2772 12.3777 15.6844 12.4311 15.6592C12.4828 15.6347 12.517 15.5838 12.52 15.5266C12.5231 15.4695 12.4945 15.4153 12.4457 15.3854L11.4706 14.7902C11.4368 14.7695 11.3963 14.7627 11.3577 14.7706C11.3516 14.7719 10.7325 14.9003 9.79816 15.0272C9.62137 15.0512 9.39998 15.0634 9.14021 15.0634C8.20692 15.0634 7.16882 14.9109 6.96973 14.8111C6.96684 14.7924 6.97051 14.7688 6.99849 14.7481Z" fill="#73A1FB"/>
<path d="M8.32752 18.0668C12.6639 18.0632 14.9913 17.292 15.4396 16.8067C15.5983 16.6351 15.6155 16.4725 15.602 16.3664C15.5687 16.1051 15.3307 15.9452 15.3037 15.9278C15.2386 15.8859 15.1513 15.8969 15.1005 15.9554C15.0499 16.014 15.0487 16.0996 15.0995 16.1581C15.1269 16.1933 15.1427 16.2522 15.0627 16.3322C14.8835 16.4996 13.0757 17.0077 10.0657 17.1604C9.6534 17.1818 9.22093 17.1927 8.7804 17.1928C6.08542 17.1928 4.1131 16.8237 3.85419 16.6086C3.95398 16.4652 4.65163 16.2361 5.39356 16.1065C5.47717 16.0919 5.53365 16.0131 5.52069 15.9293C5.50774 15.8455 5.43044 15.7877 5.34595 15.7987C5.32502 15.8016 5.25399 15.8058 5.17176 15.8108C3.9476 15.8856 2.53296 16.0522 2.45915 16.6829C2.43673 16.8751 2.49384 17.0496 2.62896 17.2014C2.95956 17.5729 3.90982 18.0668 8.32738 18.0668C8.32745 18.0668 8.32745 18.0668 8.32752 18.0668Z" fill="#73A1FB"/>
<path d="M16.2914 16.943C16.2301 16.9147 16.1577 16.929 16.1119 16.9784C16.1056 16.9852 15.4536 17.667 13.4934 18.0673C12.7429 18.2177 11.3342 18.2939 9.30647 18.2939C7.27493 18.2939 5.3418 18.214 5.32254 18.2132C5.24179 18.2092 5.17273 18.2679 5.16174 18.3474C5.15072 18.4269 5.20193 18.5017 5.2799 18.5203C5.30001 18.525 7.32592 18.9997 10.0959 18.9997C11.4244 18.9997 12.7173 18.8918 13.9385 18.6789C16.2155 18.2797 16.375 17.1506 16.3806 17.1027C16.3886 17.0358 16.3526 16.9714 16.2914 16.943Z" fill="#73A1FB"/>
</g>
<defs>
<clipPath id="clip0_129_4094">
<rect width="18.2264" height="18.2264" fill="white" transform="scale(1.04243)"/>
</clipPath>
</defs>
</svg>
