<svg width="21" height="21" viewBox="0 0 21 21" fill="none" xmlns="http://www.w3.org/2000/svg">
<path d="M18.9959 17.7534L15.7497 14.5335C17.0098 12.9623 17.62 10.9681 17.4549 8.96086C17.2898 6.95361 16.3619 5.08591 14.862 3.7418C13.3622 2.39768 11.4043 1.67931 9.39102 1.7344C7.37776 1.78949 5.46211 2.61385 4.03798 4.03798C2.61385 5.46211 1.78949 7.37776 1.7344 9.39102C1.67931 11.4043 2.39768 13.3622 3.7418 14.862C5.08591 16.3619 6.95361 17.2898 8.96086 17.4549C10.9681 17.62 12.9623 17.0098 14.5335 15.7497L17.7534 18.9697C17.8348 19.0517 17.9316 19.1168 18.0382 19.1612C18.1448 19.2056 18.2592 19.2285 18.3747 19.2285C18.4902 19.2285 18.6046 19.2056 18.7112 19.1612C18.8178 19.1168 18.9146 19.0517 18.9959 18.9697C19.1536 18.8065 19.2418 18.5885 19.2418 18.3616C19.2418 18.1346 19.1536 17.9166 18.9959 17.7534ZM9.62472 15.7497C8.41331 15.7497 7.22911 15.3905 6.22186 14.7175C5.21461 14.0444 4.42956 13.0878 3.96597 11.9686C3.50239 10.8495 3.38109 9.61792 3.61742 8.42979C3.85376 7.24166 4.43711 6.15029 5.2937 5.2937C6.15029 4.43711 7.24166 3.85376 8.42979 3.61742C9.61792 3.38109 10.8495 3.50239 11.9686 3.96597C13.0878 4.42956 14.0444 5.21461 14.7175 6.22186C15.3905 7.22911 15.7497 8.41331 15.7497 9.62472C15.7497 11.2492 15.1044 12.8071 13.9557 13.9557C12.8071 15.1044 11.2492 15.7497 9.62472 15.7497Z" fill="white"/>
</svg>
