<svg width="11" height="11" viewBox="0 0 11 11" fill="none" xmlns="http://www.w3.org/2000/svg">
<g clip-path="url(#clip0_129_4280)">
<path d="M5.50335 8.92922C5.50335 9.123 5.39138 9.29905 5.21616 9.38122C5.14842 9.41326 5.07582 9.42875 5.0037 9.42875C4.88949 9.42875 4.77634 9.3895 4.68495 9.31371L1.95402 7.05075H0.49953C0.223695 7.05099 0 6.82717 0 6.55134V4.56114C0 4.28518 0.223695 4.06149 0.49953 4.06149H1.95414L4.68506 1.79853C4.83427 1.67486 5.04118 1.64849 5.21628 1.73125C5.39138 1.81343 5.50347 1.98959 5.50347 2.18326L5.50335 8.92922ZM7.42308 8.14865C7.4109 8.14948 7.3992 8.14995 7.38714 8.14995C7.25519 8.14995 7.12797 8.09781 7.03398 8.0037L6.96718 7.93666C6.79196 7.7618 6.77139 7.48478 6.91894 7.28591C7.29303 6.78154 7.49047 6.18364 7.49047 5.55642C7.49047 4.88178 7.26631 4.24901 6.84209 3.72642C6.68058 3.52779 6.69548 3.2393 6.87649 3.05841L6.94318 2.99161C7.04297 2.89182 7.17669 2.83743 7.3214 2.84606C7.46233 2.85316 7.59393 2.91949 7.68331 3.02873C8.27175 3.74877 8.58258 4.62297 8.58258 5.55653C8.58258 6.42601 8.30769 7.25364 7.78747 7.94955C7.70057 8.06554 7.56768 8.13837 7.42308 8.14865ZM9.48836 9.69241C9.39803 9.79917 9.26738 9.86326 9.12752 9.86917C9.12066 9.8694 9.11368 9.86964 9.10659 9.86964C8.97429 9.86964 8.84731 9.81738 8.75331 9.72339L8.68769 9.65777C8.50431 9.47451 8.4919 9.18141 8.65861 8.98302C9.46424 8.02486 9.90808 6.80802 9.90808 5.55642C9.90808 4.25456 9.43291 3.0013 8.57041 2.02754C8.39554 1.82986 8.40441 1.53061 8.5905 1.34381L8.65601 1.27819C8.75319 1.18053 8.87947 1.12673 9.0243 1.13134C9.1618 1.13525 9.29186 1.19602 9.38325 1.29888C10.4258 2.47269 11.0001 3.98488 11.0001 5.55642C11.0003 7.06849 10.4634 8.5374 9.48836 9.69241Z" fill="#FF6652"/>
</g>
<defs>
<clipPath id="clip0_129_4280">
<rect width="10.2857" height="10.2857" fill="white" transform="scale(1.06945)"/>
</clipPath>
</defs>
</svg>
