<svg width="179" height="179" viewBox="0 0 179 179" fill="none" xmlns="http://www.w3.org/2000/svg">
<g filter="url(#filter0_d_129_4377)">
<rect x="70.079" y="45.0508" width="38.842" height="38.842" rx="10" fill="white"/>
</g>
<g clip-path="url(#clip0_129_4377)">
<path d="M99.4353 76.6091H92.2419C91.1594 76.6091 90.2819 75.7315 90.2819 74.6491V67.4557C90.2819 66.3732 91.1594 65.4957 92.2419 65.4957H99.4353C100.518 65.4957 101.395 66.3732 101.395 67.4557V74.6491C101.395 75.7315 100.518 76.6091 99.4353 76.6091Z" fill="#BDF4E3"/>
<path d="M98.7972 74.8777H92.8791C92.4009 74.8777 92.0133 74.4901 92.0133 74.0119V68.0938C92.0133 67.6157 92.4009 67.2281 92.8791 67.2281H98.7972C99.2753 67.2281 99.663 67.6157 99.663 68.0938V74.012C99.663 74.4901 99.2753 74.8777 98.7972 74.8777Z" fill="#FFDCB6"/>
<path d="M99.4353 65.4957H97.3145C98.1462 65.4957 98.8204 66.1699 98.8204 67.0016V72.5283C98.8204 73.36 98.1462 74.0342 97.3145 74.0342H91.7878C90.9561 74.0342 90.2819 73.3599 90.2819 72.5283V74.6491C90.2819 75.7315 91.1594 76.6091 92.2419 76.6091H99.4353C100.518 76.6091 101.395 75.7315 101.395 74.6491V67.4557C101.395 66.3732 100.518 65.4957 99.4353 65.4957Z" fill="#B1B7E3"/>
<path d="M98.8207 67.2291V72.5286C98.8207 73.3603 98.1465 74.0345 97.3148 74.0345H92.0153C92.0275 74.502 92.4094 74.8775 92.8799 74.8775H98.798C99.2762 74.8775 99.6638 74.4899 99.6638 74.0118V68.0937C99.6637 67.6232 99.2883 67.2412 98.8207 67.2291Z" fill="#EFA5B6"/>
<path d="M98.0094 65.4852H90.816C89.7335 65.4852 88.856 64.6077 88.856 63.5252V56.3318C88.856 55.2494 89.7335 54.3718 90.816 54.3718H98.0094C99.0919 54.3718 99.9694 55.2494 99.9694 56.3318V63.5252C99.9694 64.6077 99.0919 65.4852 98.0094 65.4852Z" fill="#EF8BBD"/>
<path d="M97.3717 63.7529H91.4536C90.9755 63.7529 90.5879 63.3653 90.5879 62.8871V56.969C90.5879 56.4909 90.9755 56.1032 91.4536 56.1032H97.3717C97.8499 56.1032 98.2375 56.4909 98.2375 56.969V62.8871C98.2375 63.3653 97.8499 63.7529 97.3717 63.7529Z" fill="#FFDCB6"/>
<path d="M98.0094 54.3718H95.8886C96.7203 54.3718 97.3945 55.046 97.3945 55.8777V61.4044C97.3945 62.2361 96.7202 62.9103 95.8886 62.9103H90.3619C89.5302 62.9103 88.856 62.2361 88.856 61.4044V63.5252C88.856 64.6077 89.7335 65.4852 90.816 65.4852H98.0094C99.0919 65.4852 99.9694 64.6077 99.9694 63.5252V56.3318C99.9694 55.2494 99.0919 54.3718 98.0094 54.3718Z" fill="#E068BD"/>
<path d="M97.3947 56.1052V61.4048C97.3947 62.2364 96.7205 62.9107 95.8888 62.9107H90.5884C90.6006 63.3782 90.9834 63.7536 91.4538 63.7536H97.3719C97.8501 63.7536 98.2377 63.366 98.2377 62.8879V56.9698C98.2377 56.4994 97.8622 56.1174 97.3947 56.1052Z" fill="#EFA5B6"/>
<path d="M86.758 76.6091H79.5645C78.4821 76.6091 77.6045 75.7315 77.6045 74.6491V67.4557C77.6045 66.3732 78.4821 65.4957 79.5645 65.4957H86.758C87.8404 65.4957 88.718 66.3732 88.718 67.4557V74.6491C88.7179 75.7315 87.8404 76.6091 86.758 76.6091Z" fill="#CAB4EF"/>
<path d="M86.1203 74.8767H80.2022C79.7241 74.8767 79.3365 74.4891 79.3365 74.0109V68.0928C79.3365 67.6147 79.7241 67.2271 80.2022 67.2271H86.1203C86.5985 67.2271 86.9861 67.6147 86.9861 68.0928V74.011C86.9861 74.4891 86.5985 74.8767 86.1203 74.8767Z" fill="#FFDCB6"/>
<path d="M86.7589 65.4957H84.6381C85.4698 65.4957 86.144 66.1699 86.144 67.0016V72.5283C86.144 73.36 85.4698 74.0342 84.6381 74.0342H79.1114C78.2797 74.0342 77.6055 73.36 77.6055 72.5283V74.6491C77.6054 75.7315 78.483 76.6091 79.5655 76.6091H86.7589C87.8414 76.6091 88.7189 75.7316 88.7189 74.6491V67.4557C88.7189 66.3732 87.8414 65.4957 86.7589 65.4957Z" fill="#BE87EF"/>
<path d="M86.1433 67.2291V72.5286C86.1433 73.3603 85.4691 74.0345 84.6374 74.0345H79.3379C79.3501 74.502 79.732 74.8775 80.2025 74.8775H86.1207C86.5988 74.8775 86.9864 74.4898 86.9864 74.0117V68.0937C86.9864 67.6232 86.6109 67.2412 86.1433 67.2291Z" fill="#EFA5B6"/>
<path d="M80.6357 71.2095C80.3739 71.2095 80.1616 70.9972 80.1616 70.7354V70.1493C80.1616 69.8875 80.3739 69.6752 80.6357 69.6752C80.8976 69.6752 81.1099 69.8875 81.1099 70.1493V70.7354C81.1099 70.9972 80.8976 71.2095 80.6357 71.2095Z" fill="white"/>
<path d="M80.6357 69.2371C80.3739 69.2371 80.1616 69.0248 80.1616 68.7629V68.5479C80.1616 68.2861 80.3739 68.0738 80.6357 68.0738C80.8976 68.0738 81.1099 68.2861 81.1099 68.5479V68.7629C81.1099 69.0248 80.8976 69.2371 80.6357 69.2371Z" fill="white"/>
<path d="M96.3376 74.0071C96.0856 73.9908 95.8951 73.7703 95.8951 73.5178V69.0455H95.3248C95.0722 69.0455 94.8517 68.855 94.8354 68.603C94.8175 68.3269 95.0362 68.0972 95.3085 68.0972H96.4132C96.6508 68.0972 96.8434 68.2898 96.8434 68.5274V73.534C96.8434 73.8063 96.6138 74.0251 96.3376 74.0071Z" fill="#D58A9C"/>
<path d="M94.1824 62.9336C93.2307 62.9336 93.1609 62.9102 93.0969 62.8889C92.939 62.8363 92.8209 62.7168 92.773 62.5613C92.6904 62.2929 92.8062 62.1414 93.1155 61.7364C93.3679 61.4059 93.8377 60.7908 94.625 59.6659C94.8591 59.3314 95.0101 59.0318 95.074 58.7749L95.0909 58.6418C95.0768 58.2153 94.7256 57.8727 94.2957 57.8727C93.9163 57.8727 93.5879 58.1423 93.515 58.5137C93.4645 58.7707 93.2151 58.938 92.9584 58.8876C92.7014 58.8371 92.534 58.5879 92.5845 58.331C92.7445 57.516 93.4642 56.9245 94.2957 56.9245C95.2574 56.9245 96.0397 57.7068 96.0397 58.6685V58.6986L96.0084 58.9443L96.0029 58.9676C95.9148 59.348 95.7125 59.7659 95.4019 60.2097C94.8126 61.0517 94.3981 61.6129 94.1182 61.9842C94.5865 61.9825 95.198 61.98 95.77 61.9729C95.772 61.9728 95.774 61.9728 95.7761 61.9728C96.0351 61.9728 96.2468 62.1812 96.25 62.441C96.2533 62.7028 96.0437 62.9178 95.7819 62.9211C95.0743 62.9299 94.5592 62.9336 94.1824 62.9336Z" fill="#D58A9C"/>
<path d="M83.1616 71.5265C82.8997 71.5265 82.6874 71.3142 82.6874 71.0523C82.6874 70.7905 82.8997 70.5782 83.1616 70.5782C83.6004 70.5782 83.9573 70.2212 83.9573 69.7825C83.9573 69.3437 83.6004 68.9868 83.1616 68.9868C82.7821 68.9868 82.4538 69.2564 82.3809 69.6278C82.3304 69.8847 82.0814 70.0524 81.8242 70.0017C81.5673 69.9512 81.3999 69.702 81.4503 69.4451C81.6104 68.6301 82.3301 68.0386 83.1616 68.0386C84.1232 68.0386 84.9056 68.8209 84.9056 69.7825C84.9056 70.7441 84.1232 71.5265 83.1616 71.5265Z" fill="#D58A9C"/>
<path d="M83.1614 74.0664C82.2961 74.0664 81.5536 73.421 81.4342 72.5651C81.4231 72.4854 81.4174 72.4037 81.4174 72.3224C81.4174 72.0606 81.6297 71.8483 81.8916 71.8483C82.1534 71.8483 82.3657 72.0606 82.3657 72.3224C82.3657 72.3599 82.3683 72.3974 82.3734 72.4339C82.4278 72.8241 82.7666 73.1182 83.1614 73.1182C83.6002 73.1182 83.9571 72.7613 83.9571 72.3225C83.9571 71.8838 83.6002 71.5268 83.1614 71.5268C82.8995 71.5268 82.6873 71.3145 82.6873 71.0527C82.6873 70.7909 82.8995 70.5785 83.1614 70.5785C84.1231 70.5785 84.9054 71.3609 84.9054 72.3225C84.9054 73.2841 84.123 74.0664 83.1614 74.0664Z" fill="#D58A9C"/>
<path d="M85.7307 52.4563L86.1434 53.6168C86.1611 53.6665 86.1961 53.7059 86.2402 53.7258L87.2713 54.1904C87.417 54.256 87.417 54.4881 87.2713 54.5537L86.2402 55.0183C86.1961 55.0381 86.1611 55.0775 86.1434 55.1272L85.7307 56.2878C85.6723 56.4517 85.4661 56.4517 85.4078 56.2878L84.9951 55.1272C84.9774 55.0775 84.9424 55.0382 84.8983 55.0183L83.8672 54.5537C83.7215 54.4881 83.7215 54.256 83.8672 54.1904L84.8983 53.7258C84.9424 53.7059 84.9774 53.6665 84.9951 53.6168L85.4079 52.4563C85.4662 52.2924 85.6724 52.2924 85.7307 52.4563Z" fill="#F7C4DB"/>
<path d="M80.5547 62.5396C80.7454 62.0797 80.5271 61.5523 80.0671 61.3617C79.6072 61.1711 79.0798 61.3893 78.8892 61.8492C78.6986 62.3091 78.9169 62.8365 79.3768 63.0271C79.8367 63.2178 80.3641 62.9995 80.5547 62.5396Z" fill="#EF8BBD"/>
<path d="M81.6399 56.1645C81.6736 55.9564 81.5323 55.7605 81.3242 55.7267C81.1162 55.693 80.9202 55.8343 80.8865 56.0424C80.8528 56.2504 80.9941 56.4464 81.2021 56.4801C81.4101 56.5138 81.6061 56.3725 81.6399 56.1645Z" fill="#EF8BBD"/>
<path d="M83.2811 59.5254L83.5872 60.3862C83.6003 60.4231 83.6263 60.4523 83.659 60.467L84.4239 60.8116C84.5319 60.8603 84.5319 61.0325 84.4239 61.0812L83.659 61.4258C83.6263 61.4405 83.6003 61.4697 83.5872 61.5066L83.2811 62.3674C83.2378 62.4891 83.0849 62.4891 83.0416 62.3674L82.7354 61.5066C82.7223 61.4697 82.6964 61.4405 82.6636 61.4258L81.8988 61.0812C81.7907 61.0325 81.7907 60.8603 81.8988 60.8116L82.6636 60.467C82.6964 60.4523 82.7223 60.4231 82.7354 60.3862L83.0416 59.5254C83.0848 59.4037 83.2378 59.4037 83.2811 59.5254Z" fill="#F7C4DB"/>
</g>
<defs>
<filter id="filter0_d_129_4377" x="0" y="0" width="179" height="179" filterUnits="userSpaceOnUse" color-interpolation-filters="sRGB">
<feFlood flood-opacity="0" result="BackgroundImageFix"/>
<feColorMatrix in="SourceAlpha" type="matrix" values="0 0 0 0 0 0 0 0 0 0 0 0 0 0 0 0 0 0 127 0" result="hardAlpha"/>
<feOffset dy="25"/>
<feGaussianBlur stdDeviation="35"/>
<feColorMatrix type="matrix" values="0 0 0 0 0.0392157 0 0 0 0 0.0117647 0 0 0 0 0.235294 0 0 0 0.15 0"/>
<feBlend mode="normal" in2="BackgroundImageFix" result="effect1_dropShadow_129_4377"/>
<feBlend mode="normal" in="SourceGraphic" in2="effect1_dropShadow_129_4377" result="shape"/>
</filter>
<clipPath id="clip0_129_4377">
<rect width="24.2489" height="24.2489" fill="white" transform="translate(77.3616 52.3334) scale(1.00113)"/>
</clipPath>
</defs>
</svg>
