<svg width="10" height="10" viewBox="0 0 10 10" fill="none" xmlns="http://www.w3.org/2000/svg">
<path d="M4.99984 5.41634C4.87298 5.41486 4.74872 5.45227 4.64377 5.52355C4.53882 5.59483 4.45823 5.69655 4.41284 5.81501C4.36745 5.93348 4.35945 6.063 4.3899 6.18616C4.42035 6.30931 4.4878 6.42018 4.58317 6.50384V7.08301C4.58317 7.19351 4.62707 7.2995 4.70521 7.37764C4.78335 7.45578 4.88933 7.49967 4.99984 7.49967C5.11034 7.49967 5.21632 7.45578 5.29446 7.37764C5.37261 7.2995 5.4165 7.19351 5.4165 7.08301V6.50384C5.51187 6.42018 5.57932 6.30931 5.60978 6.18616C5.64023 6.063 5.63222 5.93348 5.58683 5.81501C5.54144 5.69655 5.46085 5.59483 5.3559 5.52355C5.25096 5.45227 5.12669 5.41486 4.99984 5.41634ZM7.08317 3.74967V2.91634C7.08317 2.36381 6.86368 1.8339 6.47298 1.4432C6.08228 1.0525 5.55237 0.833008 4.99984 0.833008C4.4473 0.833008 3.9174 1.0525 3.5267 1.4432C3.136 1.8339 2.9165 2.36381 2.9165 2.91634V3.74967C2.58498 3.74967 2.26704 3.88137 2.03262 4.11579C1.7982 4.35021 1.6665 4.66815 1.6665 4.99967V7.91634C1.6665 8.24786 1.7982 8.5658 2.03262 8.80023C2.26704 9.03465 2.58498 9.16634 2.9165 9.16634H7.08317C7.41469 9.16634 7.73263 9.03465 7.96705 8.80023C8.20147 8.5658 8.33317 8.24786 8.33317 7.91634V4.99967C8.33317 4.66815 8.20147 4.35021 7.96705 4.11579C7.73263 3.88137 7.41469 3.74967 7.08317 3.74967ZM3.74984 2.91634C3.74984 2.58482 3.88153 2.26688 4.11595 2.03246C4.35037 1.79804 4.66832 1.66634 4.99984 1.66634C5.33136 1.66634 5.6493 1.79804 5.88372 2.03246C6.11814 2.26688 6.24984 2.58482 6.24984 2.91634V3.74967H3.74984V2.91634ZM7.49984 7.91634C7.49984 8.02685 7.45594 8.13283 7.3778 8.21097C7.29966 8.28911 7.19368 8.33301 7.08317 8.33301H2.9165C2.806 8.33301 2.70002 8.28911 2.62188 8.21097C2.54374 8.13283 2.49984 8.02685 2.49984 7.91634V4.99967C2.49984 4.88917 2.54374 4.78319 2.62188 4.70505C2.70002 4.62691 2.806 4.58301 2.9165 4.58301H7.08317C7.19368 4.58301 7.29966 4.62691 7.3778 4.70505C7.45594 4.78319 7.49984 4.88917 7.49984 4.99967V7.91634Z" fill="#D97356"/>
</svg>
