<svg width="50" height="50" viewBox="0 0 50 50" fill="none" xmlns="http://www.w3.org/2000/svg">
<path d="M25 50C38.8071 50 50 38.8071 50 25C50 11.1929 38.8071 0 25 0C11.1929 0 0 11.1929 0 25C0 38.8071 11.1929 50 25 50Z" fill="#FF6529"/>
<path d="M49.4274 30.3344L32.2287 13.1357C32.2287 13.1357 19.2437 13.081 19.2437 25.0388C19.2437 36.9966 19.2437 36.9966 19.2437 36.9966L31.4148 49.1677C40.4231 46.7827 47.4359 39.496 49.4274 30.3344Z" fill="#E53B07"/>
<path d="M24.9753 21.1984C23.8243 21.1984 22.7235 21.4172 21.7121 21.815C21.7912 20.7121 22.2407 19.6724 23 18.8566C24.3809 17.373 26.5645 16.9025 28.4336 17.6863L30.0391 18.3594L32.2291 13.1358L30.6236 12.4627C26.5748 10.7651 21.8448 11.784 18.8539 14.9977C17.0356 16.9513 16.0342 19.497 16.0342 22.1658V29.7457V30.1395C16.0342 35.0696 20.0452 39.0807 24.9754 39.0807C29.9055 39.0807 33.9165 35.0697 33.9165 30.1395C33.9164 25.2095 29.9054 21.1984 24.9753 21.1984ZM24.9753 33.4166C23.1684 33.4166 21.6982 31.9465 21.6982 30.1395C21.6982 28.3325 23.1684 26.8624 24.9753 26.8624H24.9754C26.7823 26.8624 28.2524 28.3325 28.2524 30.1395C28.2523 31.9466 26.7822 33.4166 24.9753 33.4166Z" fill="#F8FFFB"/>
<path d="M28.4336 17.6861L30.0391 18.3589L32.2285 13.1353L30.623 12.4624C28.8125 11.7037 26.8662 11.4878 25 11.7681V17.5679C26.0986 17.1968 27.3223 17.2193 28.4336 17.6861ZM25 21.1978V26.8619C25.8936 26.8687 26.7041 27.2359 27.291 27.8228C27.8848 28.4165 28.252 29.2359 28.252 30.1392C28.252 31.938 26.7959 33.4029 25 33.4165V39.0806C29.9189 39.0669 33.916 35.0611 33.916 30.1392C33.916 25.2164 29.9189 21.2115 25 21.1978Z" fill="#D8D8D8"/>
</svg>
