<svg width="194" height="128" viewBox="0 0 194 128" fill="none" xmlns="http://www.w3.org/2000/svg">
<path d="M6.66083 81.4788C11.3641 74.0625 17.8069 68.1538 24.4959 62.8357C30.1006 58.3754 36.284 53.7831 38.5957 46.667C39.8596 42.7873 39.8231 38.4985 41.2433 34.6847C43.136 29.6008 49 23.4415 53.996 21.2212C61.6396 17.8232 70.8765 22.9763 78.8128 20.3272C82.0924 19.2319 82.9572 17.1435 85.2157 14.9497C87.6339 12.6007 90.541 10.5553 93.335 8.67153C98.8132 4.97656 104.88 2.0074 111.413 0.717461C122.918 -1.5556 135.192 1.69069 144.688 8.7804C150.396 13.0428 155.116 18.6347 158.645 24.9195C162.018 30.9304 163.508 37.5945 166.631 43.6648C172.485 55.04 184.636 61.3445 190.384 72.7857C194.611 81.2083 194.784 91.5014 192.559 100.788C190.334 110.072 185.906 118.541 181.256 126.699C181.233 126.735 181.213 126.768 181.193 126.801H173.516C144.219 126.702 17.9932 126.313 14.993 126.9H9.15881C4.90459 123.225 1.02292 113.074 0.247899 106.944C-0.883007 98.0236 1.96091 88.8951 6.66083 81.4788Z" fill="#FFDF80"/>
<path d="M67.9061 72.1878C68.9705 73.8439 71.7512 75.7739 73.7236 75.7475C80.4425 75.6254 82.6545 71.0859 83.3796 69.433C83.2432 69.4 83.0137 69.3737 82.8507 69.3539C81.6134 69.1757 80.3494 67.9616 79.9802 66.5925C79.5046 64.811 78.9192 61.3272 78.989 59.1135L70.4906 63.7784C70.5039 64.4184 70.5471 65.1178 70.607 65.8238C70.6502 66.2527 70.6935 66.675 70.7434 67.0841C70.7899 67.4767 70.8431 67.8495 70.893 68.1926C71.0494 69.3473 70.5305 70.492 69.5493 71.1288L67.9061 72.1878Z" fill="#FE8E68"/>
<path d="M67.1744 54.0471C67.6334 55.2413 67.4405 56.5973 66.9748 57.7882C66.6455 58.6295 65.9138 57.8872 65.0024 57.9037C63.5921 57.9268 62.4911 56.4719 61.6396 52.6153C61.0974 49.7847 60.9611 48.3496 61.0708 48.0758C61.46 47.0959 62.7439 46.5714 63.8016 46.479" fill="#3D302A"/>
<path d="M65.0295 45.5651C62.8076 48.2209 61.9994 55.6933 63.8753 60.8992C65.2091 64.6008 66.7591 66.9893 68.5686 66.9134C71.316 66.798 76.6413 64.5579 78.3742 62.6873C81.4975 59.319 80.5895 52.7142 79.9442 48.5574C79.3588 44.7799 77.5759 39.8742 72.7895 40.8079C69.643 41.4149 67.0219 43.1799 65.0295 45.5651Z" fill="#FE8E68"/>
<path d="M77.6489 47.9532C77.1566 48.5371 76.2884 48.6658 75.5733 48.7812C74.612 48.9363 74.1364 49.2596 73.6375 50.1272C73.3215 50.6815 73.0055 51.2885 72.44 51.5887C72.1739 51.7306 71.7681 51.7504 71.6384 51.4799C71.8912 51.3116 71.9777 50.9685 71.9145 50.6716C71.8513 50.378 71.6684 50.1239 71.4754 49.8897C71.3124 50.1075 71.2958 50.3978 71.206 50.6584C71.0863 51.0015 70.8302 51.2918 70.5042 51.4535C70.451 51.4799 70.3944 51.503 70.3379 51.4931C70.2614 51.4832 70.2015 51.4172 70.1516 51.3578C69.8024 50.9421 69.4598 50.1503 68.9741 49.8963C68.8777 50.3483 68.7014 50.7079 68.422 51.0807C68.1758 51.4073 67.8831 51.7438 67.4807 51.8197C67.351 51.8461 67.188 51.8263 67.1281 51.7108C67.0516 51.5689 67.1713 51.4271 67.1514 51.2819C67.1347 51.1467 67.0715 51.0873 67.0017 50.9718C66.8221 50.6782 66.6624 50.3945 66.4263 50.1371C65.9506 50.6749 65.4317 51.1698 64.8763 51.625C64.7532 51.724 64.5736 51.823 64.4505 51.724C64.384 51.6712 64.3674 51.5821 64.354 51.4964C64.2842 51.0774 64.2177 50.6584 64.1478 50.2394C64.1079 50.0052 63.9715 49.6984 63.7387 49.7578C63.6256 49.7874 63.5591 49.8963 63.4959 49.9953C63.4194 50.1207 62.0523 51.5492 62.0257 51.4403C61.8128 50.6287 61.3771 49.8897 61.1642 49.0781C59.7971 43.8524 65.904 39.6527 70.5707 39.6296C71.6085 39.623 72.5797 39.8407 73.5876 40.0618C74.6619 40.2993 75.7729 40.4742 76.7475 41.0053C78.1145 41.7476 79.149 43.0969 78.8829 44.7069" fill="#3D302A"/>
<path d="M75.4002 46.5713C74.7217 47.3334 74.542 48.4056 74.4788 49.4184C74.3857 50.9459 74.5121 52.5328 75.2239 53.8887C75.4268 54.2747 75.5765 56.1848 75.8892 56.0793C75.9889 56.0463 75.9723 54.565 76.2351 53.7666C76.6409 52.5295 78.5102 52.0577 79.3517 52.8396C80.6955 54.0833 79.9072 55.5943 79.4615 56.5345C79.1954 57.102 78.773 57.7387 78.6998 58.3391C78.61 59.1078 78.5834 61.9087 79.089 62.5619C79.5114 63.1096 79.9604 60.4637 80.3429 59.9425C83.1735 56.0595 85.8877 46.1721 81.0547 44.0277C80.3197 43.7011 78.0512 43.5329 77.3627 43.9486" fill="#3D302A"/>
<path d="M57.5048 125.168C57.2254 125.214 56.9427 125.254 56.65 125.264C55.0934 125.313 53.5899 124.973 52.0698 124.716C50.7327 124.488 50.3702 124.363 50.3968 122.763C50.6296 110.091 52.5089 97.4525 55.8883 85.2294C56.4039 83.3622 56.966 81.4817 57.9539 79.8124C59.6403 76.9653 63.512 74.5075 66.4823 73.1284C66.9014 72.9338 68.6376 74.0291 69.0601 73.841C69.4293 73.6761 69.7552 73.4188 70.1278 73.2571C71.2188 72.7853 71.9505 73.7718 72.8619 74.1841C73.3342 74.3953 73.8598 74.5305 74.3787 74.5074C74.8011 74.491 75.1836 74.2369 75.5694 74.4349C77.3057 75.3256 81.6165 68.7143 81.6165 68.7143L83.4825 70.6508L88.9474 76.3285L102.605 94.9914C102.605 94.9914 105.083 110.286 106.786 120.312C107.082 122.041 108.253 125.778 108.486 127.088C108.436 126.804 96.8272 126.728 96.2019 126.728C88.1325 126.728 80.6153 126.728 72.5426 126.728C71.2154 126.728 67.6464 127.286 66.7151 126.319C65.5676 125.132 64.2404 119.682 64.1706 118.154C63.941 113.018 64.2969 107.92 64.3668 102.754C64.3369 104.856 63.7282 106.756 63.4687 108.815C63.1328 111.464 62.6538 114.11 62.2214 116.745C61.8755 118.864 61.5429 120.988 61.2768 123.119C61.157 124.079 61.31 124.65 60.4918 125.026C59.8099 125.33 58.3098 125.033 57.5048 125.168Z" fill="#BC744A"/>
<path d="M61.8892 120.78C62.5212 120.523 66.4228 119.563 68.1824 119.2C69.1037 119.012 73.2814 117.937 74.2494 117.937C75.2173 117.937 76.5344 119.309 76.5344 119.309L76.1852 124.03C75.2539 123.938 74.0065 124.416 73.338 124.508C72.6694 124.601 70.3976 124.614 69.0006 123.918C68.9208 123.878 68.8476 123.835 68.7744 123.792C68.2123 124.287 67.5071 124.769 66.7255 124.809C66.7255 124.809 66.1135 124.746 66.1733 124.502C66.1999 124.383 66.6057 123.769 67.0115 123.169C66.4128 123.773 65.4349 124.753 64.3073 124.809C64.3073 124.809 63.6953 124.746 63.7552 124.502C63.7885 124.357 64.3739 123.489 64.8462 122.799C64.8395 122.806 64.8296 122.809 64.8262 122.816C64.3306 123.248 63.1532 124.739 61.7595 124.809C61.7595 124.809 61.1475 124.746 61.2073 124.502C61.2273 124.413 61.4601 124.047 61.7428 123.621C61.3869 123.891 60.9512 124.178 60.4223 124.439C58.9156 125.178 58.0574 124.617 58.0574 124.439C58.0541 124.258 61.2572 121.038 61.8892 120.78Z" fill="#FE8E68"/>
<path d="M75.4569 115.297C75.4569 115.297 73.0288 116.663 73.245 119.566C73.4612 122.469 74.3393 125.835 78.0047 125.482C81.6702 125.129 75.4569 115.297 75.4569 115.297Z" fill="#874C2E"/>
<path d="M78.793 125.195C87.5808 128.22 99.339 125.33 106.793 120.306C111.463 117.165 114.443 113.176 113.941 109.28C112.64 99.1585 104.621 75.9594 97.6825 72.5745C92.966 70.2718 87.2449 69.3184 84.0551 68.9357C82.5583 68.7542 81.6236 68.7113 81.6236 68.7113L82.7811 71.951L88.5754 88.1561C88.7916 97.7729 95.73 103.484 94.3497 105.724C92.9693 107.957 82.0693 110.369 76.3449 114.192C74.7617 115.255 72.7526 122.938 78.793 125.195Z" fill="#BC744A"/>
<path d="M113.941 109.53L113.961 110.206C113.961 110.318 113.977 110.431 113.961 110.543L113.921 110.876C113.888 111.097 113.888 111.325 113.831 111.539L113.671 112.189C113.405 113.04 113.036 113.862 112.531 114.601C111.566 116.105 110.289 117.398 108.878 118.507C106.054 120.73 102.801 122.393 99.4087 123.601C96.0226 124.838 92.4736 125.653 88.8713 125.949C87.0718 126.101 85.2591 126.121 83.4596 125.969C81.6568 125.831 79.8673 125.504 78.131 124.966C79.8307 125.61 81.6269 125.989 83.433 126.21C85.2458 126.415 87.0752 126.438 88.8979 126.329C90.7207 126.227 92.5335 125.956 94.3163 125.567C96.0991 125.181 97.8587 124.679 99.5784 124.066C101.291 123.436 102.968 122.7 104.571 121.829C106.171 120.955 107.721 119.972 109.118 118.797C110.518 117.632 111.792 116.286 112.733 114.723C113.216 113.947 113.558 113.093 113.795 112.219C114.031 111.341 114.047 110.421 113.941 109.53Z" fill="#874C2E"/>
<path d="M88.5756 88.1562C88.5689 89.9805 88.825 91.8082 89.304 93.5765C89.7863 95.3448 90.4915 97.0505 91.3097 98.6934C91.7188 99.5149 92.1546 100.32 92.6036 101.115C93.046 101.913 93.5017 102.705 93.8742 103.517C94.0572 103.922 94.2168 104.341 94.28 104.754C94.2966 104.955 94.3133 105.163 94.2567 105.338C94.2434 105.433 94.1869 105.506 94.1536 105.592C94.0904 105.668 94.0472 105.75 93.9673 105.823C93.372 106.413 92.5205 106.812 91.7122 107.198C88.3926 108.699 84.8669 109.811 81.5074 111.309C79.8277 112.058 78.1646 112.866 76.6179 113.876L76.3318 114.067C76.2354 114.133 76.1456 114.219 76.0525 114.295C75.8795 114.463 75.7298 114.648 75.6101 114.849C75.3639 115.248 75.1976 115.684 75.0679 116.126C74.8218 117.013 74.7186 117.927 74.712 118.841C74.7719 117.934 74.9249 117.026 75.1943 116.165C75.4803 115.311 75.9227 114.479 76.751 114.08C78.3043 113.124 79.9707 112.361 81.6604 111.659C83.3535 110.966 85.0664 110.309 86.7861 109.673C88.5057 109.026 90.2354 108.409 91.9251 107.644C92.7566 107.235 93.6114 106.849 94.3199 106.139C94.4097 106.054 94.4829 105.935 94.5594 105.833C94.616 105.707 94.6925 105.588 94.7124 105.456C94.7922 105.193 94.7656 104.932 94.7423 104.685C94.6625 104.196 94.4829 103.754 94.29 103.332C93.8942 102.487 93.4318 101.699 92.9828 100.904C92.5337 100.109 92.0814 99.3202 91.6523 98.5185C89.936 95.3217 88.7485 91.8082 88.5756 88.1562Z" fill="#874C2E"/>
<path d="M65.8012 73.4424C66.6394 74.2672 70.3714 76.9032 73.9304 76.9032C74.5225 76.9032 75.1478 76.8504 75.8097 76.7283C78.7966 76.1873 81.3112 74.2111 82.7814 71.9479C83.0542 71.5224 83.2937 71.0836 83.4899 70.6448C83.756 70.0774 83.9456 69.4967 84.0554 68.9359C82.5586 68.7544 81.1283 68.3817 80.8955 68.1177C80.6427 69.8464 78.4906 72.9674 75.2309 73.5546C74.8218 73.6305 74.436 73.6635 74.0668 73.6701H74.0601C72.5301 73.6965 71.3559 73.2115 70.5543 72.7232C70.5477 72.7232 68.9943 71.5092 68.9877 71.5026L65.8012 73.4424Z" fill="#BC744A"/>
<path d="M72.6464 53.3632C71.898 52.71 70.1018 52.964 69.3368 53.449C69.1871 53.5447 69.0241 53.3302 69.1505 53.2082C69.6661 52.6968 70.5309 52.6671 71.2194 52.6935C71.7416 52.7133 72.5965 52.6902 72.7761 53.294C72.7961 53.3632 72.6996 53.4094 72.6464 53.3632Z" fill="#3D302A"/>
<path d="M65.3452 53.8056C64.8895 53.7726 64.4638 53.6868 64.0081 53.799C63.5524 53.9111 63.2164 54.1883 62.8107 54.3994C62.7242 54.4456 62.6443 54.3565 62.6809 54.2707C63.0801 53.3965 64.6268 53.0765 65.3984 53.601C65.4816 53.6604 65.4616 53.8122 65.3452 53.8056Z" fill="#3D302A"/>
<path d="M67.1776 56.2938C67.2076 56.9734 67.181 57.6695 67.0679 58.3425C67.028 58.5833 66.7153 59.2299 66.7652 59.4345C66.8217 59.6588 67.2175 59.9392 67.3539 60.1636C67.4238 60.2757 67.2874 60.3912 67.181 60.3351C66.7752 60.1273 66.3095 59.8172 66.396 59.3322C66.4725 58.8802 66.682 58.4481 66.7519 57.9829C66.8384 57.422 66.8417 56.8579 66.8949 56.2905C66.9082 56.1156 67.171 56.109 67.1776 56.2938Z" fill="#CC6144"/>
<path d="M74.3455 64.7224C73.4075 65.8144 71.8043 66.5468 70.364 66.5897C70.221 66.593 70.1844 66.362 70.3308 66.3356C71.8575 66.0552 72.9851 65.534 74.2058 64.5805C74.3023 64.5014 74.432 64.6234 74.3455 64.7224Z" fill="#CC6144"/>
<path d="M81.6269 68.1698C83.7889 67.1537 84.9464 70.3768 85.1659 71.9571C85.585 74.9955 84.228 77.8229 82.9906 80.5116C81.6934 83.3356 80.2099 86.0639 78.8827 88.8715C78.1975 90.3264 77.5889 91.8142 77.1332 93.3549C76.6542 94.9648 76.601 96.7595 76.0122 98.3134C75.9324 98.5245 75.6563 98.4784 75.6297 98.2606C75.3437 96.0107 76.3482 93.2427 77.1298 91.1379C77.8782 89.1222 78.8462 87.1955 79.8107 85.2755C81.0714 82.7715 82.3486 80.2411 83.3831 77.6348C83.902 76.3284 84.3311 74.9626 84.4242 73.5506C84.4974 72.4223 84.0816 67.8333 81.8697 68.7405C81.5437 68.8791 81.3042 68.3215 81.6269 68.1698Z" fill="#874C2E"/>
<path d="M68.9939 71.6407C66.273 72.6667 67.2243 77.5988 67.5969 79.7366C68.0492 82.3396 68.8974 84.8634 69.9618 87.2816C72.034 91.996 74.828 96.3706 77.3293 100.864C77.5356 101.233 76.9701 101.563 76.7572 101.197C73.6472 95.7833 70.1048 90.5312 68.0526 84.5995C67.1013 81.848 66.4926 78.9514 66.4493 76.0351C66.4227 74.0952 66.7088 71.7364 68.8276 71.0271C69.2167 70.8951 69.3697 71.4955 68.9939 71.6407Z" fill="#874C2E"/>
<path d="M72.6226 98.5708C74.7248 98.5082 76.8269 98.4488 78.9291 98.3861C79.2684 98.3762 79.4679 98.6566 79.5045 98.9568C79.9003 102.088 80.0367 105.278 80.5124 108.395C80.5689 108.762 80.366 109.111 79.9569 109.118C77.8847 109.161 75.8091 109.224 73.7369 109.243C73.6271 109.243 73.5373 109.22 73.4608 109.177C73.4575 109.177 73.4542 109.174 73.4508 109.171C73.4309 109.161 73.4109 109.148 73.391 109.134C73.2945 109.068 73.218 108.966 73.1814 108.821C72.3798 105.743 72.3798 102.295 72.0472 99.1383C72.0139 98.8282 72.3366 98.5774 72.6226 98.5708Z" fill="#874C2E"/>
<path d="M64.2807 111.269C64.1909 109.57 64.3606 107.851 64.3705 106.148C64.3839 104.387 64.3306 102.625 64.2342 100.863C64.141 99.1576 64.0047 97.452 63.8084 95.7563C63.6055 94.0078 63.2363 92.2758 63.05 90.5273C63.0234 90.2931 63.4026 90.2502 63.4592 90.4712C63.8716 92.0778 64.0313 93.7901 64.2275 95.4363C64.4404 97.2376 64.6001 99.0488 64.6865 100.863C64.773 102.622 64.783 104.387 64.7431 106.148C64.7032 107.851 64.7032 109.609 64.3506 111.278C64.3473 111.321 64.2841 111.308 64.2807 111.269Z" fill="#874C2E"/>
<path d="M81.7632 71.3403C81.2011 73.6265 78.6199 75.5664 76.3515 75.9029C76.1586 75.9326 76.0754 75.6687 76.2683 75.6093C77.4391 75.2398 78.5435 74.7614 79.4881 73.9663C80.4028 73.1977 80.9616 72.2508 81.6036 71.2743C81.6601 71.1951 81.7865 71.2446 81.7632 71.3403Z" fill="#874C2E"/>
<path d="M74.2062 75.9154C73.8104 75.8263 73.4179 75.7339 73.0287 75.6251C72.6795 75.5261 72.3136 75.4601 72.0109 75.2589C71.9211 75.1995 71.9543 75.0576 72.0674 75.0543C72.7826 75.0345 73.6141 75.4271 74.2794 75.6614C74.439 75.7142 74.3758 75.9517 74.2062 75.9154Z" fill="#874C2E"/>
<path d="M78.0612 54.4927C77.8417 54.1595 77.5024 55.1954 77.4891 55.2812C77.4259 55.6837 77.5091 56.0432 77.6122 56.4292C77.6521 56.5744 77.1997 56.4589 77.1465 56.3567C76.8538 55.7958 76.8305 54.8193 77.3394 54.3574C77.6588 54.0704 78.2774 54.1496 78.5069 54.5092C78.6134 54.6708 78.1344 54.6049 78.0612 54.4927Z" fill="#CC6144"/>
<path d="M77.3426 55.2873C77.346 55.2444 77.3426 55.2015 77.3293 55.1586C77.326 55.1454 77.326 55.1355 77.3393 55.1256C77.5189 54.9079 77.8017 54.8056 78.0744 54.9079C78.091 54.9145 78.1476 54.9409 78.1243 54.9673C78.0578 55.0365 77.9314 55.0332 77.8482 55.0728C77.7784 55.1058 77.7285 55.152 77.6686 55.2015C77.6087 55.2543 77.5356 55.2774 77.4757 55.3269C77.4458 55.35 77.3426 55.3269 77.3426 55.2873Z" fill="#CC6144"/>
<path d="M69.7359 63.7555C69.4831 64.1019 68.9409 64.2833 68.5484 64.0491C68.5185 64.0326 68.5218 64.0095 68.5584 64.0128C68.9077 64.0293 69.227 63.9303 69.4365 63.64C69.4864 63.5707 69.7957 63.673 69.7359 63.7555Z" fill="#CC6144"/>
<path d="M72.2042 56.844C72.2441 57.1112 72.2341 57.3256 72.0811 57.5599C71.9514 57.7578 71.7818 57.9063 71.5423 57.9525C71.5157 57.9591 71.376 57.9294 71.4092 57.8832C71.539 57.705 71.7352 57.6028 71.8483 57.4048C71.9481 57.2267 72.0412 57.0188 72.0545 56.8143C72.0545 56.7747 72.1976 56.811 72.2042 56.844Z" fill="#CC6144"/>
<path d="M64.2236 58.4786C64.1999 58.4786 64.1357 58.4414 64.1898 58.4414C64.2168 58.4414 64.2777 58.4786 64.2236 58.4786Z" fill="#CC6144"/>
<path d="M63.8549 58.4072C63.6353 58.295 63.326 57.9684 63.5322 57.721C63.5489 57.7012 63.6121 57.7243 63.6187 57.7441C63.7218 57.9783 63.7451 58.229 63.9979 58.3577C64.1476 58.4336 63.9247 58.4402 63.8549 58.4072Z" fill="#CC6144"/>
<path d="M64.1842 98.0755C64.0911 96.6733 63.4424 95.5781 62.5776 94.4927C61.9057 93.6514 61.0675 93.107 60.2958 92.3813C60.2127 92.3021 60.2992 92.1536 60.4089 92.1866C61.5332 92.5363 62.4446 93.6679 63.1165 94.5718C63.8216 95.5187 64.7995 96.8548 64.3671 98.0952C64.3339 98.2008 64.1942 98.181 64.1842 98.0755Z" fill="#874C2E"/>
<path d="M64.3535 98.9105C63.9976 98.4783 63.7714 97.9537 63.4588 97.4886C63.0896 96.9409 62.6571 96.4296 62.1815 95.9677C62.0884 95.8786 61.2069 94.9846 61.1204 95.7005C61.0672 96.1524 61.9786 96.324 62.248 96.4857C62.5507 96.6671 62.7536 96.809 62.7536 97.1785C62.7536 97.2972 62.574 97.3566 62.5174 97.2411C62.1582 96.5252 60.8643 96.5516 60.7279 95.5916C60.6747 95.2056 60.9841 94.9615 61.3632 95.0011C62.0451 95.0736 62.7536 96.0568 63.1361 96.5285C63.6683 97.1884 64.297 98.0098 64.4267 98.8643C64.4333 98.9039 64.3835 98.9468 64.3535 98.9105Z" fill="#874C2E"/>
<path d="M77.5593 116.307C77.5559 117.449 77.5759 118.554 77.9817 119.639C78.3842 120.721 79.1126 121.546 79.7845 122.46C79.8344 122.529 79.7379 122.608 79.6714 122.572C77.7023 121.49 76.7044 118.356 77.3796 116.284C77.4096 116.188 77.5593 116.202 77.5593 116.307Z" fill="#874C2E"/>
<path d="M68.7878 105.806C69.0706 107.564 69.3965 109.167 70.3146 110.731C71.2259 112.285 72.5231 113.634 74.0432 114.611C74.1663 114.69 74.0565 114.878 73.9301 114.806C70.88 113.083 68.3122 109.454 68.5251 105.842C68.5317 105.703 68.7612 105.651 68.7878 105.806Z" fill="#874C2E"/>
<path d="M58.7957 61.0477C58.4132 60.8927 57.9209 60.7442 57.6781 60.3912C57.6415 60.3384 57.6914 60.2691 57.7513 60.2658C58.1704 60.2526 58.5762 60.5594 58.9155 60.7673C59.0552 60.8564 58.9654 61.1137 58.7957 61.0477Z" fill="#874C2E"/>
<path d="M58.7426 62.0338C58.5098 62.1921 58.1339 62.3373 57.8678 62.1756C57.7913 62.1295 57.788 62.014 57.8678 61.9678C57.9776 61.9051 58.1073 61.8886 58.227 61.8589C58.3601 61.8259 58.4898 61.7864 58.6129 61.7336C58.7992 61.661 58.8856 61.9348 58.7426 62.0338Z" fill="#874C2E"/>
<path d="M59.0953 63.9076C58.8691 64.0395 58.5697 64.254 58.2937 64.2375C58.2271 64.2342 58.1772 64.1616 58.2138 64.1022C58.3602 63.868 58.6961 63.7525 58.9389 63.6469C59.1152 63.5644 59.2716 63.802 59.0953 63.9076Z" fill="#874C2E"/>
<path d="M178.562 126.901H169.548H154.384H148.068H132.132H14.9932H9.15904H4.21298" stroke="black" stroke-width="2.1886" stroke-miterlimit="10" stroke-linecap="round"/>
<path d="M180.768 126.901H190.537" stroke="black" stroke-width="2.1886" stroke-miterlimit="10" stroke-linecap="round"/>
<path d="M1.16646 126.901H2.80296" stroke="black" stroke-width="2.1886" stroke-miterlimit="10" stroke-linecap="round"/>
<path d="M23.811 124.908H79.0259C79.5581 124.908 79.9938 125.337 79.9938 125.868V125.937C79.9938 126.465 79.5614 126.897 79.0259 126.897H23.811C23.2788 126.897 22.843 126.468 22.843 125.937V125.868C22.843 125.337 23.2754 124.908 23.811 124.908Z" fill="#2D2442"/>
<path d="M13.0308 100.511C24.5195 100.395 36.0081 100.28 47.4968 100.164C49.1267 100.148 50.7598 100.131 52.3897 100.115C52.6425 100.111 52.9684 100.26 53.0782 100.504C56.2348 107.732 59.3913 114.961 62.5479 122.189C62.9969 123.221 63.4493 124.251 63.8983 125.283C63.9149 125.316 63.9216 125.353 63.9316 125.386C63.9316 125.386 63.9316 125.386 63.9316 125.389C63.9416 125.422 63.9515 125.455 63.9582 125.488C64.048 125.907 63.8351 126.398 63.3162 126.461C63.1965 126.497 63.0734 126.504 62.9537 126.474C51.1457 126.567 39.3377 126.656 27.5297 126.748C25.8433 126.761 24.1569 126.775 22.4738 126.788C22.098 126.791 21.8319 126.537 21.7055 126.207C18.5589 117.973 15.409 109.738 12.2624 101.504C12.0728 101.019 12.5518 100.514 13.0308 100.511Z" fill="#2D2442"/>
<path d="M13.0309 99.9696C23.6349 99.864 34.2421 99.7584 44.846 99.6495C46.1366 99.6364 47.4305 99.6232 48.7211 99.61C49.8886 99.5968 51.239 99.3955 52.3932 99.5737C54.1062 99.8376 54.5453 102.507 55.1307 103.846C57.2361 108.666 59.3383 113.486 61.4438 118.303C62.3452 120.368 63.2499 122.43 64.148 124.495C64.4873 125.273 64.8166 126.217 63.9251 126.808C63.4728 127.108 62.7909 127.012 62.302 127.019C60.9914 127.035 59.6776 127.038 58.3671 127.048C55.7427 127.068 53.1183 127.088 50.4939 127.108C45.2452 127.147 39.9965 127.19 34.751 127.23C32.1333 127.25 29.5189 127.269 26.9012 127.289C25.8468 127.296 24.7957 127.306 23.7413 127.312C22.9297 127.319 22.1248 127.474 21.4961 126.88C20.8142 126.237 20.5847 124.775 20.2621 123.934C19.8031 122.73 19.3407 121.522 18.8817 120.318C17.8074 117.507 16.733 114.693 15.6586 111.883C14.6608 109.273 13.6629 106.66 12.6651 104.051C12.1661 102.744 10.7758 100.517 12.8912 99.9762C13.5731 99.8013 13.8625 100.847 13.1806 101.022C12.4821 101.2 14.8603 106.759 15.0965 107.379C15.8649 109.388 16.6332 111.398 17.3982 113.403C18.1666 115.413 18.935 117.422 19.7 119.428C20.0459 120.331 20.3918 121.235 20.7378 122.139C21.1136 123.126 21.3864 124.584 22.005 125.452C22.8 126.573 24.4598 126.22 25.6372 126.21C26.7083 126.201 27.776 126.194 28.847 126.184C31.0323 126.168 33.221 126.151 35.4063 126.135C39.7802 126.102 44.1542 126.065 48.5282 126.032C52.9021 125.999 57.2761 125.963 61.65 125.93C62.1024 125.927 62.8674 126.118 63.1867 125.719C63.5958 125.211 63.363 125.943 63.21 125.029C63.0803 124.267 62.5048 123.416 62.1955 122.707C61.2808 120.612 60.3661 118.52 59.4514 116.425C57.6985 112.41 55.9456 108.392 54.1893 104.377C53.8002 103.486 53.4875 102.091 52.8755 101.365C52.0573 100.395 50.76 100.656 49.6424 100.669C47.3806 100.692 45.1221 100.715 42.8603 100.738C32.9183 100.837 22.9763 100.936 13.0343 101.038C12.3258 101.058 12.3258 99.9762 13.0309 99.9696Z" fill="#2D2442"/>
<path d="M39.4838 116.191C38.0124 116.191 36.8195 115.329 36.8195 114.265C36.8195 113.201 38.0124 112.338 39.4838 112.338C40.9553 112.338 42.1481 113.201 42.1481 114.265C42.1481 115.329 40.9553 116.191 39.4838 116.191Z" fill="#5A4F72"/>
<path d="M34.3618 115.465C33.5939 115.465 32.9714 115.016 32.9714 114.462C32.9714 113.909 33.5939 113.46 34.3618 113.46C35.1296 113.46 35.7521 113.909 35.7521 114.462C35.7521 115.016 35.1296 115.465 34.3618 115.465Z" fill="#5A4F72"/>
<path d="M99.4783 119.853C97.7787 119.652 94.7684 119.196 94.6919 118.16C95.7929 117.454 97.0037 116.742 98.3142 116.679C99.3586 116.63 100.37 117.009 101.324 117.431C102.136 117.791 102.934 118.18 103.713 118.603C104.032 118.777 104.87 119.398 104.883 119.83C104.9 120.368 103.906 120.051 103.51 120.077C102.163 120.173 100.812 120.015 99.4783 119.853Z" fill="#C1ADA4"/>
<path d="M103.493 118.976C103.493 118.976 101.232 126.316 100.037 126.494C98.84 126.669 87.1384 126.758 86.8291 126.626C86.5197 126.494 86.4732 126.273 86.4732 126.273C86.4732 126.273 79.0258 126.758 78.8927 126.58C78.7597 126.402 78.8927 125.524 79.2487 125.392C79.6046 125.26 90.8604 122.756 91.835 122.403C92.8096 122.05 95.8697 122.14 95.8697 122.14L96.4917 117.874L103.493 118.976Z" fill="#FE8E68"/>
<path d="M100.762 26.8626C100.031 27.6412 99.6315 28.72 99.6847 29.7856C99.718 30.419 99.901 31.0359 100.094 31.643C100.463 32.8108 100.902 34.0183 101.817 34.8398C101.967 34.9717 102.153 35.1004 102.349 35.0674C102.715 33.9457 103.084 32.8273 103.45 31.7057C103.626 31.1679 103.803 30.6269 103.902 30.0693C104.069 29.1258 104.009 28.1394 103.689 27.2387C103.543 26.8296 103.334 26.4238 102.984 26.1599C102.136 25.5133 101.341 26.249 100.762 26.8626Z" fill="#433735"/>
<path d="M122.443 88.9637C122.562 90.1118 122.383 91.3225 122.32 92.4706C122.283 93.1238 122.246 93.777 122.25 94.4302C122.25 94.8096 122.363 95.2715 122.233 95.6278C122.22 95.6641 122.163 95.6905 122.133 95.6542C121.621 95.0373 121.91 93.5626 121.937 92.817C121.977 91.5337 122.04 90.247 122.09 88.9637C122.093 88.7327 122.419 88.7393 122.443 88.9637Z" fill="#9B8580"/>
<path d="M119.146 86.7008C120.377 89.472 121.059 92.2927 122.745 94.8825C122.842 95.0277 122.602 95.1662 122.509 95.0178C121.019 92.6952 119.396 89.505 119.003 86.7569C118.993 86.681 119.107 86.6117 119.146 86.7008Z" fill="#9B8580"/>
<path d="M146.195 126.9L145.437 101.54L139.879 126.9H123.939C124.997 118.464 129.697 83.2002 134.607 80.2112L153.899 68.2983C153.899 68.2983 165.061 71.185 164.818 87.1888C163.927 102.605 162.028 120.744 161.356 126.9H146.195Z" fill="#2D2442"/>
<path d="M94.7353 118.187C95.1478 118.811 97.2566 118.342 97.8786 118.402C98.4374 118.455 98.9629 118.666 99.5051 118.804C101.228 119.25 103.154 119.015 104.704 119.886C104.751 119.913 104.807 119.943 104.86 119.926C104.92 119.91 104.947 119.844 104.967 119.787C105.958 117.069 106.73 114.232 107.598 111.461C108.902 107.297 110.202 103.13 111.506 98.967C112.178 96.816 112.853 94.665 113.525 92.514L118.258 70.7632L116.153 55.4324L115.654 51.8166L115.617 51.5428C115.617 51.5428 115.514 51.5791 115.324 51.6451C114.666 51.876 112.973 52.5029 111.1 53.4101C108.097 54.865 104.624 57.0457 104.152 59.5134C104.152 59.5233 104.148 59.5299 104.148 59.5398C103.899 61.2718 103.616 62.9972 103.344 64.7259C102.858 67.7908 102.366 70.8523 101.87 73.9138C101.255 77.7243 100.639 81.5347 100.021 85.3451C99.3754 89.3172 98.7301 93.286 98.0848 97.2548C97.5094 100.798 96.9306 104.341 96.3519 107.881C95.9394 110.408 95.527 112.935 95.1145 115.462C95.0014 116.162 94.885 116.861 94.7719 117.561C94.752 117.683 94.6455 117.97 94.6854 118.088C94.6987 118.125 94.7154 118.158 94.7353 118.187Z" fill="#EED9CE"/>
<path d="M115.621 51.5397L115.658 51.8135L116.156 55.4293L118.262 70.7601L128.56 77.0514C129.099 77.3813 129.561 79.6379 129.781 80.2053C130.492 82.0429 131.111 83.9531 131.926 85.7478C132.092 86.1173 132.242 87.1169 132.611 87.3412C133.353 87.7932 136.373 87.173 137.304 87.1136C140.754 86.8926 144.243 86.3911 147.399 84.9164C149.894 83.7486 152.106 82.099 154.454 80.6837C155.891 79.8194 157.491 79.2783 159.008 78.5822C160.022 78.117 162.214 77.2263 162.607 76.0419C162.72 75.6988 162.544 75.3359 162.377 75.0192C161.652 73.627 161.17 71.9478 160.315 70.6545C159.527 69.4636 158.552 68.3881 157.784 67.1641C156.234 64.7063 154.867 62.1099 152.931 59.916C149.638 56.1815 146.867 51.9158 143.475 48.1944C141.968 46.5416 137.271 44.9679 135.026 44.8756C132.984 44.7931 131.005 45.1263 129.272 45.6047C127.878 45.994 126.641 46.4789 125.666 46.9144C124.236 47.5577 123.364 48.1021 123.364 48.1021L115.621 51.5397Z" fill="#EED9CE"/>
<path d="M111.815 71.9376C110.731 71.2745 105.665 68.0678 105.209 66.9098C105 66.372 103.849 64.7159 102.858 63.162C102.269 62.2416 100.782 60.437 100.406 60.051C99.761 59.3879 98.833 57.745 98.2708 58.286C97.5723 58.959 98.6633 60.6415 99.2787 61.6742C99.5049 62.0535 99.7477 62.4329 99.8441 62.8618C99.9406 63.2907 99.9206 63.6107 99.6645 63.9736C99.5248 64.1716 98.5802 64.2639 98.2609 64.2507C95.8693 64.1452 94.8315 64.287 93.0454 63.6272C91.2592 62.9674 89.5928 62.0371 87.9097 61.1529C87.6203 61.0011 87.4474 60.691 86.7954 60.6316C86.4695 60.602 85.7843 60.6448 85.8209 60.9682C85.8508 61.2189 87.8598 62.776 88.0661 62.9212C89.1803 63.7064 89.0539 63.6173 90.1682 64.4025C90.3412 64.5246 90.5274 64.6664 90.5707 64.871C90.6073 65.0425 90.5308 65.2207 90.5274 65.3955C90.5208 65.7122 90.7403 65.9827 90.9599 66.2137C91.3424 66.6195 91.7448 66.9989 92.1706 67.3585C92.7626 67.8632 92.2804 68.2921 92.9256 68.7342C93.6374 69.2224 95.4802 69.7173 96.2119 70.1726C96.794 70.5388 97.3827 70.9083 98.0247 71.1623C98.793 71.4658 99.6146 71.6011 100.426 71.766C102.645 72.2213 106.53 76.2099 108.406 77.5262" fill="#FE8E68"/>
<path d="M99.0727 71.4825C99.0727 71.4825 96.282 71.1328 94.0634 70.1101C91.8448 69.0874 86.3599 65.7289 86.3599 65.7289C86.3599 65.7289 86.2834 65.5376 86.3433 65.4056C86.3998 65.2737 87.2347 65.0889 87.9066 65.3759C88.5785 65.6629 92.8759 67.5137 92.8759 67.5137" fill="#FE8E68"/>
<path d="M99.6248 70.5514C99.6248 70.5514 96.0891 69.819 93.8705 68.7963C91.6519 67.7736 86.167 64.4151 86.167 64.4151C86.167 64.4151 86.0905 64.2238 86.1504 64.0918C86.2103 63.9599 87.0418 63.7751 87.7137 64.0621C88.3856 64.3525 92.683 66.1999 92.683 66.1999" fill="#FE8E68"/>
<path d="M98.507 68.5363C98.507 68.5363 94.9713 67.8039 92.7527 66.7812C90.5341 65.7585 87.0882 64.01 85.1357 62.6871C85.006 62.6013 84.9727 62.212 85.0326 62.0767C85.0924 61.9448 85.924 61.76 86.5959 62.0503C87.2678 62.3407 91.5652 64.1881 91.5652 64.1881" fill="#FE8E68"/>
<path d="M111.619 47.5373C111.619 47.5373 103.064 52.7103 101.065 42.2423C100.579 37.9106 99.974 30.8704 103.613 28.119C107.252 25.3675 115.624 25.0508 115.807 33.2193C115.487 35.565 115.581 35.7464 115.581 35.7464C115.581 35.7464 118.72 34.8887 118.039 38.7684C117.676 40.5268 117.204 41.1602 117.204 41.1602C117.204 41.1602 123.627 46.1484 123.633 46.155C124.225 46.6136 124.721 47.379 125.539 47.0095C125.629 46.9699 125.715 46.9171 125.812 46.9006C125.908 46.8841 126.021 46.9138 126.071 46.9996C126.101 47.0524 126.098 47.1183 126.101 47.181C126.111 47.4944 126.234 47.7881 126.318 48.0883C126.64 49.2396 126.304 50.3184 125.692 51.3148C125.173 52.1593 124.435 52.8785 123.563 53.3602C122.729 53.8221 121.791 54.0728 120.849 54.241C119.665 54.4522 118.411 54.5347 117.24 54.2114C116.522 54.0134 116.033 53.7924 115.534 53.215C115.441 53.1062 115.351 52.994 115.288 52.8653C115.145 52.575 115.138 52.2418 115.141 51.9185C115.141 51.8723 115.145 51.8261 115.175 51.7898C115.205 51.7535 115.258 51.7469 115.304 51.7403C115.827 51.6546 115.481 51.3807 115.265 51.1564C115.048 50.9321 114.829 50.711 114.609 50.4867C114.15 50.0215 113.685 49.5597 113.219 49.0978C112.683 48.5765 112.151 48.0553 111.619 47.5373Z" fill="#FE8E68"/>
<path d="M103.942 33.6523C105.246 33.1773 107.498 33.6886 108.322 34.84C108.379 34.9192 108.283 35.0478 108.189 35.0082C107.534 34.7509 106.985 34.3352 106.29 34.1406C105.512 33.9228 104.77 33.9822 103.982 33.9459C103.806 33.9426 103.782 33.7117 103.942 33.6523Z" fill="#433735"/>
<path d="M100.742 36.6379C100.939 37.2647 100.742 37.9806 100.486 38.5876C100.23 39.1947 99.8343 39.7291 99.4451 40.2603C99.2688 40.4978 99.0925 40.7386 98.9162 40.9762C99.4651 41.1576 100.004 41.3819 100.519 41.6459C100.829 41.8042 101.161 42.0187 101.225 42.3585" fill="#FE8E68"/>
<path d="M111.313 70.1033C117.553 72.9767 127.269 78.1662 127.269 78.1662L128.663 68.1766L143.345 68.2954C143.345 68.2954 139.097 91.5208 135.821 93.6883C135.821 93.6883 131.939 96.575 125.629 92.2434C121.465 89.3831 111.779 81.8678 107.019 77.7571L111.313 70.1033Z" fill="#EED9CE"/>
<path d="M138.894 86.935C138.99 85.3383 139.752 83.6063 140.161 82.0623C140.743 79.8717 141.325 77.6811 141.871 75.4806C142.852 71.502 143.69 67.5035 144.565 63.505C144.591 63.3896 144.788 63.4126 144.778 63.5347C144.452 67.5233 143.391 71.5119 142.423 75.3817C141.89 77.5162 141.342 79.6507 140.74 81.7654C140.274 83.3984 139.945 85.5164 139.053 86.9779C139.013 87.0472 138.89 87.0241 138.894 86.935Z" fill="#DBC4BD"/>
<path d="M107.378 77.2323C110.425 79.225 113.143 81.8411 115.641 84.4639C115.86 84.6948 115.511 85.0412 115.291 84.8103C112.75 82.1545 109.943 79.9079 107.122 77.5622C106.933 77.4105 107.175 77.1004 107.378 77.2323Z" fill="#DBC4BD"/>
<path d="M117.563 73.3097C116.555 73.158 115.544 72.6466 114.636 72.2045C113.845 71.8185 112.8 71.4523 112.278 70.7232C112.185 70.5913 112.338 70.4626 112.464 70.4824C113.326 70.6111 114.161 71.3072 114.936 71.6932C115.837 72.1418 116.838 72.4718 117.69 73.0062C117.863 73.1118 117.746 73.3394 117.563 73.3097Z" fill="#DBC4BD"/>
<path d="M125.918 46.7588C127.046 45.6108 128.15 47.6562 128.49 48.5898C129.394 51.0872 128.856 54.0663 128.12 56.5307C127.229 59.5329 125.736 62.281 124.937 65.3194C124.029 68.7835 123.361 72.2508 123.497 75.8435C123.507 76.0645 123.164 76.0612 123.151 75.8435C122.842 71.1588 123.976 65.9232 125.739 61.5882C126.627 59.4009 127.628 57.2961 128.154 54.9801C128.45 53.677 128.636 52.3178 128.576 50.9817C128.553 50.4571 127.648 45.4689 126.155 46.9865C126.005 47.1448 125.769 46.9106 125.918 46.7588Z" fill="#9B8580"/>
<path d="M114.682 51.0706C114.396 51.5424 114.114 52.0142 113.828 52.4826C113.771 52.796 113.714 53.1128 113.658 53.4262C113.628 53.7726 113.645 54.1256 113.668 54.4687C113.731 55.4089 113.964 56.3327 114.12 57.263C114.416 59.0544 114.646 60.8557 114.955 62.6471C115.55 66.0979 116.345 69.5059 117.47 72.828C117.533 73.0128 117.244 73.0887 117.18 72.9072C115.61 68.4666 114.756 63.8545 114.054 59.2094C113.731 57.0584 111.882 51.9284 114.802 50.8133C114.919 50.7671 115.032 50.9024 115.002 51.0112C114.992 51.0442 114.982 51.0772 114.975 51.1069C114.922 51.2686 114.689 51.2323 114.682 51.0706Z" fill="#9B8580"/>
<path d="M118.731 93.5532C118.727 93.2596 118.997 92.9627 119.306 92.9825C121.405 93.1211 123.501 93.2629 125.599 93.4015C125.915 93.4213 126.165 93.6456 126.175 93.9722C126.265 97.1756 126.095 100.419 126.265 103.615C126.281 103.909 125.989 104.209 125.689 104.186C123.62 104.031 121.551 103.893 119.486 103.718C119.469 103.718 119.456 103.711 119.439 103.708C119.203 103.721 118.98 103.602 118.93 103.299C118.435 100.151 118.754 96.7335 118.731 93.5532Z" fill="#D6CED7"/>
<path d="M118.332 37.4561C119.273 37.5815 119.991 37.8058 120.677 36.9481C120.953 36.6049 121.172 36.2453 121.601 36.0837C121.658 36.0639 121.701 36.1431 121.658 36.1794C121.126 36.661 120.743 37.4891 120.041 37.7563C119.486 37.9675 118.801 37.8157 118.285 37.5617C118.218 37.532 118.272 37.4462 118.332 37.4561Z" fill="#594C4A"/>
<path d="M105.399 40.7089C103.792 40.7089 102.489 39.4165 102.489 37.8222C102.489 36.228 103.792 34.9355 105.399 34.9355C107.007 34.9355 108.31 36.228 108.31 37.8222C108.31 39.4165 107.007 40.7089 105.399 40.7089Z" stroke="#F9F9F9" stroke-width="1.0943" stroke-miterlimit="10"/>
<path d="M102.399 37.0633C102.292 37.0006 102.246 36.9016 102.149 36.8225C102.01 36.707 101.827 36.641 101.65 36.608C101.487 36.5783 101.311 36.5783 101.155 36.6377C101.008 36.6938 100.972 36.8324 100.839 36.8885C100.802 36.9049 100.769 36.8983 100.742 36.8621C100.732 36.8489 100.722 36.8324 100.709 36.8192C100.679 36.7796 100.689 36.7301 100.709 36.6905C100.879 36.3276 101.368 36.2979 101.713 36.3705C102.01 36.4332 102.542 36.6575 102.485 37.027C102.485 37.0666 102.429 37.0798 102.399 37.0633Z" fill="#F9F9F9"/>
<path d="M118.371 32.6455C116.884 33.7078 107.588 32.4046 104.584 31.0388C98.4838 28.2643 97.8851 23.3784 99.312 22.4612C99.485 22.349 99.6746 22.2633 99.8775 22.2369C100.356 22.1808 100.796 22.4744 101.185 22.7548C101.032 22.2006 100.476 19.7956 101.956 18.8388C103.945 17.5555 106.447 19.7263 106.856 19.9968C109.693 21.8806 111.226 22.2006 111.226 22.2006C111.226 22.2006 110.728 17.4532 114.646 21.0987C115.88 22.2468 118.172 23.319 119.402 24.4736C120.693 25.6844 121.428 27.6606 120.683 29.3497" fill="#433735"/>
<path d="M114.014 29.7683C113.163 30.4545 112.784 31.553 112.537 32.6153C112.168 34.2121 112.022 35.9078 112.534 37.465C112.68 37.9071 112.497 39.9525 112.847 39.8931C112.956 39.8766 113.203 38.3096 113.618 37.5112C114.267 36.274 116.326 36.1058 117.074 37.0757C118.002 38.2766 117.407 39.1244 116.994 40.322C116.688 41.2127 116.991 42.3311 118.089 42.6379C119.113 42.925 118.817 42.1563 119.226 41.4371C120.104 39.8865 121.023 38.5306 121.611 36.8052C122.539 34.0834 123.304 29.953 120.434 28.0692C119.715 27.5975 117.347 27.0234 116.549 27.3401" fill="#433735"/>
<path d="M114.713 35.8425C114.284 36.6804 113.289 36.8454 112.444 37.0565C111.227 37.3601 109.923 37.5976 108.663 37.5943C108.443 37.5943 108.456 37.2908 108.663 37.2644C109.744 37.1291 110.818 37.0367 111.882 36.8058C112.76 36.6178 113.955 36.4495 114.55 35.7204C114.63 35.6247 114.763 35.7435 114.713 35.8425Z" fill="#F9F9F9"/>
<path d="M113.366 45.4593C112.913 46.3171 112.201 47.165 111.317 47.607C111.277 47.6268 111.233 47.5774 111.267 47.5444C111.965 46.8417 112.66 46.195 113.252 45.3967C113.302 45.3307 113.402 45.3868 113.366 45.4593Z" fill="#CC6144"/>
<path d="M95.9224 35.2778C95.5066 35.0073 95.0609 34.7533 94.7283 34.3805C94.705 34.3541 94.7283 34.298 94.7682 34.3145C95.2339 34.4926 95.6264 34.816 96.0222 35.1096C96.122 35.1822 96.0321 35.3471 95.9224 35.2778Z" fill="#433735"/>
<path d="M95.3206 36.4263C95.0079 36.3604 94.6154 36.2878 94.3493 36.1063C94.2795 36.0568 94.3061 35.9546 94.3926 35.948C94.7152 35.9282 95.0878 36.0733 95.3905 36.1789C95.5468 36.2317 95.4836 36.4593 95.3206 36.4263Z" fill="#433735"/>
<path d="M95.2078 37.8416C95.0149 37.7888 94.822 37.7459 94.6191 37.7228C94.4561 37.7063 94.2898 37.7063 94.1301 37.67C94.0836 37.6601 94.0703 37.5875 94.1168 37.5644C94.4628 37.3995 94.9284 37.4787 95.271 37.6172C95.4074 37.67 95.3575 37.8812 95.2078 37.8416Z" fill="#433735"/>
<path d="M156.739 80.0727C157.587 80.0463 157.551 81.3593 157.631 81.9202C157.737 82.6823 157.953 83.6654 157.291 84.2394C157.178 84.3384 157.025 84.2658 157.009 84.124C157.005 84.0877 157.002 84.0514 156.999 84.0184C156.989 83.9359 157.085 83.9095 157.145 83.9359C157.182 83.9524 157.222 83.9689 157.258 83.9854C157.182 84.0052 157.108 84.025 157.032 84.0448C157.421 83.4576 157.378 82.8901 157.295 82.227C157.212 81.5606 157.258 80.6731 156.683 80.2179C156.616 80.1684 156.673 80.076 156.739 80.0727Z" fill="black"/>
<path d="M155.771 80.7168C156.3 81.5811 156.427 83.1878 155.998 84.1082C155.948 84.2171 155.788 84.1544 155.785 84.0522C155.761 83.4979 155.898 82.9536 155.864 82.3927C155.831 81.8385 155.668 81.3106 155.618 80.7597C155.608 80.6739 155.731 80.6508 155.771 80.7168Z" fill="black"/>
<path d="M139.389 87.6973C139.503 88.0404 139.609 88.3868 139.762 88.7167C139.902 89.0169 140.115 89.2808 140.248 89.5811C140.311 89.7229 140.151 89.8615 140.025 89.7493C139.506 89.2874 139.22 88.3934 139.17 87.7237C139.163 87.5983 139.353 87.5818 139.389 87.6973Z" fill="black"/>
<path d="M138.652 88.8711C138.758 89.2505 138.931 89.5639 139.107 89.9103C139.18 90.0588 138.978 90.2468 138.861 90.0984C138.595 89.7619 138.475 89.3198 138.442 88.8975C138.435 88.7788 138.622 88.759 138.652 88.8711Z" fill="black"/>
<path d="M163.843 80.0263C162.792 80.6532 161.695 81.181 160.65 81.8342C159.739 82.4017 158.781 82.9361 157.697 83.078C157.537 83.0978 157.504 82.8338 157.66 82.8008C158.917 82.527 159.948 81.9266 161.02 81.247C161.844 80.7224 162.809 80.0065 163.817 79.934C163.87 79.934 163.883 80.0032 163.843 80.0263Z" fill="black"/>
<path d="M155.897 83.2929C153.243 84.6588 150.738 86.3446 148.018 87.5785C146.774 88.1426 145.466 88.5352 144.123 88.809C142.852 89.0663 141.349 89.416 140.055 89.2775C139.922 89.2643 139.875 89.0696 140.021 89.0333C141.405 88.6869 142.909 88.7166 144.316 88.4131C145.729 88.1063 147.083 87.6543 148.383 87.0209C150.898 85.8002 153.183 84.0781 155.804 83.0785C155.931 83.029 156.014 83.2303 155.897 83.2929Z" fill="black"/>
<path d="M143.86 102.055C143.438 101.57 143.009 101.091 142.52 100.672C142.244 100.435 140.83 99.191 140.398 99.6067C140.358 99.6463 140.278 99.6067 140.298 99.5507C140.514 98.8908 141.459 99.5737 141.775 99.7783C142.653 100.352 143.424 101.081 143.963 101.979C144.003 102.038 143.91 102.111 143.86 102.055Z" fill="black"/>
<path d="M147.023 101.668C148.32 100.395 150.047 99.5074 151.889 99.4348C151.943 99.4315 151.953 99.514 151.903 99.5272C150.12 99.9297 148.543 100.593 147.169 101.813C147.07 101.899 146.93 101.761 147.023 101.668Z" fill="black"/>
<path d="M143.99 102.896C142.403 103.45 141.159 104.43 140.793 106.136C140.714 106.076 140.634 106.014 140.554 105.954C140.963 105.694 141.319 105.37 141.618 104.991C141.831 104.72 141.984 104.361 142.234 104.12C142.506 103.859 142.935 103.77 143.258 103.978C143.278 103.991 143.265 104.024 143.241 104.014C142.523 103.751 142.114 104.856 141.775 105.268C141.469 105.644 141.106 105.944 140.717 106.231C140.594 106.324 140.454 106.172 140.477 106.05C140.807 104.43 142.214 102.817 143.963 102.718C144.076 102.711 144.083 102.863 143.99 102.896Z" fill="black"/>
<path d="M164.034 90.7456C162.411 89.7493 160.927 88.5286 160.039 86.8197C159.929 86.6086 160.252 86.4205 160.362 86.6317C161.223 88.2845 162.65 89.459 164.223 90.4256C164.426 90.551 164.24 90.871 164.034 90.7456Z" fill="black"/>
<path d="M144.625 88.8746C144.512 90.5407 144.266 92.1671 144.299 93.8431C144.336 95.6015 144.562 97.3467 144.948 99.0622C144.984 99.2239 144.731 99.2964 144.695 99.1315C144.312 97.4424 144.079 95.7301 144.036 93.9981C143.993 92.3123 144.026 90.4912 144.485 88.8548C144.505 88.779 144.628 88.7922 144.625 88.8746Z" fill="black"/>
<path d="M144.928 99.7878C145.087 100.052 145.114 100.398 145.171 100.695C145.221 100.959 145.327 101.259 145.24 101.523C145.224 101.573 145.161 101.579 145.131 101.536C144.968 101.302 144.974 100.969 144.924 100.695C144.871 100.411 144.765 100.114 144.785 99.8241C144.791 99.7515 144.888 99.7185 144.928 99.7878Z" fill="black"/>
<path d="M142.26 89.0529C142.307 90.3692 142.253 91.6921 142.24 93.0084C142.227 94.239 142.114 95.5124 142.237 96.7364C142.443 98.7554 144.422 99.7814 145.164 101.553C145.214 101.672 145.007 101.758 144.954 101.642C144.176 99.9332 142.263 98.9765 141.954 97.0267C141.764 95.8292 141.914 94.5425 141.934 93.3351C141.957 91.9099 141.941 90.4748 142.027 89.0496C142.034 88.9044 142.253 88.9044 142.26 89.0529Z" fill="black"/>
<path d="M127.203 51.0704C127.229 53.5315 124.618 55.0854 122.386 55.3031C122.21 55.3196 122.2 55.0656 122.346 55.0128C123.394 54.6301 124.455 54.4322 125.383 53.7657C126.268 53.1257 126.923 52.1657 127.046 51.0737C127.056 50.9714 127.203 50.9681 127.203 51.0704Z" fill="#C1ADA4"/>
<path d="M120.989 55.2864C120.639 55.3623 120.284 55.359 119.928 55.3623C119.565 55.3689 119.219 55.3821 118.873 55.26C118.793 55.2303 118.793 55.1247 118.873 55.0951C119.219 54.9763 119.565 54.9895 119.928 54.9928C120.284 54.9994 120.639 54.9928 120.989 55.0687C121.095 55.0951 121.095 55.2633 120.989 55.2864Z" fill="#C1ADA4"/>
<path d="M144.778 64.2044C144.838 63.5908 145.027 63.0629 145.443 62.5945C145.762 62.2349 146.428 61.7037 146.94 61.8324C147.03 61.8555 147.073 61.9842 146.996 62.0468C146.82 62.1953 146.614 62.2217 146.408 62.3174C146.155 62.4361 145.929 62.5978 145.726 62.7858C145.32 63.1619 145.004 63.6733 144.911 64.2176C144.901 64.2968 144.771 64.2803 144.778 64.2044Z" fill="#C1ADA4"/>
<path d="M114.207 39.7488C113.934 38.8647 114.842 37.0799 115.933 37.4593C116.253 37.5714 116.05 37.7232 115.8 37.6572C115.534 37.5846 115.019 38.4622 114.939 38.6139C114.736 38.9966 114.703 39.4354 114.506 39.8115C114.467 39.8907 114.23 39.8214 114.207 39.7488Z" fill="#CC6144"/>
<path d="M114.856 38.4717C114.866 38.1781 115.132 38.0263 115.408 38.0527C115.554 38.0692 115.714 38.1154 115.83 38.2078C115.9 38.2606 115.996 38.3793 115.92 38.4585C115.877 38.5014 115.764 38.4552 115.727 38.4288C115.617 38.3529 115.561 38.2276 115.434 38.2837C115.315 38.3331 115.231 38.4453 115.191 38.5641C115.162 38.6564 114.852 38.5707 114.856 38.4717Z" fill="#CC6144"/>
<path d="M106.075 38.4783C106.028 38.8115 105.798 39.0259 105.453 39.016C105.439 39.016 105.339 38.9896 105.369 38.9632C105.453 38.8907 105.559 38.8445 105.645 38.7686C105.745 38.6795 105.855 38.5574 105.905 38.4321C105.925 38.3892 106.085 38.4288 106.075 38.4783Z" fill="#CC6144"/>
<path d="M129.315 60.8987C129.192 64.3726 128.763 67.8334 128.317 71.2776C128.087 73.0459 127.988 75.0715 127.495 76.7343C127.442 76.9124 127.199 76.8333 127.226 76.6617C127.226 76.6584 127.226 76.6584 127.226 76.6551C127.249 76.477 127.522 76.5528 127.495 76.7277C127.495 76.731 127.495 76.731 127.495 76.7343C127.406 76.7112 127.316 76.6848 127.226 76.6617C127.203 76.7409 127.219 76.3681 127.226 76.2823C127.256 75.9293 127.326 75.573 127.376 75.22C127.569 73.8707 127.755 72.5214 127.931 71.172C128.377 67.7542 128.773 64.3298 129.095 60.8987C129.105 60.7602 129.322 60.7536 129.315 60.8987Z" fill="#C1ADA4"/>
<path d="M123.288 76.0681C124.655 76.3651 125.922 76.982 127.192 77.5758C128.503 78.1862 129.857 78.7668 131.051 79.585C131.137 79.6443 131.087 79.7928 130.978 79.7598C128.27 78.9515 125.802 77.3416 123.224 76.2265C123.128 76.1836 123.198 76.0484 123.288 76.0681Z" fill="#C1ADA4"/>
<path d="M99.738 90.656C100.101 91.9427 100.18 93.2062 100.723 94.4632C101.295 95.7861 102.14 96.8121 103.034 97.9272C103.144 98.0625 102.978 98.2307 102.841 98.1186C101.747 97.2278 100.939 95.8785 100.387 94.6017C99.8844 93.4438 99.3688 91.9361 99.575 90.656C99.5917 90.5702 99.7181 90.5801 99.738 90.656Z" fill="#C1ADA4"/>
<path d="M157.757 78.9248C158.067 77.8856 158.309 76.8035 158.329 75.7148C158.353 74.5964 158.06 73.5737 157.887 72.485C157.867 72.3498 158.053 72.2409 158.13 72.3827C159.161 74.3061 158.885 77.1103 157.967 79.0106C157.91 79.1293 157.724 79.0469 157.757 78.9248Z" fill="#C1ADA4"/>
<path d="M154.773 80.364C155.029 79.7042 155.319 79.051 155.508 78.3681C155.578 78.1107 155.881 77.2959 155.724 77.1045C155.112 76.8241 154.78 76.9594 154.727 77.5103C154.687 77.7445 154.67 77.9821 154.677 78.2196C154.677 78.3285 154.504 78.3582 154.48 78.246C154.344 77.6555 154.87 75.6694 155.811 76.4018C156.22 76.7218 156.007 77.5268 155.921 77.9359C155.731 78.8068 155.312 79.6217 154.959 80.4366C154.913 80.5454 154.733 80.4696 154.773 80.364Z" fill="#C1ADA4"/>
<path d="M148.424 84.2699C149.132 83.1383 149.452 82.0001 149.814 80.7365C149.837 80.6607 149.947 80.6771 149.951 80.7563C150.004 82.0562 149.365 83.3857 148.557 84.3721C148.494 84.4447 148.374 84.3523 148.424 84.2699Z" fill="#C1ADA4"/>
<path d="M142.736 86.47C141.745 86.381 140.431 85.6486 140.271 84.5698C140.258 84.4774 140.371 84.3784 140.451 84.4675C140.76 84.8238 140.976 85.2296 141.345 85.5397C141.751 85.8795 142.257 86.1203 142.766 86.2622C142.879 86.2886 142.862 86.4832 142.736 86.47Z" fill="#C1ADA4"/>
<path d="M142.709 85.3713C142.064 85.1503 141.266 84.5828 141.153 83.8603C141.139 83.7746 141.249 83.6789 141.322 83.7647C141.538 84.0187 141.695 84.3123 141.937 84.5465C142.19 84.794 142.493 84.9853 142.816 85.1272C142.952 85.1899 142.856 85.4208 142.709 85.3713Z" fill="#C1ADA4"/>
<path d="M106.297 46.8512C105.998 46.7291 105.791 46.9238 105.515 46.9997C105.485 47.0063 105.402 46.9997 105.392 46.9601C105.332 46.739 105.635 46.6632 105.808 46.6467C106.024 46.6269 106.26 46.6664 106.437 46.805C106.533 46.8809 106.334 46.8677 106.297 46.8512Z" fill="#CC6144"/>
<path d="M9.96695 32.0617H45.3909C48.4012 32.0617 50.9723 34.216 51.4779 37.1588L54.538 55.01C55.1799 58.7479 52.2728 62.1591 48.451 62.1591H48.2714L49.6518 69.4765L42.8397 62.1591H13.0304C10.0202 62.1591 7.44901 60.0048 6.94343 57.0621L3.88335 39.2108C3.23806 35.4729 6.14515 32.0617 9.96695 32.0617Z" fill="#699DEE"/>
<path d="M30.2933 38.7911C26.518 38.9923 22.7328 39.0418 18.9543 39.1243C17.0916 39.1639 15.2289 39.2067 13.3663 39.2463C11.4736 39.2892 9.50121 39.4872 7.61526 39.3156C7.41901 39.2991 7.33585 38.9758 7.56536 38.9461C9.35485 38.702 11.2308 38.801 13.0403 38.7581C14.9562 38.7152 16.8754 38.6723 18.7913 38.6294C22.6231 38.5436 26.4615 38.4183 30.2933 38.4546C30.5161 38.4513 30.5161 38.7812 30.2933 38.7911Z" fill="white"/>
<path d="M31.3141 43.3444C27.6253 43.5556 23.9332 43.6579 20.2412 43.6414C18.4217 43.6348 16.599 43.5985 14.7795 43.5325C13.0067 43.4698 11.1806 43.4863 9.42437 43.2158C9.17491 43.1762 9.24475 42.7968 9.48091 42.7935C11.2937 42.7473 13.1298 42.9552 14.9425 43.0178C16.762 43.0805 18.5814 43.1135 20.4041 43.1201C24.043 43.13 27.6785 43.0277 31.3107 42.8166C31.66 42.7968 31.6567 43.3279 31.3141 43.3444Z" fill="white"/>
<path d="M31.2882 46.9794C27.9553 47.2796 24.6058 47.6062 21.2597 47.7316C17.9202 47.857 14.5541 47.659 11.2179 47.5436C10.7788 47.5271 10.7755 46.8441 11.2179 46.8639C14.5574 46.9926 17.9135 47.24 21.2597 47.1312C24.6058 47.0223 27.942 46.666 31.2882 46.5439C31.5742 46.534 31.5676 46.953 31.2882 46.9794Z" fill="white"/>
<path d="M48.2649 50.3519C38.7653 51.1338 29.1825 51.1833 19.6563 51.2657C17.3878 51.2855 15.1027 51.3317 12.8376 51.2327C12.4651 51.2162 12.4617 50.6653 12.8376 50.6587C17.2382 50.5564 21.6454 50.6488 26.0459 50.6059C31.1849 50.5564 36.3239 50.4673 41.4595 50.2991C43.728 50.2232 45.9998 50.1671 48.2683 50.0352C48.4712 50.022 48.4678 50.3354 48.2649 50.3519Z" fill="white"/>
<path d="M48.6672 53.5583C39.274 54.3336 29.8077 54.4722 20.3879 54.5909C18.146 54.6206 15.8875 54.6734 13.6457 54.5745C13.2732 54.558 13.2698 54.007 13.6457 54.0004C18.0429 53.8981 22.4501 53.9674 26.8507 53.9014C31.8799 53.8256 36.9124 53.7101 41.9383 53.5221C44.1835 53.4396 46.4287 53.3736 48.6705 53.2416C48.8734 53.2284 48.8701 53.5418 48.6672 53.5583Z" fill="white"/>
<path d="M46.8846 36.9811C47.3269 38.5844 47.3669 40.2406 47.3735 41.8934C47.3768 42.7314 47.3768 43.5726 47.44 44.4106C47.5066 45.2881 47.8225 46.1327 47.8691 47.0004C47.8857 47.3072 47.45 47.3996 47.3003 47.1521C46.9478 46.5649 46.9012 45.8127 46.8214 45.1397C46.7149 44.2588 46.7016 43.3747 46.7016 42.4872C46.6983 40.6925 46.7415 38.9044 46.226 37.1625C46.0996 36.7402 46.7681 36.5588 46.8846 36.9811Z" fill="white"/>
<path d="M46.219 37.2049C41.9449 37.2874 37.694 37.426 33.4431 37.8977C33.5728 37.7295 33.7025 37.5579 33.8322 37.3897C34.2879 40.6261 34.5806 43.8526 34.574 47.1219C34.574 47.762 33.5662 47.7653 33.5695 47.1219C33.5928 43.9086 33.453 40.6821 33.0373 37.4952C33.0073 37.2643 33.2468 37.1125 33.4431 37.0928C37.674 36.6672 41.9681 36.4428 46.219 36.6969C46.545 36.7167 46.5516 37.1983 46.219 37.2049Z" fill="white"/>
<path d="M47.1268 47.6068C45.0214 47.3693 42.9059 47.2835 40.7904 47.3759C39.7859 47.4188 38.7814 47.5012 37.7802 47.6167C37.1981 47.686 36.616 47.7718 36.0373 47.8575C35.5417 47.9301 35.1691 48.0588 34.6968 47.8773C34.454 47.785 34.2977 47.4551 34.5305 47.2538C35.2124 46.6567 36.4331 46.7029 37.3079 46.6138C38.4122 46.5016 39.5231 46.4357 40.6308 46.4126C42.8427 46.3697 45.0446 46.5214 47.2333 46.8249C47.679 46.8876 47.5792 47.6563 47.1268 47.6068Z" fill="white"/>
<path d="M45.1545 38.9864C45.3142 40.6887 45.4405 42.3976 45.5137 44.1065C45.5304 44.5255 44.8485 44.5288 44.8551 44.1065C44.8884 42.3943 44.8485 40.6953 44.7188 38.9864C44.6988 38.7092 45.1279 38.7125 45.1545 38.9864Z" fill="white"/>
<path d="M45.1119 44.4337C41.7491 44.6449 38.3431 44.8164 34.9737 44.823C34.5413 44.823 34.5479 44.1863 34.9737 44.1632C38.3365 43.9686 41.7425 43.9389 45.1119 43.9455C45.4312 43.9455 45.4279 44.4139 45.1119 44.4337Z" fill="white"/>
<path d="M43.6015 43.0109C43.4684 42.6117 43.3321 42.2093 43.199 41.8101C43.0859 41.4736 42.9861 40.8038 42.74 40.5465C42.0548 39.8306 41.0835 42.0245 40.874 42.3313C40.4749 42.9186 39.7631 43.3639 39.2375 42.6282C38.8849 42.1367 38.8683 41.4703 38.6055 40.9391C38.5889 40.6587 38.4359 40.4904 38.1465 40.4344C38.0235 40.5894 37.9004 40.7412 37.7806 40.8962C37.5811 41.147 37.3881 41.4538 37.1254 41.6517C36.8659 41.8464 36.5666 41.9189 36.2572 41.7903C35.7384 41.5725 35.7284 40.85 35.2461 40.6323C34.195 40.1605 36.1342 39.052 36.0178 40.1935C35.9778 40.5795 36.3604 41.2591 36.7961 41.0348C37.0655 40.8962 37.315 40.4475 37.5212 40.2265C37.7773 39.9494 38.1066 39.5271 38.549 39.6987C38.8683 39.824 38.9348 40.2067 39.0413 40.4871C39.1943 40.8962 39.3639 41.302 39.5269 41.7045C39.5502 42.0674 39.7398 42.2488 40.099 42.2521C40.232 42.0905 40.3551 41.9222 40.4649 41.7441C40.9073 41.1041 41.496 39.6723 42.5171 39.8405C42.9362 39.9098 43.1292 40.2133 43.2955 40.5696C43.6347 41.2954 43.8277 42.1268 44.0805 42.8856C44.1769 43.1792 43.7013 43.3078 43.6015 43.0109Z" fill="white"/>
<path d="M61.7863 2.77279H85.1195C87.102 2.77279 88.795 4.19139 89.1276 6.13124L91.1433 17.8891C91.5657 20.3503 89.6532 22.6002 87.1352 22.6002H87.0155L89.3505 25.9719L83.4365 22.6002H63.8019C61.8195 22.6002 60.1232 21.1816 59.7939 19.2418L57.7782 7.48386C57.3558 5.01946 59.2683 2.77279 61.7863 2.77279Z" fill="#818181"/>
<path d="M85.7182 6.88351C81.4773 7.10125 77.2265 7.18373 72.9789 7.2959C70.8834 7.35198 68.7879 7.40806 66.6924 7.46415C64.5603 7.52023 62.3683 7.72477 60.2396 7.58621C60.0267 7.57302 60.0333 7.286 60.2396 7.26291C62.3051 7.01547 64.4472 7.09795 66.5261 7.04187C68.6781 6.98248 70.8269 6.9231 72.9789 6.86372C77.2231 6.74825 81.4707 6.59979 85.7182 6.58659C85.9112 6.58659 85.9078 6.87361 85.7182 6.88351Z" fill="white"/>
<path d="M86.7925 9.88558C82.7079 10.0802 78.6233 10.2056 74.5354 10.2551C72.5464 10.2782 70.5573 10.2848 68.5682 10.2749C66.4794 10.2617 64.3539 10.3244 62.2717 10.1429C62.0356 10.1231 62.0289 9.78001 62.2717 9.77011C64.3074 9.68763 66.363 9.8097 68.4019 9.82289C70.4442 9.83609 72.4898 9.82949 74.5321 9.8031C78.62 9.75361 82.7046 9.62825 86.7891 9.43031C87.0885 9.41711 87.0885 9.87238 86.7925 9.88558Z" fill="white"/>
<path d="M87.4413 12.5969C79.5116 13.2072 71.5187 13.2699 63.5725 12.9928C63.2831 12.9829 63.2797 12.5342 63.5725 12.5441C71.5387 12.8344 79.4817 12.686 87.4413 12.3099C87.6275 12.3033 87.6242 12.5837 87.4413 12.5969Z" fill="white"/>
<path d="M88.0765 15.5234C82.6248 15.9985 77.0734 16.302 71.6018 16.1074C71.3557 16.0975 71.3557 15.7313 71.6018 15.728C77.1 15.6389 82.5816 15.6059 88.0765 15.3123C88.2128 15.3057 88.2095 15.5102 88.0765 15.5234Z" fill="white"/>
<path d="M144.818 9.35447H176.756C179.47 9.35447 181.789 11.2976 182.244 13.9501L185.002 30.0463C185.581 33.4179 182.96 36.4927 179.514 36.4927H152.518L147.808 42.3782L147.619 36.4927H147.575C144.861 36.4927 142.543 34.5495 142.087 31.897L139.33 15.8009C138.751 12.4292 141.372 9.35447 144.818 9.35447Z" fill="#FF6652"/>
<path d="M165.424 15.2993C161.639 15.461 157.85 15.5269 154.062 15.616C152.196 15.6589 150.33 15.7018 148.464 15.7447C146.551 15.7876 144.609 15.936 142.7 15.8403C142.543 15.8338 142.547 15.616 142.7 15.5995C144.549 15.4214 146.442 15.4742 148.298 15.4313C150.22 15.3851 152.139 15.3389 154.062 15.296C157.847 15.2069 161.636 15.0948 165.424 15.0816C165.564 15.0816 165.564 15.2927 165.424 15.2993Z" fill="white"/>
<path d="M166.431 19.3765C162.793 19.5777 159.147 19.6833 155.502 19.6833C151.883 19.6833 148.161 19.7559 144.558 19.3567C144.385 19.3369 144.375 19.0829 144.558 19.0829C148.204 19.073 151.853 19.3534 155.502 19.3501C159.147 19.3468 162.793 19.2412 166.431 19.04C166.648 19.0268 166.648 19.3633 166.431 19.3765Z" fill="white"/>
<path d="M179.933 22.7385C169.073 23.5204 158.14 23.6326 147.263 23.2433C146.997 23.2334 146.997 22.8243 147.263 22.8342C158.163 23.2235 169.043 23.0486 179.933 22.4779C180.106 22.468 180.103 22.7253 179.933 22.7385Z" fill="white"/>
<path d="M180.804 26.7606C173.333 27.3709 165.75 27.7635 158.252 27.5227C158.03 27.5161 158.026 27.1796 158.252 27.1763C165.783 27.0806 173.284 27.0146 180.804 26.5693C180.927 26.5627 180.927 26.7507 180.804 26.7606Z" fill="white"/>
<path d="M178.805 13.6565C179.031 15.207 179.364 16.8071 179.47 18.3709C179.534 19.3078 179.085 19.7598 178.167 19.9115C176.583 20.1787 174.937 20.2315 173.337 20.3734C172.379 20.4592 170.633 20.8485 169.841 20.0633C169.455 19.6806 169.552 19.0966 169.578 18.6084C169.615 17.9123 169.695 17.2195 169.695 16.5234C169.695 15.6491 169.439 14.9332 169.242 14.1018C169.153 13.7225 169.133 13.3431 169.392 13.0164C170.017 12.2313 171.584 12.5183 172.446 12.5216C174.198 12.5282 175.951 12.5744 177.701 12.6074C178.246 12.6173 178.223 13.4948 177.701 13.4321C175.429 13.1682 173.091 13.0033 170.802 13.1121C170.3 13.1352 169.785 13.1055 169.795 13.9501C169.798 14.1447 169.944 14.3823 169.997 14.567C170.131 15.0124 170.194 15.471 170.214 15.9361C170.237 16.431 170.2 16.9259 170.157 17.4174C170.114 17.9288 169.944 18.549 170.014 19.0571C170.137 19.961 170.869 20.06 171.644 20.0369C172.209 20.0204 172.772 19.9511 173.337 19.9049C174.488 19.8092 175.639 19.7235 176.79 19.6311C177.259 19.5948 178.153 19.6938 178.569 19.4562C178.875 19.2814 179.131 18.7008 179.151 18.3709C179.171 18.0475 179.038 17.5593 178.992 17.2261C178.832 16.0648 178.632 14.9101 178.463 13.7521C178.429 13.5278 178.772 13.4321 178.805 13.6565Z" fill="white"/>
<path d="M175.486 17.3348C175.343 16.576 175.276 15.804 175.186 15.0386C175.226 15.1079 175.266 15.1772 175.306 15.2498C175.166 15.1574 173.812 16.7739 173.659 16.9455C173.62 16.7937 173.58 16.642 173.54 16.4902C174.128 16.7277 174.721 16.9554 175.306 17.1995C175.632 17.3348 175.496 17.8725 175.156 17.7373C174.564 17.503 173.982 17.2556 173.393 17.0148C173.2 16.9356 173.124 16.7244 173.274 16.5595C173.649 16.1405 174.029 15.7314 174.431 15.3388C174.657 15.1178 175 14.6592 175.379 14.7384C175.748 14.8176 175.695 15.2168 175.725 15.5071C175.785 16.0976 175.855 16.6915 175.875 17.2853C175.875 17.4964 175.525 17.5525 175.486 17.3348Z" fill="white"/>
<path d="M38.1693 79.7867C37.7413 79.7867 37.3943 79.4425 37.3943 79.018C37.3943 78.5934 37.7413 78.2493 38.1693 78.2493C38.5974 78.2493 38.9444 78.5934 38.9444 79.018C38.9444 79.4425 38.5974 79.7867 38.1693 79.7867Z" fill="#2D2442"/>
<path d="M35.7147 79.7867C35.2867 79.7867 34.9397 79.4425 34.9397 79.018C34.9397 78.5934 35.2867 78.2493 35.7147 78.2493C36.1427 78.2493 36.4897 78.5934 36.4897 79.018C36.4897 79.4425 36.1427 79.7867 35.7147 79.7867Z" fill="#2D2442"/>
<path d="M33.2633 79.7867C32.8352 79.7867 32.4883 79.4425 32.4883 79.018C32.4883 78.5934 32.8352 78.2493 33.2633 78.2493C33.6913 78.2493 34.0383 78.5934 34.0383 79.018C34.0383 79.4425 33.6913 79.7867 33.2633 79.7867Z" fill="#2D2442"/>
<path d="M35.176 21.9437C34.748 21.9437 34.4011 21.5996 34.4011 21.1751C34.4011 20.7505 34.748 20.4064 35.176 20.4064C35.6041 20.4064 35.951 20.7505 35.951 21.1751C35.951 21.5996 35.6041 21.9437 35.176 21.9437Z" fill="#2D2442"/>
<path d="M32.7214 21.9437C32.2934 21.9437 31.9464 21.5996 31.9464 21.1751C31.9464 20.7505 32.2934 20.4064 32.7214 20.4064C33.1494 20.4064 33.4964 20.7505 33.4964 21.1751C33.4964 21.5996 33.1494 21.9437 32.7214 21.9437Z" fill="#2D2442"/>
<path d="M30.2699 21.9437C29.8419 21.9437 29.495 21.5996 29.495 21.1751C29.495 20.7505 29.8419 20.4064 30.2699 20.4064C30.698 20.4064 31.045 20.7505 31.045 21.1751C31.045 21.5996 30.698 21.9437 30.2699 21.9437Z" fill="#2D2442"/>
<path d="M174.418 51.4142C173.99 51.4142 173.643 51.07 173.643 50.6455C173.643 50.2209 173.99 49.8768 174.418 49.8768C174.846 49.8768 175.193 50.2209 175.193 50.6455C175.193 51.07 174.846 51.4142 174.418 51.4142Z" fill="#2D2442"/>
<path d="M171.966 51.4142C171.538 51.4142 171.191 51.07 171.191 50.6455C171.191 50.2209 171.538 49.8768 171.966 49.8768C172.394 49.8768 172.741 50.2209 172.741 50.6455C172.741 51.07 172.394 51.4142 171.966 51.4142Z" fill="#2D2442"/>
<path d="M169.511 51.4142C169.083 51.4142 168.736 51.07 168.736 50.6455C168.736 50.2209 169.083 49.8768 169.511 49.8768C169.939 49.8768 170.286 50.2209 170.286 50.6455C170.286 51.07 169.939 51.4142 169.511 51.4142Z" fill="#2D2442"/>
</svg>
