<svg width="17" height="15" viewBox="0 0 17 15" fill="none" xmlns="http://www.w3.org/2000/svg">
<g clip-path="url(#clip0_129_948)">
<path d="M16.1657 13.4249C16.2021 13.4252 16.2383 13.4182 16.2719 13.4041C16.3055 13.3901 16.3358 13.3693 16.361 13.3432C16.3862 13.3171 16.4057 13.2861 16.4182 13.2522C16.4308 13.2183 16.4362 13.1822 16.4341 13.1461C16.4341 12.9484 16.3136 12.8539 16.0665 12.8539H15.6671V13.8891H15.8173V13.4378H16.0019L16.0061 13.4433L16.2926 13.8891H16.4532L16.145 13.4277L16.1657 13.4249ZM15.9919 13.3212H15.8178V12.9712H16.0385C16.1526 12.9712 16.2826 12.9897 16.2826 13.1375C16.2826 13.3076 16.151 13.3212 15.9911 13.3212" fill="#0A033C"/>
<path d="M12.2479 12.1271H10.118V8.82451C10.118 8.03696 10.1038 7.02316 9.01025 7.02316C7.90094 7.02316 7.73122 7.88121 7.73122 8.76717V12.1269H5.60134V5.33538H7.64601V6.26351H7.67464C7.87927 5.91709 8.17495 5.63211 8.53021 5.43892C8.88547 5.24573 9.287 5.15156 9.69203 5.16645C11.8508 5.16645 12.2488 6.57238 12.2488 8.40141L12.2479 12.1271ZM3.19813 4.40703C2.95368 4.40707 2.71469 4.33534 2.51141 4.2009C2.30813 4.06646 2.14968 3.87535 2.0561 3.65174C1.96251 3.42814 1.93798 3.18207 1.98563 2.94467C2.03327 2.70726 2.15096 2.48918 2.32378 2.31799C2.49661 2.14681 2.71682 2.03021 2.95657 1.98295C3.19632 1.93568 3.44484 1.95987 3.6707 2.05246C3.89657 2.14505 4.08963 2.30187 4.22548 2.50311C4.36133 2.70434 4.43386 2.94094 4.43391 3.18299C4.43394 3.3437 4.40199 3.50285 4.3399 3.65134C4.27781 3.79983 4.18681 3.93476 4.07205 4.04842C3.9573 4.16208 3.82105 4.25225 3.67111 4.31378C3.52116 4.37531 3.36045 4.407 3.19813 4.40703ZM4.26307 12.1271H2.13098V5.33538H4.26307V12.1271ZM13.3097 0.000969689H1.06072C0.782705 -0.00213684 0.514803 0.104173 0.315907 0.296537C0.117011 0.488902 0.00339305 0.751583 0 1.02686V13.2055C0.00327692 13.4809 0.116828 13.7438 0.315717 13.9364C0.514606 14.1289 0.782568 14.2354 1.06072 14.2325H13.3097C13.5884 14.236 13.8571 14.1298 14.0568 13.9372C14.2565 13.7446 14.3708 13.4815 14.3746 13.2055V1.02598C14.3707 0.750159 14.2563 0.487179 14.0566 0.294819C13.8569 0.102459 13.5883 -0.00354714 13.3097 9.06271e-05" fill="#0A033C"/>
<path d="M16.0105 12.3926C15.7514 12.395 15.5038 12.499 15.3218 12.6817C15.1399 12.8645 15.0385 13.1111 15.0397 13.3677C15.041 13.6243 15.1448 13.8699 15.3285 14.0509C15.5122 14.2319 15.7608 14.3336 16.0199 14.3336C16.2791 14.3336 16.5277 14.2319 16.7113 14.0509C16.895 13.8699 16.9989 13.6243 17.0001 13.3677C17.0014 13.1111 16.8999 12.8645 16.718 12.6817C16.5361 12.499 16.2885 12.395 16.0294 12.3926H16.0105ZM16.0105 14.2224C15.8405 14.2252 15.6735 14.1781 15.5306 14.0869C15.3878 13.9957 15.2754 13.8647 15.2077 13.7103C15.1401 13.5558 15.1202 13.385 15.1505 13.2194C15.1809 13.0538 15.2602 12.9009 15.3784 12.7799C15.4966 12.6589 15.6484 12.5753 15.8145 12.5398C15.9807 12.5042 16.1537 12.5182 16.3119 12.58C16.47 12.6418 16.606 12.7487 16.7028 12.887C16.7996 13.0254 16.8527 13.1891 16.8556 13.3574C16.8556 13.3622 16.8556 13.3668 16.8556 13.3716C16.8603 13.5924 16.7763 13.806 16.6221 13.9655C16.4678 14.125 16.2559 14.2172 16.0329 14.222H16.0107" fill="#0A033C"/>
</g>
<defs>
<clipPath id="clip0_129_948">
<rect width="16.9116" height="14.276" fill="white" transform="scale(1.00523)"/>
</clipPath>
</defs>
</svg>
