<svg width="237" height="117" viewBox="0 0 237 117" fill="none" xmlns="http://www.w3.org/2000/svg">
<g clip-path="url(#clip0_129_1371)">
<path d="M75.1053 65.3247H63.7109V78.7911H75.1053V65.3247Z" fill="#F5F5F5"/>
<path d="M64.1076 64.4448H12.6199V79.6353H64.1076V64.4448Z" fill="#E0E0E0"/>
<path d="M75.4496 65.7224H62.7244V64.4448H75.4496C75.8036 64.4448 76.0921 64.7316 76.0921 65.0836C76.0921 65.4388 75.8036 65.7224 75.4496 65.7224Z" fill="#E0E0E0"/>
<path d="M75.4496 79.6355H62.7244V78.3579H75.4496C75.8036 78.3579 76.0921 78.6447 76.0921 78.9967C76.0921 79.3519 75.8036 79.6355 75.4496 79.6355Z" fill="#E0E0E0"/>
<path d="M60.0591 64.4448H53.9751V79.6353H60.0591V64.4448Z" fill="#EBEBEB"/>
<path d="M23.5979 64.6143H17.5139V79.8047H23.5979V64.6143Z" fill="#EBEBEB"/>
<path d="M75.1054 67.5504C75.1054 67.5862 72.6404 67.6188 69.5984 67.6188C66.5564 67.6188 64.0913 67.5895 64.0913 67.5504C64.0913 67.5145 66.5564 67.4819 69.5984 67.4819C72.6404 67.4819 75.1054 67.5145 75.1054 67.5504Z" fill="#E0E0E0"/>
<path d="M75.1054 69.5714C75.1054 69.6072 72.6404 69.6398 69.5984 69.6398C66.5564 69.6398 64.0913 69.6105 64.0913 69.5714C64.0913 69.5355 66.5564 69.5029 69.5984 69.5029C72.6404 69.5029 75.1054 69.5323 75.1054 69.5714Z" fill="#E0E0E0"/>
<path d="M75.1054 72.0577C75.1054 72.0935 72.6404 72.1261 69.5984 72.1261C66.5564 72.1261 64.0913 72.0968 64.0913 72.0577C64.0913 72.0218 66.5564 71.9893 69.5984 71.9893C72.6404 71.9893 75.1054 72.0186 75.1054 72.0577Z" fill="#E0E0E0"/>
<path d="M75.1054 74.5416C75.1054 74.5774 72.6404 74.61 69.5984 74.61C66.5564 74.61 64.0913 74.5807 64.0913 74.5416C64.0913 74.5057 66.5564 74.4731 69.5984 74.4731C72.6404 74.4764 75.1054 74.5057 75.1054 74.5416Z" fill="#E0E0E0"/>
<path d="M75.1054 77.0274C75.1054 77.0633 72.6404 77.0959 69.5984 77.0959C66.5564 77.0959 64.0913 77.0666 64.0913 77.0274C64.0913 76.9916 66.5564 76.959 69.5984 76.959C72.6404 76.9622 75.1054 76.9916 75.1054 77.0274Z" fill="#E0E0E0"/>
<path d="M50.7039 70.689H27.5415V73.4233H50.7039V70.689Z" fill="#EBEBEB"/>
<path d="M74.9907 79.9355H63.4226V88.1419H74.9907V79.9355Z" fill="#FAFAFA"/>
<path d="M63.5536 79.6357H14.3245V88.4352H63.5536V79.6357Z" fill="#F5F5F5"/>
<path d="M63.1931 80.2323H75.6266C75.7905 80.2323 75.9249 80.0987 75.9249 79.9357C75.9249 79.7728 75.7905 79.6392 75.6266 79.6392H63.1931V80.2323Z" fill="#F5F5F5"/>
<path d="M63.1931 88.4387H75.7872C75.8626 88.4387 75.9249 88.3768 75.9249 88.3018V87.9792C75.9249 87.9042 75.8626 87.8423 75.7872 87.8423H63.1931V88.4387Z" fill="#F5F5F5"/>
<path d="M74.9905 81.4932C74.9905 81.5291 72.4304 81.5617 69.2704 81.5617C66.1104 81.5617 63.5503 81.5324 63.5503 81.4932C63.5503 81.4574 66.1104 81.4248 69.2704 81.4248C72.4271 81.4248 74.9905 81.4574 74.9905 81.4932Z" fill="#E0E0E0"/>
<path d="M74.9905 83.0445C74.9905 83.0803 72.4304 83.1129 69.2704 83.1129C66.1104 83.1129 63.5503 83.0836 63.5503 83.0445C63.5503 83.0087 66.1104 82.9761 69.2704 82.9761C72.4271 82.9793 74.9905 83.0087 74.9905 83.0445Z" fill="#E0E0E0"/>
<path d="M74.9905 84.5987C74.9905 84.6346 72.4304 84.6671 69.2704 84.6671C66.1104 84.6671 63.5503 84.6378 63.5503 84.5987C63.5503 84.5629 66.1104 84.5303 69.2704 84.5303C72.4271 84.5303 74.9905 84.5596 74.9905 84.5987Z" fill="#E0E0E0"/>
<path d="M74.9905 86.151C74.9905 86.1868 72.4304 86.2194 69.2704 86.2194C66.1104 86.2194 63.5503 86.1901 63.5503 86.151C63.5503 86.1151 66.1104 86.0825 69.2704 86.0825C72.4271 86.0825 74.9905 86.1118 74.9905 86.151Z" fill="#E0E0E0"/>
<path d="M76.7441 89.2202H64.9368V111.463H76.7441V89.2202Z" fill="#EBEBEB"/>
<path d="M64.9369 88.439H9.51562V112.556H64.9369V88.439Z" fill="#E0E0E0"/>
<path d="M77.6688 112.551H63.4226V110.987H77.6688C78.1048 110.987 78.4555 111.336 78.4555 111.769C78.4555 112.202 78.1015 112.551 77.6688 112.551Z" fill="#E0E0E0"/>
<path d="M78.095 89.9989H63.4226V88.4346H78.095C78.2949 88.4346 78.4555 88.5943 78.4555 88.7931V89.6404C78.4555 89.8392 78.2916 89.9989 78.095 89.9989Z" fill="#E0E0E0"/>
<path d="M76.7441 92.1983C76.7441 92.2342 74.1021 92.2668 70.8405 92.2668C67.5788 92.2668 64.9368 92.2374 64.9368 92.1983C64.9368 92.1625 67.5788 92.1299 70.8405 92.1299C74.1021 92.1331 76.7441 92.1625 76.7441 92.1983Z" fill="#E0E0E0"/>
<path d="M76.7441 95.0543C76.7441 95.0901 74.1021 95.1227 70.8405 95.1227C67.5788 95.1227 64.9368 95.0934 64.9368 95.0543C64.9368 95.0184 67.5788 94.9858 70.8405 94.9858C74.1021 94.9858 76.7441 95.0152 76.7441 95.0543Z" fill="#E0E0E0"/>
<path d="M76.7441 97.9054C76.7441 97.9412 74.1021 97.9738 70.8405 97.9738C67.5788 97.9738 64.9368 97.9445 64.9368 97.9054C64.9368 97.8695 67.5788 97.8369 70.8405 97.8369C74.1021 97.8369 76.7441 97.8695 76.7441 97.9054Z" fill="#E0E0E0"/>
<path d="M76.7441 100.757C76.7441 100.793 74.1021 100.826 70.8405 100.826C67.5788 100.826 64.9368 100.797 64.9368 100.757C64.9368 100.722 67.5788 100.689 70.8405 100.689C74.1021 100.692 76.7441 100.722 76.7441 100.757Z" fill="#E0E0E0"/>
<path d="M76.7441 103.612C76.7441 103.648 74.1021 103.68 70.8405 103.68C67.5788 103.68 64.9368 103.651 64.9368 103.612C64.9368 103.576 67.5788 103.543 70.8405 103.543C74.1021 103.543 76.7441 103.573 76.7441 103.612Z" fill="#E0E0E0"/>
<path d="M76.7441 106.464C76.7441 106.5 74.1021 106.532 70.8405 106.532C67.5788 106.532 64.9368 106.503 64.9368 106.464C64.9368 106.428 67.5788 106.396 70.8405 106.396C74.1021 106.396 76.7441 106.428 76.7441 106.464Z" fill="#E0E0E0"/>
<path d="M76.7441 109.316C76.7441 109.351 74.1021 109.384 70.8405 109.384C67.5788 109.384 64.9368 109.355 64.9368 109.316C64.9368 109.28 67.5788 109.247 70.8405 109.247C74.1021 109.25 76.7441 109.28 76.7441 109.316Z" fill="#E0E0E0"/>
<path d="M28.4789 101.813V103.156C28.4789 104.772 27.666 105.694 26.0991 105.694C24.5322 105.694 23.7192 104.772 23.7192 103.156V97.9021C23.7192 96.2856 24.5322 95.3633 26.0991 95.3633C27.666 95.3633 28.4789 96.2856 28.4789 97.9021V98.8831H26.971V97.8011C26.971 97.0808 26.6531 96.8071 26.145 96.8071C25.6369 96.8071 25.3189 97.0808 25.3189 97.8011V103.257C25.3189 103.977 25.6369 104.238 26.145 104.238C26.6531 104.238 26.971 103.977 26.971 103.257V101.813H28.4789Z" fill="#EBEBEB"/>
<path d="M29.3213 97.9055C29.3213 96.289 30.1768 95.3667 31.7437 95.3667C33.3106 95.3667 34.1662 96.289 34.1662 97.9055V103.159C34.1662 104.776 33.3106 105.698 31.7437 105.698C30.1768 105.698 29.3213 104.776 29.3213 103.159V97.9055ZM30.9177 103.257C30.9177 103.977 31.2356 104.251 31.7437 104.251C32.2518 104.251 32.5698 103.977 32.5698 103.257V97.8045C32.5698 97.0842 32.2518 96.8105 31.7437 96.8105C31.2356 96.8105 30.9177 97.0842 30.9177 97.8045V103.257Z" fill="#EBEBEB"/>
<path d="M35.1956 95.481H36.7919V104.137H39.4176V105.581H35.1956V95.481Z" fill="#EBEBEB"/>
<path d="M39.9849 97.9055C39.9849 96.289 40.8404 95.3667 42.4073 95.3667C43.9742 95.3667 44.8298 96.289 44.8298 97.9055V103.159C44.8298 104.776 43.9742 105.698 42.4073 105.698C40.8404 105.698 39.9849 104.776 39.9849 103.159V97.9055ZM41.5813 103.257C41.5813 103.977 41.8992 104.251 42.4073 104.251C42.9154 104.251 43.2334 103.977 43.2334 103.257V97.8045C43.2334 97.0842 42.9154 96.8105 42.4073 96.8105C41.8992 96.8105 41.5813 97.0842 41.5813 97.8045V103.257Z" fill="#EBEBEB"/>
<path d="M47.3865 95.481V103.273C47.3865 103.994 47.7045 104.254 48.2126 104.254C48.7207 104.254 49.0387 103.994 49.0387 103.273V95.481H50.5465V103.172C50.5465 104.789 49.7336 105.711 48.1667 105.711C46.5998 105.711 45.7869 104.789 45.7869 103.172V95.481H47.3865Z" fill="#EBEBEB"/>
<path d="M54.975 105.581C54.8864 105.32 54.8307 105.164 54.8307 104.339V102.752C54.8307 101.813 54.5128 101.468 53.785 101.468H53.2343V105.581H51.6379V95.481H54.0473C55.7027 95.481 56.414 96.2468 56.414 97.8047V98.5966C56.414 99.6362 56.0796 100.314 55.3683 100.647C56.1681 100.979 56.4271 101.742 56.4271 102.798V104.355C56.4271 104.847 56.4402 105.206 56.6008 105.581H54.975ZM53.2343 96.9247V100.027H53.8572C54.4538 100.027 54.8143 99.7666 54.8143 98.9584V97.9644C54.8143 97.2441 54.5685 96.9247 54.0014 96.9247H53.2343Z" fill="#EBEBEB"/>
<path d="M28.1346 83.1026H26.9709L27.0332 82.8027H29.7048L29.6392 83.1026H28.4788L27.879 86.0813H27.5348L28.1346 83.1026Z" fill="#E0E0E0"/>
<path d="M31.9467 83.6177L30.1373 86.4009C29.8324 86.8702 29.5997 87.0136 29.2424 87.0136C29.0129 87.0136 28.7769 86.9354 28.6523 86.792L28.8326 86.5476C28.9408 86.6584 29.0818 86.7268 29.2719 86.7268C29.485 86.7268 29.6489 86.629 29.8423 86.3292L30.016 86.0685L29.3997 83.6177H29.7374L30.252 85.7165L31.6058 83.6177H31.9467Z" fill="#E0E0E0"/>
<path d="M34.7009 84.6375C34.7009 85.4848 34.1075 86.1041 33.2979 86.1041C32.8258 86.1041 32.498 85.9118 32.3538 85.5663L32.0719 86.9905H31.7375L32.4128 83.6174H32.7341L32.6554 84.0117C32.8914 83.751 33.2225 83.6011 33.6224 83.6011C34.255 83.5978 34.7009 83.9922 34.7009 84.6375ZM34.3632 84.657C34.3632 84.1747 34.0649 83.8879 33.547 83.8879C32.9307 83.8879 32.4784 84.3702 32.4784 85.0449C32.4784 85.5272 32.7767 85.8075 33.2946 85.8075C33.9109 85.8107 34.3632 85.3284 34.3632 84.657Z" fill="#E0E0E0"/>
<path d="M35.0908 85.0611C35.0908 84.2236 35.6907 83.6011 36.5233 83.6011C37.2117 83.6011 37.6509 84.0052 37.6509 84.6407C37.6509 85.4848 37.0511 86.1073 36.2185 86.1073C35.5301 86.104 35.0908 85.6934 35.0908 85.0611ZM37.3166 84.657C37.3166 84.1747 37.0183 83.8879 36.5004 83.8879C35.8841 83.8879 35.4252 84.3735 35.4252 85.0448C35.4252 85.5272 35.7235 85.8075 36.2414 85.8075C36.8577 85.8107 37.3166 85.3284 37.3166 84.657Z" fill="#E0E0E0"/>
<path d="M40.8568 83.6172L40.4241 85.7812C40.2504 86.6514 39.7882 87.0131 38.9818 87.0131C38.5163 87.0131 38.1328 86.8828 37.8804 86.6416L38.0771 86.3874C38.2737 86.5895 38.6081 86.7166 39.0047 86.7166C39.6308 86.7166 39.9619 86.4298 40.0799 85.8366L40.1356 85.5629C39.8996 85.8268 39.5653 85.9865 39.1457 85.9865C38.4901 85.9865 38.0508 85.6085 38.0508 84.9925C38.0508 84.2006 38.6409 83.5977 39.4637 83.5977C39.9193 83.5977 40.2897 83.7834 40.4307 84.1582L40.5356 83.6139H40.8568V83.6172ZM40.293 84.6047C40.293 84.155 39.9881 83.8877 39.4735 83.8877C38.8474 83.8877 38.395 84.3472 38.395 84.973C38.395 85.4227 38.6966 85.69 39.2145 85.69C39.8373 85.6932 40.293 85.2337 40.293 84.6047Z" fill="#E0E0E0"/>
<path d="M43.0427 83.5977L42.9804 83.9203C42.9477 83.9203 42.9247 83.9138 42.8854 83.9138C42.3576 83.9138 42.0036 84.2136 41.8823 84.8263L41.6332 86.0778H41.2988L41.7905 83.6139H42.1118L42.0265 84.0637C42.2462 83.7443 42.5707 83.5977 43.0427 83.5977Z" fill="#E0E0E0"/>
<path d="M45.8848 83.6174L45.3899 86.0812H45.0686L45.1473 85.6934C44.9113 85.9509 44.5835 86.104 44.1803 86.104C43.5443 86.104 43.1018 85.7097 43.1018 85.0611C43.1018 84.217 43.6951 83.6011 44.5015 83.6011C44.9735 83.6011 45.3014 83.7934 45.4423 84.1356L45.5472 83.6206H45.8848V83.6174ZM45.3276 84.657C45.3276 84.1747 45.0293 83.8879 44.5113 83.8879C43.8951 83.8879 43.4362 84.3735 43.4362 85.0448C43.4362 85.5272 43.7345 85.8075 44.2524 85.8075C44.8719 85.8107 45.3276 85.3284 45.3276 84.657Z" fill="#E0E0E0"/>
<path d="M49.1005 84.6375C49.1005 85.4848 48.5072 86.1041 47.6975 86.1041C47.2255 86.1041 46.8977 85.9118 46.7535 85.5663L46.4716 86.9905H46.1372L46.8125 83.6174H47.1337L47.0551 84.0117C47.2911 83.751 47.6221 83.6011 48.0221 83.6011C48.6514 83.5978 49.1005 83.9922 49.1005 84.6375ZM48.7629 84.657C48.7629 84.1747 48.4646 83.8879 47.9467 83.8879C47.3304 83.8879 46.878 84.3702 46.878 85.0449C46.878 85.5272 47.1763 85.8075 47.6943 85.8075C48.3105 85.8107 48.7629 85.3284 48.7629 84.657Z" fill="#E0E0E0"/>
<path d="M52.1003 84.3996C52.1003 84.4876 52.0904 84.5821 52.0708 84.6798L51.7889 86.0812H51.4545L51.7364 84.6766C51.7495 84.5984 51.7594 84.5234 51.7594 84.4517C51.7594 84.0997 51.5463 83.8977 51.1201 83.8977C50.5924 83.8977 50.2285 84.1845 50.1105 84.7581L49.8483 86.078H49.5139L50.2121 82.6006H50.5465L50.2679 83.9824C50.5039 83.7152 50.835 83.5946 51.2152 83.5946C51.7757 83.5979 52.1003 83.8977 52.1003 84.3996Z" fill="#E0E0E0"/>
<path d="M55.2341 83.6177L53.4246 86.4009C53.1198 86.8702 52.887 87.0136 52.5297 87.0136C52.3003 87.0136 52.0643 86.9354 51.9397 86.792L52.12 86.5476C52.2282 86.6584 52.3691 86.7268 52.5592 86.7268C52.7723 86.7268 52.9362 86.629 53.1296 86.3292L53.3034 86.0685L52.6871 83.6177H53.0247L53.5394 85.7165L54.8932 83.6177H55.2341Z" fill="#E0E0E0"/>
<path d="M237.089 112.551C237.089 112.597 185.68 112.636 122.276 112.636C58.8502 112.636 7.45435 112.597 7.45435 112.551C7.45435 112.505 58.8535 112.466 122.276 112.466C185.676 112.466 237.089 112.505 237.089 112.551Z" fill="#263238"/>
<path d="M215.513 95.9171C215.513 95.9171 206.823 85.9738 203.545 76.0304C200.267 66.087 201.824 67.2277 201.824 67.2277C201.824 67.2277 206.249 76.8875 209.612 81.5512C212.972 86.2182 218.958 93.0622 218.958 93.0622L215.513 95.9171Z" fill="#455A64"/>
<path d="M217.244 68.779C216.962 68.2934 216.218 68.5443 216.3 69.0984C216.831 72.5921 217.975 80.7853 217.929 86.1041C217.87 93.01 217.932 95.6792 217.932 95.6792H221.548C221.548 95.6792 220.905 81.4046 220.089 77.0505C219.519 74 218.303 70.6106 217.244 68.779Z" fill="#455A64"/>
<path d="M219.217 94.519C219.217 94.519 221.492 89.7608 222.193 83.7837C222.492 81.2416 221.961 77.8066 221.171 73.2211C220.787 71.0017 220.702 69.3102 220.715 68.1402C220.725 67.2538 221.898 66.967 222.334 67.7394C222.77 68.515 224.036 71.1581 224.354 72.817C225.229 77.3438 226.222 79.6056 225.462 83.901C224.704 88.1964 221.902 94.809 221.902 94.809L219.217 94.519Z" fill="#455A64"/>
<path d="M222.472 94.8095C222.472 94.8095 232.011 74.4242 232.673 71.403C233.335 68.3786 235.584 61.4108 235.846 61.8051C236.112 62.1995 236.508 65.8822 234.787 70.0896C233.07 74.2971 225.727 95.432 225.727 95.432H222.469" fill="#455A64"/>
<path d="M218.171 93.8967C218.168 93.9032 218.076 93.838 217.902 93.7141C217.732 93.587 217.476 93.4078 217.165 93.1536C216.529 92.6582 215.637 91.9021 214.602 90.9048C212.52 88.9168 209.927 85.8501 207.682 82.0728C205.43 78.2956 203.915 74.6031 202.958 71.898C202.479 70.5455 202.129 69.4375 201.903 68.6651C201.785 68.2805 201.706 67.9807 201.65 67.7753C201.594 67.57 201.568 67.4625 201.575 67.4625C201.581 67.4592 201.621 67.5635 201.689 67.7656C201.762 67.9839 201.857 68.2772 201.978 68.6423C202.227 69.4049 202.597 70.5032 203.096 71.8492C204.086 74.5346 205.616 78.2076 207.859 81.9685C210.098 85.7295 212.658 88.7962 214.706 90.8006C215.726 91.8109 216.601 92.5767 217.221 93.0917C217.526 93.3557 217.775 93.5447 217.935 93.6816C218.093 93.8184 218.175 93.8901 218.171 93.8967Z" fill="#263238"/>
<path d="M219.214 84.1159C219.201 84.1159 219.171 83.904 219.129 83.5162C219.083 83.0925 219.024 82.545 218.952 81.8834C218.801 80.5048 218.565 78.6016 218.227 76.5125C217.89 74.4234 217.513 72.543 217.221 71.1872C217.08 70.5354 216.962 69.9944 216.873 69.5805C216.791 69.2024 216.752 68.9906 216.765 68.9873C216.778 68.9841 216.844 69.1894 216.949 69.5642C217.057 69.939 217.198 70.4833 217.362 71.1579C217.69 72.5071 218.09 74.3876 218.427 76.4832C218.765 78.5787 218.978 80.4853 219.093 81.8704C219.152 82.5613 219.188 83.1251 219.204 83.5129C219.227 83.9008 219.23 84.1159 219.214 84.1159Z" fill="#263238"/>
<path d="M221.449 67.5763C221.456 67.573 221.495 67.6643 221.561 67.8337C221.633 68.026 221.728 68.2769 221.846 68.5898C221.974 68.919 222.118 69.3231 222.256 69.8022C222.397 70.2813 222.58 70.819 222.718 71.435C222.793 71.7413 222.872 72.0607 222.954 72.3931C223.033 72.7256 223.092 73.0808 223.164 73.4426C223.321 74.1661 223.416 74.9515 223.531 75.776C223.718 77.4284 223.819 79.2567 223.76 81.1795C223.682 83.0991 223.449 84.9177 223.144 86.5537C222.97 87.3685 222.816 88.1441 222.61 88.8546C222.511 89.2098 222.429 89.5586 222.325 89.8877C222.22 90.2136 222.118 90.5265 222.02 90.8263C221.836 91.4293 221.617 91.954 221.44 92.42C221.266 92.8893 221.092 93.2837 220.945 93.5998C220.804 93.9029 220.692 94.1473 220.604 94.3331C220.525 94.4993 220.479 94.5873 220.473 94.584C220.466 94.5808 220.499 94.4895 220.568 94.3168C220.646 94.1278 220.745 93.8768 220.872 93.5672C221.01 93.2446 221.174 92.847 221.335 92.3776C221.499 91.9083 221.712 91.3804 221.885 90.7775C221.977 90.4776 222.075 90.1647 222.177 89.8388C222.275 89.5129 222.354 89.1642 222.449 88.809C222.649 88.0985 222.793 87.3261 222.964 86.5146C223.255 84.8851 223.485 83.0763 223.56 81.1698C223.619 79.26 223.524 77.4414 223.351 75.7956C223.239 74.9743 223.151 74.1954 223.003 73.4719C222.934 73.1101 222.882 72.7582 222.806 72.4257C222.728 72.0933 222.656 71.7739 222.584 71.4676C222.456 70.8549 222.282 70.3139 222.151 69.8348C222.023 69.3524 221.889 68.9451 221.777 68.6126C221.672 68.2932 221.59 68.039 221.528 67.8435C221.469 67.674 221.443 67.5795 221.449 67.5763Z" fill="#263238"/>
<path d="M235.738 62.2124C235.742 62.2124 235.738 62.245 235.732 62.3037C235.722 62.3754 235.705 62.4633 235.689 62.5676C235.646 62.799 235.594 63.1445 235.502 63.5812C235.319 64.4579 235.011 65.7191 234.535 67.2509C234.06 68.7827 233.408 70.5784 232.634 72.5501C231.864 74.5251 230.969 76.6728 230.123 78.9607C229.264 81.2453 228.602 83.4745 227.979 85.4983C227.363 87.5222 226.776 89.3408 226.212 90.8432C225.652 92.3456 225.114 93.5287 224.704 94.3304C224.508 94.7345 224.334 95.0343 224.219 95.2429C224.167 95.3374 224.121 95.4124 224.085 95.4776C224.055 95.5297 224.036 95.5558 224.032 95.5525C224.029 95.5493 224.042 95.5232 224.065 95.4678C224.098 95.4026 224.134 95.3211 224.18 95.2266C224.282 95.0148 224.446 94.7084 224.629 94.2978C225.013 93.4895 225.531 92.3032 226.071 90.7976C226.619 89.2951 227.189 87.4766 227.796 85.4495C228.409 83.4256 229.067 81.1866 229.93 78.8955C230.779 76.6011 231.68 74.4534 232.457 72.4849C233.237 70.5197 233.903 68.7338 234.394 67.2118C234.889 65.6898 235.214 64.4383 235.424 63.5682C235.528 63.1347 235.594 62.7925 235.65 62.5644C235.676 62.4601 235.696 62.3754 235.712 62.3037C235.725 62.2417 235.735 62.2124 235.738 62.2124Z" fill="#263238"/>
<path d="M206.321 57.7082C205.721 57.1151 204.722 57.7343 204.967 58.5426C205.22 59.3606 205.603 60.4165 206.167 61.6061C207.478 64.3763 211.33 74.3196 213.136 79.7818C214.939 85.2407 217.48 95.4285 217.48 95.4285L221.331 94.806C221.331 94.806 217.807 78.0675 214.365 72.035C211.599 67.1921 208.832 60.1916 206.321 57.7082Z" fill="#455A64"/>
<path d="M214.188 83.1973C214.201 83.1941 214.27 83.357 214.388 83.6568C214.503 83.9567 214.657 84.3966 214.831 84.9409C215.185 86.0327 215.621 87.5579 216.057 89.2526C216.493 90.9473 216.857 92.4889 217.109 93.61C217.224 94.138 217.322 94.5844 217.397 94.9364C217.463 95.2493 217.489 95.4253 217.476 95.4285C217.463 95.4318 217.407 95.2623 217.319 94.9527C217.224 94.604 217.106 94.164 216.965 93.6426C216.67 92.4921 216.283 90.9767 215.853 89.3015C215.418 87.6101 215.004 86.0816 214.687 84.98C214.536 84.4618 214.408 84.0251 214.306 83.6764C214.221 83.3733 214.175 83.2006 214.188 83.1973Z" fill="#263238"/>
<path d="M219.413 95.1184C219.41 95.1184 219.403 95.0826 219.39 95.0174C219.377 94.9392 219.364 94.8381 219.348 94.7143C219.308 94.4503 219.272 94.056 219.19 93.5541C219.049 92.547 218.797 91.1 218.384 89.3304C217.974 87.5607 217.374 85.4814 216.581 83.2131C215.791 80.9448 214.801 78.494 213.677 75.9585C211.412 70.8906 209.147 66.3964 207.662 63.0722C206.911 61.4133 206.328 60.0608 205.944 59.1189C205.747 58.6496 205.61 58.2781 205.511 58.0304C205.469 57.9131 205.433 57.8218 205.403 57.7436C205.38 57.6784 205.37 57.6458 205.374 57.6426C205.377 57.6426 205.393 57.6719 205.423 57.7338C205.456 57.8088 205.498 57.9 205.547 58.0109C205.662 58.2716 205.816 58.6301 206.016 59.0831C206.423 60.0152 207.022 61.3579 207.79 63.007C209.311 66.3117 211.592 70.7961 213.86 75.8705C214.985 78.4093 215.971 80.8699 216.755 83.1479C217.538 85.426 218.125 87.5151 218.522 89.2945C218.918 91.0707 219.151 92.5275 219.266 93.541C219.335 94.0462 219.358 94.4405 219.387 94.7078C219.397 94.8316 219.403 94.9327 219.41 95.0109C219.417 95.0826 219.417 95.1184 219.413 95.1184Z" fill="#263238"/>
<path d="M221.331 94.8092C221.318 94.8124 221.272 94.581 221.2 94.1671C221.125 93.7174 221.023 93.1242 220.902 92.4072C220.636 90.9244 220.23 88.8809 219.649 86.6583C219.073 84.4323 218.423 82.4508 217.922 81.0299C217.676 80.3455 217.473 79.7784 217.319 79.3482C217.175 78.9506 217.102 78.729 217.116 78.7257C217.129 78.7192 217.227 78.9311 217.394 79.3221C217.561 79.71 217.791 80.277 218.06 80.9843C218.594 82.3954 219.269 84.3769 219.849 86.6094C220.433 88.8418 220.816 90.895 221.049 92.3877C221.157 93.134 221.243 93.7402 221.285 94.1606C221.325 94.5745 221.344 94.8059 221.331 94.8092Z" fill="#263238"/>
<path d="M229.238 94.2583H214.205V112.467H229.238V94.2583Z" fill="#FF6652"/>
<g opacity="0.3">
<path opacity="0.3" d="M229.238 94.2583H214.205V112.467H229.238V94.2583Z" fill="black"/>
</g>
<path d="M224.439 94.2583H211.104V112.467H224.439V94.2583Z" fill="#FF6652"/>
<path d="M29.0201 87.93C26.46 86.3005 22.9099 86.2679 20.4186 88.0017C18.0519 89.6476 16.8521 92.6394 16.957 95.5073C17.0619 98.3753 18.4583 101.879 21.0742 103.388L28.7447 103.358C31.1934 101.566 32.8521 98.6816 32.9668 95.6605C33.0783 92.6361 31.5802 89.5596 29.0201 87.93Z" fill="#455A64"/>
<path d="M25.2408 103.661C25.2244 103.661 25.208 103.426 25.1917 103.006C25.1785 102.536 25.1622 101.937 25.1392 101.217C25.0999 99.7076 25.0409 97.6218 24.9392 95.3176C24.8376 93.0135 24.7131 90.9309 24.618 89.4252C24.5754 88.7083 24.5393 88.1086 24.5098 87.6393C24.4869 87.2156 24.4836 86.9842 24.5 86.981C24.5164 86.981 24.5524 87.2123 24.6049 87.6295C24.6573 88.0499 24.7196 88.6594 24.7885 89.4122C24.9261 90.9179 25.0802 93.0037 25.1818 95.3078C25.2834 97.612 25.3162 99.701 25.3097 101.213C25.3064 101.969 25.2965 102.582 25.2834 103.002C25.2736 103.426 25.2572 103.661 25.2408 103.661Z" fill="#263238"/>
<path d="M17.7278 94.855C17.7213 94.9235 17.305 94.9431 16.7969 94.9007C16.2888 94.8583 15.879 94.7703 15.8856 94.7051C15.8921 94.6367 16.3084 94.6171 16.8165 94.6595C17.3246 94.6986 17.7344 94.7866 17.7278 94.855Z" fill="#263238"/>
<path d="M17.8717 92.2801C17.8455 92.342 17.4849 92.241 17.0686 92.0585C16.6523 91.876 16.3376 91.6772 16.3638 91.6152C16.3901 91.5533 16.7506 91.6511 17.1669 91.8369C17.5832 92.0194 17.8979 92.2182 17.8717 92.2801Z" fill="#263238"/>
<path d="M19.2025 90.3704C19.1665 90.4258 18.7633 90.2368 18.3437 89.8913C17.9241 89.5458 17.6586 89.1873 17.7077 89.1417C17.7569 89.0961 18.0913 89.3698 18.4977 89.7023C18.9042 90.038 19.2386 90.3117 19.2025 90.3704Z" fill="#263238"/>
<path d="M20.5432 88.568C20.4809 88.5941 20.2875 88.2943 20.1105 87.8967C19.9335 87.4991 19.8384 87.1536 19.9007 87.1276C19.963 87.1015 20.1564 87.4013 20.3334 87.7989C20.5104 88.1965 20.6022 88.542 20.5432 88.568Z" fill="#263238"/>
<path d="M22.6445 87.2908C22.5855 87.3201 22.3757 86.9975 22.238 86.5542C22.0971 86.111 22.0872 85.7297 22.1528 85.7167C22.2216 85.7036 22.3364 86.0523 22.4708 86.4793C22.6019 86.9095 22.7068 87.2614 22.6445 87.2908Z" fill="#263238"/>
<path d="M26.1486 85.8472C26.2109 85.87 26.1749 86.1438 26.0601 86.4567C25.9487 86.7728 25.8044 87.0074 25.7422 86.9879C25.6799 86.9651 25.7159 86.6913 25.8307 86.3784C25.9421 86.0623 26.0863 85.8244 26.1486 85.8472Z" fill="#263238"/>
<path d="M28.7514 86.9581C28.7973 87.007 28.6301 87.2351 28.3777 87.4665C28.1253 87.6979 27.886 87.8446 27.8401 87.7957C27.7942 87.7468 27.9614 87.5187 28.2138 87.2873C28.4629 87.0559 28.7055 86.9092 28.7514 86.9581Z" fill="#263238"/>
<path d="M31.0397 88.4283C31.079 88.4837 30.8758 88.6858 30.584 88.8813C30.2956 89.0769 30.03 89.1877 29.9907 89.1323C29.9514 89.0769 30.1546 88.8748 30.4464 88.6793C30.7381 88.4837 31.0036 88.3729 31.0397 88.4283Z" fill="#263238"/>
<path d="M32.6653 90.6183C32.6915 90.6802 32.3703 90.8757 31.9507 91.055C31.5278 91.2342 31.164 91.3287 31.1377 91.2668C31.1115 91.2049 31.4328 91.0093 31.8556 90.8301C32.2752 90.6541 32.6391 90.5563 32.6653 90.6183Z" fill="#263238"/>
<path d="M33.3077 93.0105C33.3175 93.0757 32.9897 93.1735 32.5799 93.2223C32.1702 93.2745 31.8293 93.2582 31.8227 93.193C31.8129 93.1278 32.1407 93.03 32.5504 92.9812C32.9602 92.929 33.2978 92.9421 33.3077 93.0105Z" fill="#263238"/>
<path d="M33.6387 95.9536C33.6124 96.0155 33.265 95.9243 32.8618 95.7515C32.4586 95.5788 32.157 95.3865 32.1832 95.3246C32.2095 95.2627 32.5569 95.3539 32.9601 95.5267C33.3633 95.6994 33.6682 95.8917 33.6387 95.9536Z" fill="#263238"/>
<path d="M33.3473 98.4785C33.3243 98.5404 32.8851 98.4361 32.4262 98.1363C31.964 97.8397 31.6919 97.4812 31.7411 97.4356C31.7902 97.3867 32.1246 97.6507 32.5606 97.9309C32.9933 98.2145 33.3702 98.4133 33.3473 98.4785Z" fill="#263238"/>
<path d="M32.0226 100.776C31.9833 100.828 31.6326 100.623 31.2982 100.265C30.9606 99.9061 30.7836 99.5443 30.836 99.5085C30.8917 99.4694 31.154 99.7562 31.4752 100.102C31.7997 100.444 32.0685 100.724 32.0226 100.776Z" fill="#263238"/>
<path d="M19.4682 101.047C19.5009 101.106 19.1305 101.357 18.6487 101.608C18.1635 101.859 17.7472 102.012 17.7144 101.953C17.6816 101.895 18.0521 101.644 18.5339 101.393C19.0191 101.142 19.4354 100.989 19.4682 101.047Z" fill="#263238"/>
<path d="M18.3206 98.9673C18.3501 99.0292 18.0551 99.2215 17.6617 99.3974C17.2716 99.5734 16.9307 99.6679 16.9012 99.606C16.8717 99.5441 17.1667 99.3518 17.5601 99.1758C17.9534 98.9998 18.2911 98.9053 18.3206 98.9673Z" fill="#263238"/>
<path d="M17.4783 97.1264C17.4882 97.1916 17.1243 97.2992 16.6687 97.3644C16.213 97.4295 15.8328 97.4263 15.8229 97.3611C15.8131 97.2959 16.177 97.1884 16.6326 97.1232C17.0883 97.058 17.4685 97.058 17.4783 97.1264Z" fill="#263238"/>
<path d="M20.2418 96.1094C20.2615 96.1713 19.9075 96.3375 19.4355 96.3897C18.9634 96.4451 18.5832 96.3603 18.5864 96.2952C18.5897 96.2267 18.9601 96.1974 19.4059 96.1453C19.855 96.0996 20.2222 96.0442 20.2418 96.1094Z" fill="#263238"/>
<path d="M22.5395 93.8385C22.5592 93.9004 22.2773 94.0438 21.8971 94.0796C21.5168 94.1187 21.2152 94.034 21.2218 93.9688C21.2283 93.9004 21.5201 93.8743 21.8741 93.8385C22.2281 93.8026 22.5199 93.7733 22.5395 93.8385Z" fill="#263238"/>
<path d="M22.9789 92.0164C22.9559 92.0816 22.6511 92.0327 22.297 91.9121C21.943 91.7915 21.6742 91.6416 21.6972 91.5764C21.7201 91.5145 22.025 91.5601 22.379 91.6807C22.733 91.8045 23.0018 91.9545 22.9789 92.0164Z" fill="#263238"/>
<path d="M23.8212 90.1751C23.7753 90.2207 23.5655 90.0838 23.4147 89.8264C23.264 89.5689 23.2508 89.3212 23.3131 89.3017C23.3787 89.2821 23.4934 89.4744 23.6245 89.7025C23.7589 89.9372 23.8704 90.1295 23.8212 90.1751Z" fill="#263238"/>
<path d="M22.8053 97.7131C22.8217 97.7783 22.5562 97.8988 22.2153 97.9803C22.0186 98.0292 21.8383 98.052 21.7203 98.052L21.6711 97.9086C21.7596 97.8923 21.8154 97.8956 21.8285 97.9217C21.8383 97.9477 21.8055 97.9934 21.7334 98.0455L21.6843 97.9021C21.7892 97.8467 21.9596 97.788 22.1563 97.7391C22.5005 97.6642 22.7889 97.6479 22.8053 97.7131Z" fill="#263238"/>
<path d="M23.2801 100.943C23.3063 101.005 22.9687 101.197 22.5294 101.367C22.0902 101.54 21.7132 101.628 21.687 101.566C21.6608 101.504 21.9984 101.315 22.4376 101.142C22.8769 100.969 23.2539 100.881 23.2801 100.943Z" fill="#263238"/>
<path d="M20.6844 99.5089C20.7074 99.574 20.4812 99.7077 20.1829 99.8054C19.8846 99.9065 19.6256 99.9358 19.6027 99.8739C19.5797 99.8087 19.8059 99.6783 20.1042 99.5773C20.4025 99.4763 20.6615 99.4437 20.6844 99.5089Z" fill="#263238"/>
<path d="M20.8809 92.939C20.8645 93.0042 20.4744 92.9651 20.022 92.8054C19.5697 92.6457 19.2419 92.4339 19.2714 92.372C19.3009 92.3101 19.6647 92.4209 20.104 92.574C20.5432 92.7305 20.8973 92.8706 20.8809 92.939Z" fill="#263238"/>
<path d="M27.1617 92.2248C27.1978 92.2802 26.9781 92.4921 26.67 92.6941C26.3619 92.8962 26.08 93.0135 26.0439 92.9581C26.0079 92.9027 26.2275 92.6909 26.5356 92.4888C26.8437 92.2867 27.1257 92.1662 27.1617 92.2248Z" fill="#263238"/>
<path d="M27.5057 95.4646C27.5188 95.5298 27.2894 95.6341 26.9878 95.696C26.6895 95.7579 26.4371 95.7546 26.4207 95.6895C26.4076 95.6243 26.6371 95.52 26.9386 95.458C27.2369 95.3961 27.4893 95.3994 27.5057 95.4646Z" fill="#263238"/>
<path d="M27.9023 99.1114C27.8728 99.1733 27.5417 99.0788 27.1582 98.9028C26.7746 98.7268 26.4894 98.5345 26.5189 98.4726C26.5484 98.4107 26.8795 98.5052 27.263 98.6812C27.6433 98.8572 27.9285 99.0495 27.9023 99.1114Z" fill="#263238"/>
<path d="M27.0602 102.657C27.0077 102.7 26.7914 102.524 26.5783 102.266C26.3652 102.005 26.2341 101.761 26.2833 101.719C26.3357 101.676 26.5521 101.852 26.7651 102.11C26.9815 102.371 27.1126 102.615 27.0602 102.657Z" fill="#263238"/>
<path d="M26.8897 89.8359C26.9323 89.888 26.7881 90.0673 26.5422 90.1879C26.2964 90.3117 26.0669 90.3182 26.0505 90.2531C26.0309 90.1879 26.2112 90.0803 26.4308 89.9695C26.6537 89.862 26.8471 89.7838 26.8897 89.8359Z" fill="#263238"/>
<path d="M29.9674 93.1048C29.9903 93.1667 29.7051 93.3232 29.315 93.3753C28.925 93.4307 28.6103 93.3558 28.6136 93.2906C28.6168 93.2221 28.9184 93.183 29.2823 93.1341C29.6428 93.0885 29.9444 93.0429 29.9674 93.1048Z" fill="#263238"/>
<path d="M29.3546 90.1719C29.3841 90.2305 29.1022 90.4326 28.699 90.5597C28.2958 90.6868 27.9483 90.6868 27.9385 90.6216C27.9286 90.5532 28.24 90.4489 28.6236 90.3283C29.0071 90.2044 29.3251 90.1099 29.3546 90.1719Z" fill="#263238"/>
<path d="M30.6394 97.6515C30.6394 97.7167 30.1542 97.7591 29.5707 97.6548C28.9872 97.5505 28.548 97.3419 28.5709 97.28C28.5939 97.2148 29.0495 97.3158 29.6133 97.4136C30.1772 97.5179 30.6394 97.5831 30.6394 97.6515Z" fill="#263238"/>
<path d="M29.4957 101.914C29.4564 101.966 29.0991 101.758 28.745 101.402C28.3877 101.047 28.1812 100.692 28.2337 100.653C28.2894 100.61 28.5746 100.887 28.9188 101.23C29.2597 101.575 29.5383 101.862 29.4957 101.914Z" fill="#263238"/>
<path d="M24.4672 86.7012C24.5033 86.7533 23.4904 87.1607 22.3201 88.3894C21.1499 89.5887 19.9436 91.7071 19.6453 94.2655C19.5043 95.5365 19.6256 96.7684 19.8059 97.8667C19.996 98.965 20.2517 99.9427 20.4844 100.757C20.7205 101.572 20.9368 102.224 21.081 102.674C21.2253 103.127 21.3039 103.378 21.2876 103.384C21.2712 103.391 21.1663 103.15 20.9925 102.706C20.8188 102.263 20.5795 101.618 20.3205 100.806C20.0649 99.9949 19.7928 99.0172 19.5863 97.9058C19.3896 96.7977 19.2585 95.5463 19.4027 94.2394C19.7076 91.6224 20.9696 89.4649 22.1956 88.272C22.8053 87.6659 23.3789 87.2617 23.7985 87.0271C24.0017 86.9 24.1755 86.8315 24.2902 86.7729C24.4017 86.7207 24.4639 86.6947 24.4672 86.7012Z" fill="#263238"/>
<path d="M27.8073 103.541C27.7549 103.515 28.358 102.589 28.9087 100.927C29.4758 99.2811 29.9446 96.8466 29.5676 94.2035C29.3906 92.8836 29.0071 91.6614 28.5252 90.6185C28.0237 89.5887 27.3779 88.7446 26.7485 88.1547C26.0962 87.5811 25.4537 87.252 25.0046 87.0597C24.5523 86.8706 24.2802 86.8283 24.2835 86.8087C24.2835 86.8022 24.3523 86.8055 24.4834 86.825C24.6113 86.8478 24.8014 86.8902 25.0374 86.9749C25.5062 87.1444 26.1683 87.454 26.86 88.0276C27.532 88.624 28.1974 89.4649 28.7285 90.524C29.2333 91.5865 29.6299 92.8282 29.8102 94.1709C30.1937 96.8662 29.6889 99.3365 29.0726 100.986C28.935 101.406 28.7547 101.768 28.6236 102.09C28.4662 102.403 28.3351 102.677 28.2171 102.892C27.9647 103.316 27.8205 103.547 27.8073 103.541Z" fill="#263238"/>
<path d="M18.321 102.963H31.8199L31.9018 105.648H18.321V102.963Z" fill="#FF6652"/>
<path d="M19.468 104.306L20.2416 112.506H30.1117L30.905 104.397L19.468 104.306Z" fill="#FF6652"/>
<path d="M31.9015 105.682C31.9015 105.751 28.8628 105.803 25.1127 105.803C21.3627 105.803 18.324 105.747 18.324 105.682C18.324 105.617 21.3627 105.562 25.1127 105.562C28.8628 105.562 31.9015 105.614 31.9015 105.682Z" fill="#263238"/>
<path d="M30.5316 108.178C30.5447 108.185 30.4529 108.374 30.2431 108.69C30.03 109.003 29.6957 109.446 29.1974 109.919L29.1351 109.977L29.0728 109.912C28.4238 109.234 27.5289 108.403 26.4275 107.611L26.5783 107.605C26.2013 107.934 25.808 108.276 25.4048 108.628C24.9262 109.042 24.4607 109.446 24.0182 109.827L23.9428 109.892L23.8674 109.827C23.0282 109.123 22.2611 108.485 21.6121 107.944L21.7432 107.931C21.2777 108.494 20.8877 108.97 20.5763 109.345C20.2943 109.677 20.1337 109.853 20.1173 109.844C20.1042 109.834 20.2386 109.632 20.4943 109.283C20.786 108.895 21.1565 108.403 21.5957 107.82L21.6514 107.745L21.7268 107.807C22.3857 108.338 23.1626 108.964 24.0149 109.651L23.8608 109.655C24.3033 109.27 24.7655 108.866 25.2409 108.449C25.6441 108.097 26.0407 107.758 26.4177 107.429L26.4898 107.367L26.5652 107.422C27.6764 108.234 28.5648 109.094 29.1974 109.798L29.0728 109.795C30.0792 108.892 30.4922 108.152 30.5316 108.178Z" fill="#263238"/>
<path d="M192.73 110.257H49.8354C47.1966 110.257 45.0593 108.132 45.0593 105.508V14.7763C45.0593 12.1527 47.1966 10.0278 49.8354 10.0278H192.73C195.369 10.0278 197.506 12.1527 197.506 14.7763V105.508C197.506 108.129 195.369 110.257 192.73 110.257Z" fill="#455A64"/>
<path d="M199.398 112.551H45.9052C42.6829 112.551 40.0703 109.954 40.0703 106.75V103.781H205.233V106.75C205.233 109.957 202.62 112.551 199.398 112.551Z" fill="#455A64"/>
<path d="M106.257 102.843L108.305 106.086H137.145L139.046 102.843H106.257Z" fill="#263238"/>
<path d="M196.195 102.842C196.195 102.897 162.36 102.94 120.631 102.94C78.8884 102.94 45.0593 102.897 45.0593 102.842C45.0593 102.787 78.8884 102.744 120.631 102.744C162.36 102.744 196.195 102.787 196.195 102.842Z" fill="#263238"/>
<path d="M191.472 100.193H50.5011C49.9078 100.193 49.4292 99.7136 49.4292 99.127V16.8587C49.4292 16.2688 49.9111 15.793 50.5011 15.793H191.475C192.068 15.793 192.547 16.272 192.547 16.8587V99.127C192.544 99.7136 192.065 100.193 191.472 100.193Z" fill="#EBEBEB"/>
<path d="M192.393 100.316H49.2717L49.4258 22.0991H192.393V100.316Z" fill="white"/>
<path d="M61.1643 19.0524C61.1643 19.6814 60.6529 20.1899 60.0202 20.1899C59.3876 20.1899 58.8762 19.6814 58.8762 19.0524C58.8762 18.4235 59.3876 17.915 60.0202 17.915C60.6529 17.915 61.1643 18.4235 61.1643 19.0524Z" fill="#263238"/>
<path d="M54.238 19.0524C54.238 19.6814 53.7266 20.1899 53.094 20.1899C52.4613 20.1899 51.95 19.6814 51.95 19.0524C51.95 18.4235 52.4613 17.915 53.094 17.915C53.7266 17.915 54.238 18.4235 54.238 19.0524Z" fill="#263238"/>
<path d="M57.5617 19.0524C57.5617 19.6814 57.0504 20.1899 56.4177 20.1899C55.7851 20.1899 55.2737 19.6814 55.2737 19.0524C55.2737 18.4235 55.7851 17.915 56.4177 17.915C57.0504 17.915 57.5617 18.4235 57.5617 19.0524Z" fill="#263238"/>
<path d="M192.544 92.7627H49.2717V100.317H192.544V92.7627Z" fill="#263238"/>
<path d="M54.6871 97.4127V97.6539H53.5463V97.4616L54.1626 96.8815C54.3134 96.7381 54.3396 96.6501 54.3396 96.5621C54.3396 96.4219 54.2412 96.3405 54.0511 96.3405C53.9003 96.3405 53.7758 96.3926 53.6873 96.5002L53.4873 96.347C53.6053 96.1873 53.8217 96.0928 54.0741 96.0928C54.4117 96.0928 54.6281 96.2622 54.6281 96.536C54.6281 96.6859 54.5854 96.8228 54.3724 97.0216L53.9593 97.4127H54.6871Z" fill="white"/>
<path d="M54.8411 96.6503C54.8411 96.5395 54.923 96.4678 55.0214 96.4678C55.1197 96.4678 55.2016 96.5395 55.2016 96.6503C55.2016 96.7546 55.1197 96.8328 55.0214 96.8328C54.923 96.8328 54.8411 96.7578 54.8411 96.6503ZM54.8411 97.4878C54.8411 97.377 54.923 97.3053 55.0214 97.3053C55.1197 97.3053 55.2016 97.377 55.2016 97.4878C55.2016 97.5921 55.1197 97.6703 55.0214 97.6703C54.923 97.6703 54.8411 97.5954 54.8411 97.4878Z" fill="white"/>
<path d="M55.9229 96.1151V97.6534H55.6344V96.353H55.3066V96.1118H55.9229V96.1151Z" fill="white"/>
<path d="M57.611 97.3053H57.3356V97.654H57.057V97.3053H56.208V97.1065L56.9718 96.1157H57.2799L56.562 97.0641H57.0701V96.7545H57.3389V97.0641H57.6143V97.3053H57.611Z" fill="white"/>
<path d="M177.57 96.6895H60.1387V97.2207H177.57V96.6895Z" fill="white"/>
<path d="M96.7473 96.1191H60.05V97.5401H96.7473V96.1191Z" fill="#FF6652"/>
<path d="M97.9339 96.9568C97.9339 97.9378 97.134 98.733 96.1474 98.733C95.1607 98.733 94.3608 97.9378 94.3608 96.9568C94.3608 95.9759 95.1607 95.1807 96.1474 95.1807C97.134 95.1807 97.9339 95.9759 97.9339 96.9568Z" fill="#FF6652"/>
<path d="M180.527 96.9402C180.527 97.2466 180.277 97.4389 179.959 97.4389C179.537 97.4389 179.291 97.1684 179.291 96.673C179.291 96.145 179.599 95.855 180.048 95.855C180.202 95.855 180.35 95.8876 180.454 95.9528L180.35 96.1678C180.264 96.1124 180.163 96.0929 180.055 96.0929C179.763 96.0929 179.579 96.2721 179.579 96.6241V96.6274C179.671 96.5198 179.822 96.4677 179.992 96.4677C180.3 96.4677 180.527 96.6534 180.527 96.9402ZM180.248 96.9533C180.248 96.7936 180.127 96.6926 179.94 96.6926C179.753 96.6926 179.625 96.8034 179.625 96.9565C179.625 97.0999 179.74 97.2173 179.946 97.2173C180.127 97.214 180.248 97.113 180.248 96.9533Z" fill="white"/>
<path d="M180.668 96.4125C180.668 96.3017 180.75 96.23 180.848 96.23C180.946 96.23 181.028 96.3017 181.028 96.4125C181.028 96.5168 180.946 96.595 180.848 96.595C180.75 96.595 180.668 96.5168 180.668 96.4125ZM180.668 97.2501C180.668 97.1393 180.75 97.0676 180.848 97.0676C180.946 97.0676 181.028 97.1393 181.028 97.2501C181.028 97.3543 180.946 97.4326 180.848 97.4326C180.75 97.4326 180.668 97.3543 180.668 97.2501Z" fill="white"/>
<path d="M181.215 96.6469C181.215 96.1418 181.494 95.855 181.861 95.855C182.231 95.855 182.51 96.1418 182.51 96.6469C182.51 97.1521 182.231 97.4389 181.861 97.4389C181.494 97.4389 181.215 97.1521 181.215 96.6469ZM182.218 96.6469C182.218 96.2754 182.074 96.1027 181.861 96.1027C181.651 96.1027 181.504 96.2754 181.504 96.6469C181.504 97.0185 181.651 97.1912 181.861 97.1912C182.074 97.1912 182.218 97.0185 182.218 96.6469Z" fill="white"/>
<path d="M182.7 96.6469C182.7 96.1418 182.978 95.855 183.345 95.855C183.716 95.855 183.995 96.1418 183.995 96.6469C183.995 97.1521 183.716 97.4389 183.345 97.4389C182.978 97.4389 182.7 97.1521 182.7 96.6469ZM183.706 96.6469C183.706 96.2754 183.562 96.1027 183.349 96.1027C183.139 96.1027 182.991 96.2754 182.991 96.6469C182.991 97.0185 183.139 97.1912 183.349 97.1912C183.559 97.1912 183.706 97.0185 183.706 96.6469Z" fill="white"/>
<path d="M186.496 96.5526H185.961V95.0176H187.499V95.5488H186.496V96.5526Z" fill="white"/>
<path d="M187.502 98.5539H185.958V97.0254H186.493V98.0227H187.502V98.5539Z" fill="white"/>
<path d="M189.961 98.5536H188.42V98.0223H189.423V97.0186H189.961V98.5536Z" fill="white"/>
<path d="M189.961 96.5493H189.427V95.5488H188.417V95.0176H189.961V96.5493Z" fill="white"/>
<path d="M68.9004 26.7495H60.4628L56.2473 34.0107L60.4628 41.2751H68.9004L73.1159 34.0107L68.9004 26.7495Z" fill="#EBEBEB"/>
<path d="M61.151 35.4349C60.774 35.021 60.3938 34.6006 60.1184 34.1117C59.8431 33.6229 59.6792 33.0558 59.771 32.5018C59.8234 32.1791 59.9611 31.8728 59.9841 31.5469C60.0136 31.0971 59.8234 30.6278 59.9841 30.2074C60.2332 29.5491 61.1248 29.448 61.6657 28.995C62.0852 28.6398 62.2918 28.0662 62.754 27.7696C63.1572 27.5089 63.6784 27.5154 64.1537 27.5839C64.629 27.6523 65.1109 27.7696 65.5862 27.7077C65.9271 27.6621 66.245 27.5252 66.5794 27.4437C66.9138 27.3622 67.2842 27.3394 67.5792 27.5122C67.8742 27.6849 68.0414 28.1021 67.848 28.3823C68.402 28.1281 69.1035 28.5583 69.2543 29.1417C69.405 29.7283 69.1035 30.3606 68.6347 30.7484C68.166 31.1362 67.5595 31.3155 66.9629 31.4263C65.2715 31.7424 63.4325 31.5632 61.9738 30.6539" fill="#263238"/>
<path d="M68.9726 37.2277C68.9169 36.188 68.6219 34.0566 68.3367 32.1305C68.0286 30.0578 66.1699 28.5716 64.0687 28.7118L63.8589 28.7248C61.6168 29.0051 60.6039 31.055 60.9481 33.2777L61.6069 41.2787H67.0812C67.0812 41.2787 66.9534 39.874 66.9501 39.861C66.9501 39.8577 69.0906 39.3787 68.9726 37.2277Z" fill="#FFBE9D"/>
<path d="M66.95 39.8282C66.95 39.8282 65.5896 40.0303 64.0752 39.2188C64.0752 39.2188 64.8455 40.7212 66.9926 40.3855L66.95 39.8282Z" fill="#EB996E"/>
<path d="M67.944 33.2129C67.9079 33.2553 67.6621 33.0989 67.331 33.1217C66.9999 33.1412 66.7672 33.327 66.7278 33.2879C66.7082 33.2716 66.7442 33.1967 66.8426 33.1119C66.9409 33.0272 67.1146 32.9424 67.3211 32.9294C67.5277 32.9164 67.708 32.9816 67.8129 33.0533C67.921 33.1217 67.9604 33.1934 67.944 33.2129Z" fill="#263238"/>
<path d="M64.6788 33.4937C64.6428 33.5361 64.3969 33.3796 64.0658 33.4025C63.7347 33.422 63.502 33.6078 63.4627 33.5687C63.443 33.5524 63.4791 33.4774 63.5807 33.3927C63.679 33.3079 63.8528 33.2232 64.0593 33.2102C64.2658 33.1971 64.4461 33.2623 64.551 33.334C64.6559 33.4025 64.6952 33.4742 64.6788 33.4937Z" fill="#263238"/>
<path d="M66.049 35.8621C66.0457 35.8425 66.249 35.7936 66.5833 35.7285C66.6686 35.7154 66.7472 35.6926 66.7571 35.6339C66.7735 35.572 66.7308 35.484 66.685 35.3863C66.5899 35.1875 66.4948 34.9789 66.3899 34.7605C65.9802 33.8675 65.6753 33.1342 65.7114 33.118C65.7475 33.1017 66.1113 33.8121 66.5211 34.7051C66.6194 34.9267 66.7145 35.1353 66.8062 35.3374C66.8456 35.4319 66.9079 35.5362 66.8718 35.6665C66.8521 35.7317 66.7931 35.7806 66.7407 35.8002C66.6882 35.8197 66.6391 35.823 66.5965 35.8295C66.2621 35.8653 66.0523 35.8816 66.049 35.8621Z" fill="#263238"/>
<path d="M64.6754 32.1895C64.6492 32.2807 64.3149 32.2612 63.928 32.3329C63.538 32.398 63.2331 32.5317 63.1741 32.4567C63.1479 32.4209 63.197 32.3329 63.3183 32.2351C63.4396 32.1406 63.633 32.0428 63.8658 32.0037C64.0985 31.9613 64.3148 31.9841 64.4624 32.033C64.6099 32.0819 64.6885 32.1471 64.6754 32.1895Z" fill="#263238"/>
<path d="M67.7567 32.2644C67.7042 32.3426 67.4682 32.2807 67.1929 32.2937C66.9175 32.3002 66.6881 32.3784 66.6291 32.3035C66.6028 32.2676 66.6356 32.1894 66.7307 32.1112C66.8257 32.033 66.9896 31.9645 67.1798 31.958C67.3699 31.9515 67.5371 32.0102 67.6387 32.0786C67.7403 32.1503 67.7796 32.2253 67.7567 32.2644Z" fill="#263238"/>
<path d="M61.2331 34.855C61.1938 34.8419 59.7154 34.516 59.8629 35.9859C60.0104 37.4524 61.6101 36.9766 61.6068 36.9343C61.6068 36.8886 61.2331 34.855 61.2331 34.855Z" fill="#FFBE9D"/>
<path d="M60.951 36.4514C60.9445 36.4482 60.9281 36.471 60.8855 36.497C60.8461 36.5199 60.774 36.5394 60.6921 36.5199C60.5314 36.4775 60.3741 36.2461 60.3413 35.9821C60.3249 35.8485 60.3413 35.7181 60.3774 35.6106C60.4102 35.4998 60.4757 35.4183 60.5511 35.3955C60.6265 35.3694 60.6888 35.4118 60.7084 35.4509C60.7314 35.49 60.7248 35.5193 60.7347 35.5226C60.738 35.5258 60.7642 35.4965 60.7445 35.4346C60.7347 35.4053 60.715 35.3727 60.6757 35.3499C60.6363 35.3238 60.5839 35.314 60.5282 35.327C60.4167 35.3466 60.3216 35.4607 60.2823 35.5812C60.2364 35.7018 60.2135 35.8485 60.2331 35.9984C60.2725 36.2917 60.4528 36.5557 60.6724 36.5948C60.7773 36.6111 60.8625 36.572 60.9051 36.5329C60.9543 36.4873 60.9576 36.4514 60.951 36.4514Z" fill="#EB996E"/>
<path d="M68.2284 30.1196C68.1268 30.703 66.9369 31.2375 65.9469 31.2114C65.0356 31.1853 64.5865 30.7356 63.9244 30.4162C63.5048 30.2141 63.5048 30.2141 62.9377 30.3054C62.4788 30.3803 62.2395 30.9181 61.9805 31.3027C62.4722 32.3684 62.2723 33.6068 62.0657 34.7605C62.0428 34.8876 62.0133 35.0245 61.915 35.1125C61.7478 35.2591 61.479 35.1712 61.3184 35.0212C61.0561 34.7833 60.9381 34.4313 60.8529 34.0891C60.6562 33.3102 60.5841 32.4955 60.7054 31.7035C60.8299 30.9116 61.1577 30.1392 61.7052 29.5493C62.387 28.8095 63.3802 28.3825 64.3898 28.3304C65.3962 28.2782 66.4091 28.5879 67.2515 29.1386C67.6384 29.3961 68.0055 29.709 68.2284 30.1196Z" fill="#263238"/>
<path d="M66.2681 36.6047C66.0157 36.4873 65.7666 36.3733 65.5142 36.2559C65.4716 36.2364 65.4257 36.2168 65.3765 36.2201C65.3241 36.2266 65.2814 36.2657 65.2454 36.3081C65.0716 36.5167 65.0258 36.836 65.1634 37.074C65.2978 37.3119 65.6158 37.4357 65.8682 37.3314C66.1337 37.2206 66.2648 36.9143 66.2845 36.6275L66.2681 36.6047Z" fill="#EB996E"/>
<path d="M65.8943 37.3869C65.9074 37.4 65.7369 37.5075 65.4517 37.426C65.3141 37.3837 65.1567 37.2794 65.0616 37.1099C64.9633 36.9437 64.9272 36.709 65.0125 36.4972C65.0518 36.3929 65.1174 36.2984 65.196 36.2267C65.2354 36.1909 65.2747 36.1583 65.3239 36.1322C65.3731 36.0963 65.4747 36.0931 65.5206 36.1192C65.691 36.2137 65.809 36.2951 65.9238 36.3701C66.1434 36.5168 66.2745 36.6145 66.2614 36.6373C66.2483 36.6569 66.0975 36.595 65.8615 36.4744C65.7238 36.4027 65.5927 36.3343 65.4583 36.2658C65.4255 36.256 65.4288 36.256 65.3993 36.2723C65.3698 36.2919 65.3337 36.318 65.3075 36.3473C65.2485 36.406 65.1993 36.4777 65.1698 36.5591C65.1043 36.7221 65.1272 36.9013 65.1993 37.0382C65.2714 37.1751 65.3829 37.2663 65.4943 37.3152C65.7205 37.4097 65.8877 37.3576 65.8943 37.3869Z" fill="#263238"/>
<path d="M65.655 34.0107C65.6386 34.0107 65.6419 33.8738 65.573 33.6457C65.5075 33.4208 65.3501 33.0917 65.0092 32.8407C64.6782 32.5898 64.1373 32.4496 63.6161 32.6452C63.0982 32.8244 62.6523 33.3719 62.6589 34.0107C62.6523 34.6495 63.0982 35.197 63.6161 35.3763C64.1373 35.5718 64.6782 35.4317 65.0092 35.1807C65.3501 34.9298 65.5108 34.6006 65.573 34.3757C65.6419 34.1476 65.6386 34.0107 65.655 34.0107C65.6615 34.0107 65.6648 34.0433 65.6681 34.1085C65.6714 34.1737 65.6648 34.2714 65.6386 34.392C65.5894 34.6332 65.4419 34.9917 65.0813 35.2752C64.7339 35.5588 64.1406 35.7282 63.5604 35.5229C62.9834 35.3339 62.4786 34.7245 62.4852 34.0107C62.4786 33.297 62.9834 32.6875 63.5604 32.4985C64.1438 32.2899 64.7339 32.4594 65.0813 32.7462C65.4419 33.0297 65.5894 33.3915 65.6386 33.6294C65.6648 33.75 65.6714 33.8478 65.6681 33.9129C65.6648 33.9781 65.6615 34.0107 65.655 34.0107Z" fill="#263238"/>
<path d="M69.3362 33.8672C69.3198 33.8672 69.3198 33.7336 69.2576 33.512C69.1953 33.2936 69.0412 32.9742 68.7069 32.7298C68.3856 32.4854 67.8579 32.3517 67.3498 32.5408C66.845 32.7135 66.4123 33.248 66.4188 33.8705C66.4123 34.4929 66.8482 35.0242 67.3498 35.2002C67.8579 35.3892 68.3856 35.2556 68.7069 35.0111C69.0412 34.7667 69.1953 34.4473 69.2576 34.229C69.3231 34.0008 69.3198 33.8672 69.3362 33.8672C69.3428 33.8672 69.3461 33.8998 69.3493 33.965C69.3526 34.0269 69.3461 34.1214 69.3231 34.242C69.2772 34.4766 69.133 34.8254 68.7823 35.1056C68.4446 35.3827 67.8677 35.5489 67.2973 35.3468C66.7335 35.1611 66.2418 34.5679 66.2484 33.8705C66.2418 33.173 66.7335 32.5799 67.2973 32.3941C67.8644 32.192 68.4413 32.3583 68.7823 32.6353C69.133 32.9123 69.2772 33.2643 69.3231 33.4989C69.3493 33.6163 69.3526 33.7108 69.3493 33.7759C69.3461 33.8346 69.3428 33.8672 69.3362 33.8672Z" fill="#263238"/>
<path d="M66.3338 33.5314C66.301 33.564 66.1535 33.4695 65.9568 33.476C65.7602 33.476 65.6192 33.577 65.5832 33.5444C65.5373 33.5216 65.6749 33.3098 65.9536 33.3033C66.2322 33.3 66.3764 33.5053 66.3338 33.5314Z" fill="#263238"/>
<path d="M62.6656 33.7959C62.6951 33.835 62.4066 34.0925 62.0264 34.376C61.6461 34.6596 61.3117 34.8584 61.2855 34.8193C61.256 34.7802 61.5445 34.5227 61.9247 34.2392C62.305 33.9556 62.6361 33.7568 62.6656 33.7959Z" fill="#263238"/>
<path d="M93.0919 33.9392C93.0919 33.9849 89.2992 34.024 84.6215 34.024C79.9438 34.024 76.1511 33.9849 76.1511 33.9392C76.1511 33.8936 79.9438 33.8545 84.6215 33.8545C89.2992 33.8545 93.0919 33.8903 93.0919 33.9392Z" fill="#263238"/>
<path d="M85.2576 35.7021C85.2576 35.7477 83.2449 35.7868 80.7601 35.7868C78.2754 35.7868 76.2627 35.7477 76.2627 35.7021C76.2627 35.6565 78.2754 35.6174 80.7601 35.6174C83.2449 35.6141 85.2576 35.6532 85.2576 35.7021Z" fill="#263238"/>
<path d="M143.835 46.9595C143.835 46.9595 148.336 49.1398 149.919 54.7714C151.503 60.4031 156.341 75.0688 156.341 75.0688C156.341 75.0688 159.108 78.305 159.406 80.7004C159.701 83.0958 159.111 88.8937 158.219 89.9757C157.331 91.0577 156.062 90.8785 156.062 90.8785L144.416 89.7802L139.83 59.2494L143.835 46.9595Z" fill="#FF6652"/>
<path d="M105.325 46.4283C105.325 46.4283 96.9991 49.0258 94.9241 51.2843L101.742 82.8222L101.634 92.772H141.115C141.115 92.2799 141.469 59.735 141.469 59.735L143.842 46.9628L129.809 44.5055L127.042 42.3447L111.429 43.1302L109.056 45.4897L105.325 46.4283Z" fill="#FF6652"/>
<g opacity="0.3">
<path opacity="0.3" d="M108.489 73.7883C108.368 73.5211 108.194 73.231 107.905 73.1724C107.43 73.0746 107.112 73.6351 106.951 74.0882C105.67 77.6992 103.972 81.0202 101.766 84.1554L101.664 88.9983C103.965 87.0722 106.234 85.0093 107.702 82.3987C109.164 79.7882 109.728 76.5129 108.489 73.7883Z" fill="black"/>
</g>
<path d="M94.921 51.2847C94.921 51.2847 92.1773 55.0033 91.0366 57.4312C89.8958 59.8592 80.4552 80.2479 79.8881 82.3532C79.3177 84.4586 77.8524 91.0907 82.1663 92.629H91.0366L99.9396 74.727L100.395 53.9506L94.921 51.2847Z" fill="#FF6652"/>
<path d="M91.6068 79.6968C91.5937 79.7098 91.4101 79.5241 91.0004 79.2927C90.5939 79.0645 89.958 78.8006 89.1385 78.6213C88.7287 78.5333 88.2731 78.4616 87.7814 78.4323C87.2897 78.403 86.7619 78.4095 86.2243 78.5333C85.1491 78.7712 84.0805 79.4491 83.238 80.3975C82.3825 81.3459 81.858 82.467 81.5466 83.5229C81.2319 84.5821 81.0975 85.5761 81.0123 86.4072C80.9303 87.2415 80.8976 87.9194 80.868 88.3887C80.8549 88.6071 80.8418 88.7863 80.8353 88.9297C80.8254 89.0535 80.8189 89.1187 80.8123 89.1187C80.8058 89.1187 80.8025 89.0535 80.8025 88.9297C80.8025 88.7863 80.8025 88.6071 80.8058 88.3887C80.8156 87.9194 80.8287 87.2383 80.8943 86.3974C80.9631 85.5598 81.0877 84.5561 81.3958 83.4773C81.7007 82.4051 82.235 81.2546 83.1102 80.2834C83.9723 79.3122 85.0737 78.6181 86.1915 78.3802C86.7488 78.2563 87.293 78.2531 87.7912 78.2922C88.2895 78.328 88.7517 78.4062 89.1647 78.504C89.994 78.6995 90.63 78.9831 91.0332 79.234C91.2331 79.3611 91.3806 79.4752 91.4724 79.5599C91.5642 79.6447 91.6101 79.6936 91.6068 79.6968Z" fill="#263238"/>
<path d="M87.4014 76.1313C87.4014 76.1182 87.5063 76.1019 87.6997 76.0824C87.8931 76.0596 88.175 76.0531 88.5224 76.0726C88.8699 76.0889 89.2829 76.1476 89.732 76.2519C90.1778 76.3627 90.663 76.5256 91.1449 76.7505C91.6234 76.9819 92.0562 77.2524 92.4233 77.5294C92.7871 77.8129 93.092 78.0932 93.3247 78.354C93.5575 78.6114 93.7312 78.833 93.8328 78.996C93.9377 79.1589 93.9935 79.2502 93.9836 79.2567C93.9574 79.2763 93.7181 78.921 93.2362 78.4354C92.9969 78.191 92.6888 77.9238 92.3282 77.6565C91.9611 77.3925 91.5382 77.1318 91.0695 76.9069C90.5974 76.6853 90.1287 76.5256 89.6927 76.4083C89.2534 76.2975 88.8535 76.229 88.5126 76.1997C87.8308 76.128 87.4014 76.1639 87.4014 76.1313Z" fill="#263238"/>
<path d="M95.4195 75.1501C95.4162 75.1631 95.272 75.1501 95.0097 75.1175C94.7475 75.0849 94.3673 75.0458 93.8985 75.0099C92.961 74.9382 91.6563 74.9219 90.2271 75.0914C88.8012 75.2641 87.5359 75.5868 86.641 75.8736C86.1919 76.017 85.8313 76.1441 85.5855 76.2386C85.3396 76.3298 85.1987 76.3755 85.1954 76.3657C85.1921 76.3559 85.3199 76.2875 85.5625 76.1767C85.8018 76.0626 86.1558 75.9192 86.6049 75.7595C87.4965 75.4401 88.7684 75.0947 90.2107 74.9219C91.6498 74.7525 92.9708 74.7883 93.9116 74.8893C94.3836 74.9382 94.7639 74.9969 95.0229 75.049C95.2818 75.1077 95.4228 75.1403 95.4195 75.1501Z" fill="#263238"/>
<path d="M120.689 57.7305C120.686 57.7338 120.656 57.6979 120.597 57.623C120.535 57.5382 120.453 57.4307 120.355 57.3003C120.139 57.0005 119.837 56.5866 119.463 56.0716C118.696 54.9962 117.631 53.5003 116.372 51.7371L116.51 51.7176C116.031 53.1124 115.503 54.654 114.949 56.2737L114.913 56.3747L114.825 56.3161C114.766 56.2802 114.704 56.2379 114.641 56.1988C113.907 55.736 113.258 55.1787 112.711 54.5757C112.163 53.9696 111.708 53.3243 111.331 52.679C110.577 51.3851 110.121 50.1108 109.813 49.0321C109.505 47.9501 109.344 47.0506 109.239 46.4346C109.187 46.138 109.147 45.9034 109.115 45.7242C109.098 45.6427 109.082 45.584 109.072 45.5416C109.056 45.5058 109.049 45.483 109.052 45.483C109.088 45.4667 109.183 45.8089 109.305 46.4248C109.433 47.0375 109.61 47.9305 109.931 49.0028C110.252 50.0717 110.714 51.333 111.468 52.604C111.845 53.2395 112.294 53.8718 112.835 54.4682C113.379 55.0581 114.015 55.6056 114.733 56.0586C114.795 56.0977 114.858 56.1368 114.913 56.1727L114.789 56.2183C115.349 54.5986 115.88 53.0603 116.362 51.6687L116.411 51.522L116.5 51.6491C117.736 53.4253 118.785 54.9342 119.539 56.0195C119.899 56.5442 120.184 56.9679 120.394 57.2742C120.486 57.4111 120.558 57.5219 120.617 57.6099C120.666 57.6881 120.693 57.7273 120.689 57.7305Z" fill="#263238"/>
<g opacity="0.3">
<path opacity="0.3" d="M130.966 72.7842C130.599 76.4311 131.409 80.1855 133.248 83.3598C135.083 86.5374 137.778 89.3662 141.131 90.8882C141.239 87.652 141.082 83.8389 141.19 80.6027L130.966 72.7842Z" fill="black"/>
</g>
<path d="M130.595 68.5242C130.595 68.5242 129.163 68.9186 130.238 71.8419C131.313 74.762 131.671 74.586 132.389 77.3204C133.106 80.0515 133.942 82.5479 135.198 84.0927C136.453 85.6375 141.115 88.7857 141.115 88.7857L145.297 84.8651C145.297 84.8651 144.609 81.9417 144.773 79.957C144.937 77.9722 145.356 73.0999 145.297 72.2689C145.238 71.4378 144.34 69.4172 144.34 69.4172V68.0354L142.19 61.4553C142.19 61.4553 140.993 60.9208 140.577 62.8209L139.859 60.8035C139.859 60.8035 138.725 60.6243 138.427 62.9414C138.128 65.2586 138.666 68.4655 138.666 68.4655L138.069 72.5068L137.174 75.2379L136.398 75.3552C136.398 75.3552 135.227 75.0391 134.588 72.849C133.942 70.6621 132.208 68.0484 130.595 68.5242Z" fill="#FFBE9D"/>
<path d="M143.894 78.8559C143.891 78.8559 143.885 78.8038 143.875 78.706C143.868 78.5919 143.858 78.4485 143.845 78.2693C143.822 77.8717 143.793 77.3209 143.757 76.6332C143.691 75.2156 143.603 73.2406 143.498 70.9364L143.517 70.9853C143.324 70.7572 142.983 70.6887 142.672 70.767C142.354 70.8419 142.072 71.0375 141.895 71.3308C141.531 71.9141 141.508 72.6768 141.397 73.4133C141.17 75.0787 140.954 76.6626 140.757 78.1096C140.659 78.8298 140.554 79.5175 140.41 80.153C140.272 80.7885 140.079 81.3686 139.892 81.8868C139.708 82.405 139.544 82.8743 139.443 83.298C139.341 83.7217 139.299 84.0932 139.308 84.3995C139.322 85.0122 139.502 85.3251 139.472 85.3316C139.466 85.3349 139.433 85.2567 139.371 85.1035C139.322 84.9471 139.253 84.7124 139.24 84.4028C139.22 84.0932 139.253 83.7086 139.348 83.2784C139.443 82.8482 139.6 82.3724 139.777 81.851C139.957 81.3295 140.141 80.7592 140.272 80.1269C140.407 79.4979 140.505 78.8135 140.6 78.0933C140.793 76.6463 141.003 75.0624 141.226 73.397C141.279 73.0255 141.318 72.6605 141.383 72.2922C141.449 71.9272 141.551 71.5622 141.754 71.2493C141.944 70.9299 142.278 70.6953 142.632 70.6138C142.983 70.5258 143.399 70.604 143.639 70.8908L143.655 70.9136V70.9397C143.734 73.2438 143.803 75.2188 143.852 76.6398C143.868 77.3274 143.885 77.8782 143.894 78.2791C143.898 78.4583 143.898 78.6017 143.898 78.7158C143.901 78.807 143.898 78.8559 143.894 78.8559Z" fill="#EB996E"/>
<path d="M141.606 71.3688C141.596 71.3721 141.531 71.2417 141.429 70.9973C141.331 70.7529 141.2 70.3911 141.078 69.9316C140.957 69.4753 140.842 68.918 140.777 68.2956C140.744 67.9827 140.721 67.6503 140.76 67.3048C140.797 66.9593 140.898 66.5943 141.121 66.2847C141.311 66.0175 141.58 65.8024 141.885 65.7144L141.95 65.6948L141.983 65.7535C142.59 66.8159 143.114 67.7546 143.485 68.4292C143.655 68.7453 143.796 69.0093 143.914 69.2276C144.012 69.4167 144.061 69.521 144.052 69.5275C144.042 69.534 143.976 69.4362 143.861 69.257C143.734 69.0484 143.576 68.7909 143.389 68.4846C142.993 67.823 142.449 66.8974 141.836 65.8382L141.934 65.8773C141.672 65.9556 141.432 66.1413 141.262 66.3858C141.062 66.666 140.964 66.9984 140.928 67.3244C140.892 67.6535 140.908 67.9762 140.934 68.2825C140.99 68.8985 141.088 69.4493 141.196 69.9055C141.301 70.3618 141.413 70.7268 141.491 70.9778C141.573 71.2254 141.619 71.3656 141.606 71.3688Z" fill="#EB996E"/>
<path d="M140.606 71.9076C140.593 71.9076 140.58 71.7739 140.567 71.5295C140.557 71.2492 140.541 70.9038 140.524 70.4964C140.495 69.623 140.469 68.4171 140.449 67.0842C140.439 65.7512 140.387 64.5421 140.501 63.6654C140.557 63.2287 140.646 62.88 140.724 62.6486C140.803 62.4139 140.869 62.2966 140.878 62.2999C140.908 62.3096 140.695 62.8148 140.619 63.6817C140.537 64.5454 140.606 65.7512 140.616 67.0842C140.636 68.4171 140.642 69.623 140.642 70.4964C140.639 70.9038 140.633 71.2492 140.629 71.5328C140.626 71.7707 140.619 71.9043 140.606 71.9076Z" fill="#EB996E"/>
<path d="M137.07 82.8611C137.047 82.8415 137.306 82.5352 137.63 81.9779C137.794 81.7008 137.961 81.3554 138.115 80.9643C138.263 80.5667 138.397 80.1202 138.489 79.6411C138.574 79.1588 138.604 78.696 138.604 78.2723C138.597 77.8486 138.561 77.4673 138.505 77.1544C138.397 76.5222 138.259 76.1441 138.289 76.1344C138.299 76.1311 138.341 76.2224 138.407 76.3918C138.476 76.5613 138.551 76.8155 138.623 77.1316C138.695 77.451 138.745 77.8389 138.761 78.2691C138.771 78.7025 138.741 79.1783 138.656 79.6704C138.564 80.1626 138.423 80.6188 138.263 81.0197C138.096 81.4173 137.912 81.766 137.732 82.0398C137.555 82.3135 137.394 82.5254 137.269 82.659C137.151 82.7959 137.079 82.8676 137.07 82.8611Z" fill="#EB996E"/>
<path d="M144.412 80.8174L148.041 82.0689C148.041 82.0689 151.506 80.2862 153.896 82.0689C156.285 83.8516 158.36 88.5478 157.705 90.4479C157.705 90.4479 156.056 92.4717 154.8 92.7683C153.545 93.0649 148.667 91.8916 146.638 91.4647C144.603 91.0378 141.108 88.7792 141.108 88.7792L144.412 80.8174Z" fill="#FFBE9D"/>
<path d="M144.858 86.133C144.845 86.133 144.832 86.019 144.819 85.8136C144.806 85.5692 144.786 85.2792 144.766 84.9435C144.727 84.2069 144.678 83.1901 144.661 82.0625C144.645 80.9348 144.678 79.9148 144.747 79.1782C144.779 78.81 144.819 78.5134 144.855 78.3081C144.891 78.1027 144.917 77.9919 144.93 77.9952C144.956 77.9984 144.901 78.4515 144.865 79.1847C144.829 79.918 144.815 80.9349 144.832 82.0592C144.852 83.1608 144.871 84.1581 144.884 84.9402C144.888 85.3085 144.888 85.6083 144.881 85.8136C144.881 86.019 144.871 86.133 144.858 86.133Z" fill="#EB996E"/>
<path d="M156.826 81.926C156.8 81.9521 156.426 81.4372 155.62 80.844C154.823 80.2509 153.532 79.6186 152.004 79.5339C150.473 79.4524 149.119 79.938 148.264 80.4399C147.395 80.9418 146.969 81.4111 146.946 81.385C146.94 81.3785 147.041 81.2579 147.244 81.0624C147.451 80.8668 147.769 80.6061 148.202 80.3389C149.057 79.8011 150.44 79.2797 152.014 79.3677C153.587 79.4557 154.905 80.1238 155.695 80.7495C156.095 81.0624 156.387 81.359 156.567 81.574C156.747 81.7924 156.836 81.9228 156.826 81.926Z" fill="#263238"/>
<path d="M156.361 78.917C156.338 78.9529 155.853 78.464 154.85 78.0892C153.863 77.7047 152.332 77.5287 150.762 77.9686C149.979 78.187 149.261 78.4966 148.648 78.8421C148.035 79.1908 147.523 79.5721 147.117 79.9176C146.71 80.263 146.399 80.5661 146.186 80.7747C145.973 80.9865 145.855 81.1006 145.845 81.0941C145.838 81.0876 145.94 80.9572 146.14 80.7291C146.34 80.5042 146.638 80.1881 147.042 79.8263C147.441 79.4646 147.953 79.0669 148.572 78.7052C149.192 78.3467 149.92 78.024 150.719 77.8024C152.329 77.3527 153.899 77.5547 154.896 77.9752C155.4 78.1805 155.774 78.4184 156.013 78.6009C156.138 78.6889 156.22 78.7736 156.279 78.8258C156.335 78.8844 156.364 78.9138 156.361 78.917Z" fill="#263238"/>
<path d="M156.39 76.3106C156.38 76.3432 155.748 76.1509 154.692 76.0107C154.164 75.9358 153.532 75.8934 152.83 75.8934C152.129 75.9032 151.358 75.9618 150.558 76.0955C149.762 76.2389 149.018 76.4474 148.352 76.6756C147.694 76.9135 147.113 77.1677 146.645 77.4186C145.704 77.9108 145.173 78.3051 145.153 78.279C145.147 78.2692 145.274 78.1682 145.517 77.989C145.635 77.8977 145.786 77.7934 145.966 77.6826C146.146 77.5718 146.35 77.4349 146.586 77.3144C147.051 77.0504 147.635 76.7831 148.297 76.5322C148.965 76.2943 149.719 76.0792 150.526 75.9325C151.335 75.7956 152.116 75.7402 152.827 75.7402C153.538 75.75 154.177 75.8054 154.705 75.8967C154.971 75.9293 155.207 75.9912 155.416 76.0335C155.626 76.0759 155.803 76.1248 155.944 76.1672C156.236 76.2486 156.393 76.3008 156.39 76.3106Z" fill="#263238"/>
<path d="M128.583 44.3975C128.583 44.3975 128.75 44.7103 128.835 45.3556C128.924 45.9977 128.91 46.9623 128.697 48.1551C128.589 48.7516 128.445 49.4066 128.229 50.1073C128.002 50.808 127.662 51.525 127.275 52.2746C126.495 53.7738 125.508 55.4065 124.37 57.1501L124.236 57.3555V57.111C124.233 55.9606 124.233 54.7515 124.23 53.4935L124.357 53.5554C123.381 54.3376 122.354 55.1621 121.296 56.0127L121.322 55.9736C120.614 58.2093 120.145 60.6992 119.962 63.2902C119.663 67.2565 119.903 71.05 120.093 74.4916C120.253 77.9364 120.358 81.0423 120.466 83.6462C120.571 86.2535 120.666 88.3588 120.745 89.8156C120.788 90.5359 120.82 91.0997 120.843 91.4908C120.856 91.6765 120.866 91.8199 120.873 91.9275C120.879 92.0253 120.876 92.0774 120.876 92.0774C120.876 92.0774 120.866 92.0285 120.853 91.9307C120.843 91.8265 120.827 91.6798 120.807 91.4973C120.771 91.116 120.725 90.5489 120.676 89.8221C120.578 88.3653 120.463 86.26 120.345 83.6527C120.227 81.0455 120.089 77.9429 119.932 74.5013C119.735 71.063 119.49 67.2597 119.788 63.2804C119.975 60.6797 120.443 58.1767 121.161 55.928L121.168 55.9052L121.188 55.8889C122.246 55.0415 123.276 54.2202 124.252 53.4381L124.38 53.337V53.5C124.377 54.7547 124.377 55.9638 124.374 57.1175L124.239 57.0784C126.491 53.6075 128.324 50.5897 128.606 48.1486C128.832 46.9656 128.858 46.0107 128.783 45.3687C128.75 45.046 128.688 44.8081 128.648 44.6452C128.602 44.4789 128.583 44.3975 128.583 44.3975Z" fill="#263238"/>
<path d="M122.702 86.4364L122.584 86.4331C122.109 86.4461 121.686 86.8763 121.686 87.3489C121.686 87.8215 122.106 88.2549 122.578 88.2712C123.053 88.2875 123.502 87.8834 123.532 87.4141C123.568 86.9415 123.174 86.482 122.702 86.4364Z" fill="white"/>
<path d="M122.702 73.8758L122.584 73.8726C122.109 73.8856 121.686 74.3158 121.686 74.7883C121.686 75.2609 122.106 75.6944 122.578 75.7106C123.053 75.7269 123.502 75.3228 123.532 74.8535C123.568 74.381 123.174 73.9214 122.702 73.8758Z" fill="white"/>
<path d="M122.581 62.6386C123.056 62.6549 123.505 62.2507 123.535 61.7814C123.568 61.3121 123.174 60.8526 122.702 60.807L122.584 60.8037C122.109 60.8167 121.686 61.2469 121.686 61.7195C121.686 62.1888 122.106 62.6223 122.581 62.6386Z" fill="white"/>
<path d="M108.426 29.6799C107.276 28.4154 106.118 27.1346 105.279 25.6485C104.44 24.1623 103.942 22.4253 104.22 20.7436C104.381 19.7593 104.804 18.824 104.87 17.83C104.961 16.4612 104.384 15.0305 104.87 13.7497C105.633 11.7453 108.348 11.4357 109.993 10.0506C111.275 8.97188 111.898 7.22177 113.31 6.3125C114.543 5.52055 116.126 5.53684 117.578 5.74216C119.031 5.94748 120.493 6.3125 121.948 6.11695C122.984 5.97681 123.961 5.56292 124.977 5.31197C125.993 5.06102 127.124 4.99584 128.029 5.51729C128.933 6.03874 129.441 7.31629 128.848 8.17342C130.533 7.40102 132.674 8.7079 133.136 10.4939C133.598 12.2798 132.674 14.2124 131.244 15.389C129.815 16.5687 127.97 17.1163 126.147 17.4585C120.984 18.4264 115.385 17.8789 110.937 15.1022" fill="#263238"/>
<path d="M126.577 46.9338C126.324 44.9914 126.118 43.3717 126.105 43.1696C126.105 43.1696 132.634 41.7095 132.274 35.1458C132.1 31.9747 131.205 25.4664 130.33 19.5903C129.389 13.2808 123.721 8.75073 117.32 9.1744L116.684 9.21677C109.846 10.0706 106.758 16.3215 107.807 23.0938L111.494 45.7996C111.494 45.7996 113.068 50.8218 116.438 51.692L120.686 57.7278L121.388 55.1303L124.554 52.3894C124.554 52.3894 125.282 51.6073 126.114 50.0788C126.803 48.8306 126.659 47.5432 126.577 46.9338Z" fill="#FFBE9D"/>
<path d="M126.108 43.0754C126.108 43.0754 121.961 43.6914 117.342 41.2178C117.342 41.2178 119.693 45.8033 126.236 44.7734L126.108 43.0754Z" fill="#EB996E"/>
<path d="M129.13 22.9045C129.022 23.0348 128.271 22.5558 127.259 22.6275C126.246 22.6829 125.534 23.2499 125.416 23.1359C125.357 23.0837 125.462 22.8556 125.77 22.6014C126.075 22.3472 126.603 22.0832 127.236 22.0441C127.868 22.005 128.416 22.2005 128.737 22.4189C129.065 22.6307 129.183 22.8458 129.13 22.9045Z" fill="#263238"/>
<path d="M119.178 23.7551C119.07 23.8854 118.319 23.4063 117.306 23.478C116.294 23.5334 115.582 24.1005 115.464 23.9864C115.405 23.9343 115.51 23.7062 115.818 23.452C116.12 23.1978 116.651 22.9338 117.28 22.8947C117.913 22.8556 118.46 23.0511 118.782 23.2695C119.109 23.4813 119.231 23.6964 119.178 23.7551Z" fill="#263238"/>
<path d="M123.358 30.9868C123.348 30.9314 123.97 30.7782 124.983 30.5826C125.239 30.5403 125.482 30.4718 125.514 30.2926C125.564 30.1036 125.436 29.8331 125.292 29.5397C125.006 28.9336 124.708 28.298 124.393 27.6299C123.141 24.9086 122.217 22.6664 122.328 22.6175C122.44 22.5686 123.541 24.7326 124.793 27.454C125.095 28.1253 125.383 28.7641 125.659 29.3768C125.777 29.6636 125.967 29.983 125.862 30.3773C125.806 30.5729 125.626 30.726 125.462 30.7814C125.298 30.8434 125.154 30.8564 125.026 30.8727C124.003 30.9965 123.367 31.0422 123.358 30.9868Z" fill="#263238"/>
<path d="M119.172 19.7859C119.09 20.0661 118.07 20.0042 116.89 20.2258C115.707 20.4246 114.769 20.8353 114.595 20.5974C114.517 20.4833 114.668 20.2161 115.038 19.9227C115.405 19.6327 116.002 19.3394 116.71 19.2123C117.418 19.0884 118.08 19.1569 118.526 19.3035C118.972 19.4534 119.208 19.6555 119.172 19.7859Z" fill="#263238"/>
<path d="M128.56 20.0108C128.396 20.2519 127.681 20.0596 126.842 20.1053C126 20.1216 125.301 20.3627 125.121 20.1346C125.042 20.0238 125.138 19.7859 125.436 19.548C125.728 19.3133 126.229 19.1015 126.806 19.0787C127.383 19.0591 127.898 19.2318 128.206 19.4469C128.52 19.6653 128.632 19.8934 128.56 20.0108Z" fill="#263238"/>
<path d="M108.672 27.9172C108.557 27.8748 104.05 26.8841 104.496 31.362C104.942 35.8367 109.819 34.3799 109.816 34.2495C109.809 34.1192 108.672 27.9172 108.672 27.9172Z" fill="#FFBE9D"/>
<path d="M107.82 32.7802C107.8 32.7671 107.748 32.8421 107.62 32.917C107.495 32.9887 107.279 33.0507 107.036 32.9855C106.545 32.8584 106.069 32.1479 105.968 31.3429C105.915 30.9355 105.965 30.5412 106.076 30.2055C106.181 29.8633 106.371 29.6156 106.607 29.5504C106.84 29.4722 107.023 29.5993 107.092 29.7199C107.164 29.8405 107.145 29.9317 107.171 29.935C107.184 29.9448 107.259 29.8503 107.207 29.6678C107.181 29.5798 107.115 29.482 107 29.4038C106.882 29.3256 106.722 29.2995 106.555 29.3321C106.21 29.3907 105.928 29.7395 105.804 30.1077C105.66 30.4793 105.597 30.9258 105.656 31.382C105.774 32.2815 106.322 33.08 106.994 33.2006C107.318 33.2527 107.574 33.1321 107.699 33.0115C107.823 32.8877 107.836 32.7867 107.82 32.7802Z" fill="#EB996E"/>
<path d="M129.999 13.4759C129.691 15.2586 126.056 16.8881 123.043 16.8034C120.267 16.7219 118.893 15.3531 116.874 14.3786C115.596 13.7627 115.596 13.7627 113.865 14.0429C112.462 14.2711 111.737 15.9136 110.951 17.0901C112.449 20.3394 111.842 24.1167 111.21 27.6364C111.141 28.0243 111.052 28.4447 110.754 28.7054C110.249 29.1486 109.426 28.8847 108.931 28.4317C108.135 27.7081 107.771 26.6294 107.512 25.5898C106.919 23.2172 106.689 20.7305 107.066 18.3123C107.443 15.8941 108.449 13.5476 110.111 11.742C112.186 9.48678 115.222 8.18642 118.293 8.02998C121.365 7.87355 124.449 8.81867 127.019 10.4938C128.209 11.2662 129.324 12.2276 129.999 13.4759Z" fill="#263238"/>
<path d="M124.023 33.2515C123.259 32.8962 122.492 32.541 121.729 32.189C121.597 32.1271 121.456 32.0652 121.312 32.0847C121.148 32.1075 121.02 32.2281 120.916 32.352C120.385 32.994 120.25 33.9587 120.66 34.6822C121.073 35.4057 122.04 35.787 122.814 35.4676C123.626 35.1319 124.023 34.1933 124.085 33.3199L124.023 33.2515Z" fill="#EB996E"/>
<path d="M122.886 35.631C122.892 35.6506 122.781 35.7158 122.551 35.7647C122.325 35.807 121.971 35.8266 121.565 35.693C121.161 35.5658 120.706 35.253 120.424 34.7511C120.139 34.2622 120.034 33.5746 120.283 32.9521C120.401 32.6425 120.588 32.3687 120.814 32.1536C120.929 32.0461 121.05 31.9548 121.188 31.8733C121.26 31.8342 121.348 31.7951 121.453 31.7886C121.555 31.7821 121.646 31.8082 121.719 31.8407C121.869 31.9059 121.964 31.9776 122.076 32.0428C122.184 32.108 122.286 32.1732 122.387 32.2351C122.584 32.3589 122.771 32.473 122.945 32.5838C123.626 33.014 124.033 33.2975 124.01 33.3399C123.987 33.379 123.535 33.1672 122.823 32.7924C122.643 32.6946 122.45 32.5903 122.243 32.4795C122.138 32.4209 122.03 32.3622 121.922 32.3035C121.814 32.2449 121.692 32.1699 121.597 32.1341C121.492 32.0982 121.447 32.1015 121.345 32.1569C121.243 32.2188 121.135 32.3035 121.043 32.3948C120.853 32.5806 120.699 32.8119 120.598 33.0759C120.388 33.6006 120.463 34.171 120.696 34.6044C120.925 35.0411 121.296 35.3279 121.643 35.4713C121.994 35.618 122.315 35.6375 122.532 35.6375C122.754 35.6278 122.876 35.6082 122.886 35.631Z" fill="#263238"/>
<path d="M122.161 25.3452C122.135 25.3485 122.164 24.9281 121.981 24.2111C121.8 23.5104 121.328 22.4773 120.266 21.6755C119.739 21.2845 119.076 20.9553 118.313 20.8217C117.555 20.6946 116.697 20.7174 115.884 21.027C115.474 21.1704 115.077 21.3822 114.717 21.6527C114.349 21.9167 114.015 22.2459 113.74 22.6272C113.173 23.38 112.851 24.3447 112.842 25.3387C112.851 26.3327 113.169 27.3007 113.74 28.0535C114.015 28.4348 114.349 28.764 114.717 29.0312C115.08 29.3017 115.474 29.5168 115.884 29.657C116.697 29.9666 117.555 29.9894 118.313 29.8623C119.076 29.7287 119.739 29.3995 120.266 29.0084C121.328 28.2099 121.8 27.1768 121.981 26.4729C122.164 25.7591 122.135 25.342 122.161 25.3452C122.164 25.3452 122.164 25.3713 122.164 25.4202C122.164 25.4821 122.161 25.5538 122.161 25.6418C122.161 25.7396 122.158 25.8602 122.131 26.0036C122.112 26.147 122.095 26.3099 122.043 26.4924C121.968 26.8574 121.8 27.2909 121.535 27.7537C121.266 28.2132 120.876 28.6955 120.338 29.1062C119.804 29.5136 119.126 29.859 118.339 30.0024C117.559 30.1393 116.674 30.1198 115.831 29.8069C115.405 29.6635 114.995 29.4419 114.618 29.1649C114.238 28.8911 113.891 28.5521 113.605 28.1578C113.015 27.3789 112.681 26.3784 112.671 25.3452C112.681 24.3121 113.015 23.3116 113.605 22.5327C113.891 22.1383 114.238 21.7994 114.618 21.5256C114.995 21.2486 115.405 21.027 115.831 20.8836C116.677 20.5675 117.559 20.5479 118.339 20.6881C119.126 20.8315 119.804 21.1802 120.338 21.5843C120.876 21.9949 121.266 22.4773 121.535 22.9368C121.8 23.3996 121.968 23.833 122.043 24.1981C122.095 24.3773 122.112 24.5435 122.131 24.6869C122.154 24.8303 122.161 24.9509 122.161 25.0487C122.161 25.1367 122.164 25.2116 122.164 25.2703C122.164 25.3192 122.164 25.3452 122.161 25.3452Z" fill="#263238"/>
<path d="M133.385 24.906C133.359 24.9092 133.388 24.4986 133.208 23.8011C133.031 23.1167 132.572 22.1097 131.536 21.334C131.025 20.9527 130.379 20.6301 129.635 20.503C128.897 20.3791 128.061 20.4019 127.268 20.705C126.868 20.8419 126.485 21.0505 126.131 21.3145C125.773 21.5719 125.449 21.8946 125.18 22.2661C124.626 22.9994 124.315 23.938 124.305 24.9092C124.315 25.8804 124.626 26.819 125.177 27.5523C125.446 27.9238 125.77 28.2432 126.127 28.504C126.481 28.7679 126.865 28.9765 127.265 29.1134C128.058 29.4132 128.891 29.4393 129.632 29.3155C130.376 29.1851 131.022 28.8624 131.533 28.4844C132.569 27.7055 133.028 26.7017 133.201 26.0173C133.388 25.3133 133.359 24.9027 133.385 24.906C133.392 24.906 133.392 25.007 133.388 25.196C133.388 25.2905 133.385 25.4111 133.362 25.548C133.342 25.6881 133.326 25.8478 133.277 26.0238C133.116 26.7213 132.667 27.7609 131.615 28.5724C131.094 28.97 130.431 29.3089 129.664 29.4458C128.904 29.5794 128.042 29.5599 127.219 29.2535C126.806 29.1134 126.406 28.8983 126.039 28.6245C125.669 28.3573 125.331 28.0281 125.052 27.6436C124.475 26.8842 124.151 25.9097 124.144 24.9027C124.154 23.8957 124.479 22.9212 125.056 22.1618C125.334 21.7773 125.672 21.4448 126.042 21.1809C126.409 20.9104 126.809 20.6953 127.222 20.5551C128.045 20.2488 128.907 20.2292 129.668 20.3628C130.435 20.503 131.097 20.8419 131.618 21.2363C132.67 22.0478 133.119 23.0841 133.28 23.7848C133.329 23.9608 133.349 24.1205 133.365 24.2607C133.388 24.3975 133.395 24.5181 133.392 24.6126C133.392 24.8049 133.392 24.906 133.385 24.906Z" fill="#263238"/>
<path d="M124.226 23.8755C124.206 23.8951 124.098 23.8038 123.902 23.7093C123.705 23.6148 123.41 23.5236 123.075 23.5301C122.744 23.5333 122.449 23.6376 122.256 23.7387C122.059 23.8397 121.958 23.9342 121.938 23.9179C121.922 23.9049 121.997 23.7745 122.194 23.6376C122.387 23.5007 122.702 23.3671 123.072 23.3606C123.439 23.3541 123.761 23.4747 123.961 23.605C124.157 23.7354 124.239 23.8625 124.226 23.8755Z" fill="#263238"/>
<path d="M113.042 24.6803C113.071 24.7194 112.15 25.4495 110.986 26.3099C109.823 27.1735 108.859 27.8416 108.829 27.8058C108.8 27.7667 109.721 27.0366 110.885 26.1762C112.048 25.3126 113.015 24.6412 113.042 24.6803Z" fill="#263238"/>
<g opacity="0.3">
<path opacity="0.3" d="M109.164 45.8906C108.708 50.3132 110.4 54.9834 113.966 57.6623C114.245 57.8742 114.599 58.0795 114.927 57.9622C115.156 57.8807 115.304 57.6623 115.425 57.4505C116.441 55.7004 116.782 53.7678 116.49 51.7667C115.926 53.2463 115.441 54.6966 114.871 56.2446C111.76 54.3707 109.823 50.3816 109.164 45.8906Z" fill="black"/>
</g>
<path opacity="0.3" d="M121.244 55.9472L123.863 54.9956L124.295 59.3986C124.295 59.3986 127.121 54.2786 128.291 51.9419C129.462 49.6051 128.858 45.4824 128.858 45.4824C128.858 45.4824 129.278 49.0739 126.446 53.6529L124.309 57.1075V53.4899L121.244 55.9472Z" fill="black"/>
<g opacity="0.3">
<path opacity="0.3" d="M90.784 78.3244C89.617 77.7769 88.273 77.7019 86.9913 77.8518C85.6375 78.0083 84.2771 78.4222 83.215 79.2728C82.153 80.1234 81.4351 81.4661 81.5662 82.8154L81.6973 82.8349C82.6119 80.3776 84.4279 78.5884 86.7717 78.37C89.1155 78.1549 91.4002 79.1913 93.0097 80.8991C92.8524 79.6215 91.9542 78.8719 90.784 78.3244Z" fill="black"/>
</g>
<g opacity="0.3">
<path opacity="0.3" d="M156.997 80.8375C156.118 79.8956 154.886 79.3253 153.614 79.1037C151.382 78.7158 148.985 79.4068 147.304 80.919L147.802 80.5148C149.071 79.775 150.533 79.3383 152.004 79.3807C153.473 79.4231 154.945 79.9641 156.01 80.9711C156.99 81.8967 157.577 83.1514 158.138 84.3736C158.36 83.1123 157.875 81.7794 156.997 80.8375Z" fill="black"/>
</g>
<path d="M140.118 60.3896C140.108 60.3864 140.151 60.2592 140.236 60.0344C140.338 59.7769 140.462 59.4608 140.61 59.086C140.928 58.2875 141.36 57.1827 141.823 55.9573C142.282 54.7286 142.678 53.6108 142.963 52.7993C143.098 52.4212 143.213 52.1019 143.304 51.8411C143.386 51.6163 143.439 51.4924 143.449 51.4957C143.458 51.4989 143.429 51.6293 143.367 51.8607C143.304 52.0921 143.206 52.4278 143.078 52.8384C142.822 53.6597 142.442 54.7873 141.983 56.016C141.524 57.2446 141.069 58.3429 140.725 59.1316C140.551 59.526 140.407 59.8421 140.302 60.0605C140.193 60.2756 140.128 60.3961 140.118 60.3896Z" fill="#263238"/>
<path d="M98.7924 60.7099C98.7465 60.7197 98.3892 59.1684 97.9958 57.2455C97.6025 55.3227 97.3206 53.7584 97.3665 53.7486C97.4124 53.7388 97.7697 55.2901 98.163 57.2129C98.5564 59.1358 98.8383 60.7001 98.7924 60.7099Z" fill="#263238"/>
<path d="M98.1731 80.0975C98.278 80.1497 96.9734 69.9423 96.9734 69.9423C96.9734 69.9423 97.7962 62.1955 98.2584 61.837L98.2715 59.1027C98.2715 59.1027 99.5466 58.3335 99.8875 59.5752C99.8875 59.5752 101.018 58.6008 101.215 60.9212C101.412 63.2449 101.454 65.6175 101.454 65.6175L103.969 71.8684L104.382 72.077C104.382 72.077 104.923 67.1786 105.237 66.4584C105.552 65.7381 105.768 63.9848 106.958 64.2487C108.151 64.5127 108.25 65.4937 108.037 67.0906C107.824 68.6876 107.555 70.3366 107.656 71.3698C107.755 72.4029 108.227 74.6745 108.083 76.4767C107.938 78.2822 106.945 80.1855 105.899 81.5217C104.857 82.8579 102.864 85.6216 101.779 86.4559C101.399 86.7493 98.1731 80.0975 98.1731 80.0975Z" fill="#FFBE9D"/>
<path d="M99.4447 71.7904C99.4316 71.7904 99.4349 71.6339 99.4513 71.3537C99.4742 71.0408 99.5004 70.6432 99.5332 70.1674C99.6086 69.1668 99.7266 67.785 99.8676 66.2598C99.9397 65.5004 100.009 64.7736 100.071 64.112C100.104 63.7829 100.123 63.4733 100.081 63.1897C100.041 62.9062 99.9298 62.6618 99.7659 62.4858C99.4349 62.1273 99.0054 62.036 98.7399 62.0393C98.4613 62.036 98.3171 62.111 98.3105 62.0947C98.3072 62.0882 98.3433 62.0719 98.4121 62.0425C98.4842 62.0165 98.5924 61.9839 98.7366 61.9741C99.0185 61.9546 99.4775 62.0262 99.8544 62.4076C100.041 62.5966 100.172 62.8703 100.218 63.1702C100.271 63.4733 100.251 63.7959 100.225 64.1283C100.166 64.7932 100.1 65.5167 100.035 66.2793C99.8938 67.8045 99.7561 69.1831 99.6512 70.1804C99.5955 70.653 99.5496 71.0506 99.5135 71.3602C99.4807 71.6372 99.4545 71.7904 99.4447 71.7904Z" fill="#EB996E"/>
<path d="M100.796 67.6153C100.822 67.6349 100.54 67.8793 100.35 68.4203C100.147 68.9515 100.074 69.7533 99.9302 70.6234C99.7958 71.4969 99.6614 72.2856 99.5598 72.8526C99.4549 73.423 99.3795 73.7717 99.3566 73.7684C99.3336 73.7652 99.3664 73.4067 99.4418 72.8331C99.5139 72.2595 99.6286 71.4675 99.763 70.5941C99.904 69.7272 99.9958 68.9222 100.238 68.3714C100.353 68.0977 100.491 67.8989 100.602 67.775C100.71 67.6577 100.789 67.6088 100.796 67.6153Z" fill="#EB996E"/>
<path d="M99.871 59.442C99.8841 59.4387 99.9136 59.5528 99.9595 59.7646C100.005 59.9732 100.061 60.2763 100.123 60.6543C100.248 61.4072 100.386 62.4533 100.474 63.6168C100.559 64.7803 100.579 65.8362 100.566 66.5988C100.559 66.9802 100.55 67.2898 100.533 67.5016C100.52 67.7134 100.507 67.8308 100.494 67.8308C100.468 67.8308 100.464 67.3582 100.445 66.5988C100.425 65.8362 100.389 64.7868 100.304 63.6298C100.218 62.4729 100.1 61.4267 100.005 60.6706C99.9103 59.9113 99.848 59.4452 99.871 59.442Z" fill="#EB996E"/>
<path d="M107.125 69.0102C107.151 69.0493 106.758 69.2285 106.279 69.0819C105.797 68.9385 105.575 68.5702 105.617 68.5539C105.657 68.5213 105.906 68.7983 106.329 68.9222C106.748 69.0526 107.112 68.9613 107.125 69.0102Z" fill="#EB996E"/>
<path d="M98.314 78.8267L91.6694 81.6034H87.7096C87.7096 81.6034 83.7957 82.819 83.1925 86.4659C82.5894 90.116 82.5041 91.9932 84.2251 92.443C85.946 92.8927 90.8073 92.9449 93.2167 92.1497C95.626 91.3545 101.939 86.2899 101.939 86.2899L102.549 82.6267L98.314 78.8267Z" fill="#FFBE9D"/>
<path d="M99.8712 82.8609C99.8614 82.8675 99.7958 82.8088 99.6811 82.6882C99.5631 82.5741 99.4188 82.3851 99.2484 82.1439C98.9206 81.6551 98.56 80.9153 98.3207 80.0549C98.0716 79.1945 97.9667 78.3895 97.9109 77.8094C97.8618 77.2293 97.8618 76.8675 97.8847 76.8643C97.9109 76.861 97.9503 77.2195 98.029 77.7931C98.1142 78.3667 98.2387 79.1586 98.4813 80.006C98.7173 80.8566 99.0517 81.5834 99.3467 82.0788C99.6516 82.5709 99.8941 82.8381 99.8712 82.8609Z" fill="#EB996E"/>
<path d="M102.765 84.0181C102.729 84.005 103.027 83.5031 103.142 82.6004C103.198 82.1539 103.191 81.6096 103.064 81.0263C102.936 80.4429 102.657 79.8432 102.251 79.2827C101.847 78.7188 101.392 78.23 101.012 77.7574C100.625 77.2849 100.317 76.8253 100.113 76.4082C99.9101 75.991 99.815 75.6227 99.779 75.3653C99.7462 75.1078 99.7593 74.9644 99.7691 74.9644C99.8019 74.9579 99.7921 75.5478 100.222 76.3528C100.431 76.7536 100.746 77.1969 101.133 77.6564C101.52 78.1192 101.979 78.608 102.392 79.1816C102.808 79.752 103.1 80.3842 103.221 80.9871C103.345 81.5901 103.336 82.1539 103.263 82.6102C103.191 83.0697 103.064 83.4249 102.959 83.6596C102.909 83.7769 102.86 83.8649 102.824 83.9236C102.788 83.992 102.769 84.0213 102.765 84.0181Z" fill="#EB996E"/>
<path d="M92.5214 68.1136C92.4788 68.1364 91.7544 66.823 90.9021 65.1837C90.0498 63.5444 89.3942 62.1984 89.4336 62.1756C89.4762 62.1528 90.2006 63.4662 91.0529 65.1055C91.9052 66.7448 92.5641 68.0908 92.5214 68.1136Z" fill="white"/>
<path d="M103.266 56.2211C103.224 56.2016 103.673 55.1098 104.266 53.7801C104.863 52.4504 105.381 51.3879 105.423 51.4075C105.466 51.427 105.017 52.5188 104.424 53.8485C103.827 55.1782 103.309 56.2407 103.266 56.2211Z" fill="white"/>
<path d="M113.789 63.9387C113.753 63.968 113.078 63.2184 112.284 62.2635C111.488 61.3086 110.875 60.5101 110.911 60.4808C110.947 60.4515 111.622 61.2011 112.416 62.156C113.209 63.1109 113.825 63.9093 113.789 63.9387Z" fill="white"/>
<path d="M111.367 74.5538C111.327 74.5277 111.835 73.7651 112.501 72.8525C113.166 71.94 113.737 71.223 113.773 71.2523C113.812 71.2784 113.304 72.041 112.639 72.9536C111.976 73.8661 111.406 74.5831 111.367 74.5538Z" fill="white"/>
<path d="M108.108 89.548C108.089 89.5578 107.938 89.3101 107.725 88.893C107.508 88.4758 107.23 87.8924 106.951 87.2374C106.669 86.579 106.443 85.9761 106.289 85.5329C106.138 85.0897 106.06 84.8094 106.083 84.8029C106.105 84.7963 106.223 85.0603 106.404 85.4905C106.61 85.9794 106.846 86.5465 107.109 87.1722C107.377 87.7947 107.623 88.3552 107.836 88.8441C108.02 89.2678 108.131 89.535 108.108 89.548Z" fill="white"/>
<path d="M117.366 83.1736C117.356 83.2192 116.464 83.0856 115.376 82.877C114.284 82.6684 113.409 82.4598 113.419 82.4142C113.429 82.3686 114.32 82.5022 115.409 82.7108C116.5 82.9194 117.375 83.1279 117.366 83.1736Z" fill="white"/>
<path d="M124.547 69.1635C124.511 69.1309 125.364 68.1662 126.445 67.0028C127.527 65.8425 128.435 64.9267 128.468 64.9593C128.504 64.9919 127.652 65.9566 126.57 67.1201C125.485 68.2803 124.58 69.1961 124.547 69.1635Z" fill="white"/>
<path d="M131.769 87.8472C131.733 87.8766 130.674 86.6577 129.402 85.1227C128.13 83.5877 127.131 82.3199 127.167 82.2906C127.203 82.2612 128.262 83.4801 129.533 85.0151C130.805 86.5501 131.805 87.8179 131.769 87.8472Z" fill="white"/>
<path d="M86.9324 79.8853C86.9553 79.9309 85.9883 80.4198 84.9328 81.2247C83.874 82.0232 83.143 82.825 83.1037 82.7891C83.0873 82.7761 83.2479 82.5577 83.5495 82.2351C83.8478 81.9157 84.2936 81.4985 84.8279 81.0911C85.3622 80.687 85.8867 80.3709 86.2768 80.1655C86.6669 79.9635 86.9226 79.8657 86.9324 79.8853Z" fill="white"/>
<path d="M89.6337 72.683C89.673 72.7091 89.3288 73.2925 88.8633 73.9867C88.3978 74.6808 87.9914 75.2218 87.952 75.1958C87.9127 75.1697 88.2569 74.5863 88.7224 73.8921C89.1846 73.198 89.5943 72.657 89.6337 72.683Z" fill="white"/>
<path d="M95.7174 79.7553C95.6814 79.7781 95.3372 79.2077 95.1602 78.4158C94.9766 77.6271 95.0389 76.9655 95.0815 76.9688C95.1339 76.9688 95.1503 77.6108 95.3273 78.3767C95.4978 79.1458 95.7633 79.7324 95.7174 79.7553Z" fill="white"/>
<path d="M96.619 57.2937C96.6255 57.3393 96.0617 57.4599 95.3569 57.5577C94.6521 57.6587 94.0752 57.7011 94.0687 57.6554C94.0621 57.6098 94.6259 57.4892 95.3307 57.3915C96.0355 57.2904 96.6124 57.2481 96.619 57.2937Z" fill="white"/>
<path d="M101.188 49.234C101.211 49.2764 100.716 49.5925 100.084 49.9413C99.4511 50.29 98.9168 50.5409 98.8938 50.4985C98.8709 50.4562 99.3659 50.1401 99.9985 49.7913C100.634 49.4426 101.166 49.1949 101.188 49.234Z" fill="white"/>
<path d="M114.042 52.639C114.006 52.6684 113.438 51.9905 112.776 51.1268C112.114 50.2632 111.609 49.5429 111.649 49.5136C111.685 49.4843 112.252 50.1622 112.914 51.0258C113.573 51.8862 114.081 52.6097 114.042 52.639Z" fill="white"/>
<path d="M130.356 60.7419C130.324 60.7712 129.727 60.1618 129.176 59.2753C128.619 58.3889 128.334 57.5904 128.373 57.5741C128.419 57.5545 128.773 58.3139 129.321 59.1873C129.868 60.0608 130.396 60.7093 130.356 60.7419Z" fill="white"/>
<path d="M136.584 62.7816C136.627 62.8012 136.325 63.5573 135.909 64.4666C135.493 65.3791 135.122 66.1026 135.077 66.083C135.034 66.0635 135.335 65.3074 135.752 64.3981C136.168 63.4856 136.542 62.7621 136.584 62.7816Z" fill="white"/>
<path d="M137.456 54.3316C137.42 54.3609 136.679 53.5364 135.801 52.487C134.922 51.4375 134.24 50.5609 134.277 50.5315C134.313 50.5022 135.053 51.3267 135.932 52.3761C136.807 53.4288 137.492 54.3022 137.456 54.3316Z" fill="white"/>
<path d="M127.944 47.4676C127.898 47.4709 127.829 46.7637 127.796 45.887C127.76 45.0136 127.773 44.3031 127.819 44.2998C127.865 44.2966 127.934 45.0038 127.967 45.8805C128.003 46.7571 127.993 47.4676 127.944 47.4676Z" fill="white"/>
<path d="M135.699 47.041C135.706 47.0866 134.798 47.2463 133.677 47.3962C132.553 47.5461 131.638 47.6276 131.631 47.582C131.625 47.5363 132.53 47.3767 133.654 47.2267C134.775 47.0768 135.693 46.9953 135.699 47.041Z" fill="white"/>
<path d="M147.913 55.9606C147.871 55.9801 147.326 54.947 146.694 53.6532C146.064 52.3593 145.586 51.2903 145.628 51.2708C145.671 51.2512 146.215 52.2843 146.848 53.5782C147.477 54.872 147.956 55.941 147.913 55.9606Z" fill="white"/>
<path d="M145.855 63.6685C145.809 63.6587 145.936 62.8277 146.14 61.8141C146.343 60.7973 146.546 59.9825 146.592 59.9923C146.638 60.0021 146.51 60.8331 146.307 61.8467C146.104 62.8602 145.904 63.6783 145.855 63.6685Z" fill="white"/>
<path d="M151.522 69.7435C151.476 69.7598 151.044 68.6386 150.549 67.2405C150.057 65.8424 149.693 64.6952 149.739 64.6789C149.785 64.6626 150.218 65.7837 150.713 67.1818C151.204 68.5832 151.565 69.7272 151.522 69.7435Z" fill="white"/>
<path d="M150.732 73.2989C150.722 73.3412 149.939 73.1783 149.077 72.709C148.211 72.2462 147.644 71.6824 147.677 71.6531C147.71 71.6139 148.313 72.1093 149.159 72.5623C149.998 73.0153 150.749 73.25 150.732 73.2989Z" fill="white"/>
<path d="M157.99 81.4012C157.947 81.4207 157.685 80.9254 157.403 80.2964C157.121 79.6674 156.928 79.1427 156.97 79.1231C157.013 79.1036 157.275 79.5989 157.557 80.2279C157.839 80.8569 158.032 81.3816 157.99 81.4012Z" fill="white"/>
<path d="M115.126 92.7035C115.08 92.71 114.966 92.0615 114.871 91.2597C114.776 90.458 114.74 89.803 114.785 89.7964C114.831 89.7899 114.946 90.4385 115.041 91.2402C115.136 92.0419 115.172 92.697 115.126 92.7035Z" fill="white"/>
<path d="M137.394 92.1426C137.348 92.1328 137.443 91.5005 137.607 90.7314C137.771 89.9623 137.942 89.3463 137.987 89.3561C138.033 89.3658 137.938 89.9981 137.774 90.7673C137.61 91.5364 137.44 92.1524 137.394 92.1426Z" fill="white"/>
<path d="M141.662 27.5195L144.54 22.4745C143.265 20.418 142.531 17.9998 142.531 15.4088C142.531 7.95537 148.608 1.91309 156.105 1.91309C163.602 1.91309 169.679 7.95537 169.679 15.4088C169.679 22.8623 163.602 28.9046 156.105 28.9046C152.975 28.9046 150.093 27.8486 147.799 26.079L147.802 26.0855L141.662 27.5195Z" fill="#FAFAFA"/>
<path d="M141.662 27.5194C141.954 27.4542 143.898 27.011 147.812 26.1213L147.874 26.1083L147.835 26.0561L147.832 26.0496L147.773 26.1083C148.546 26.7047 149.474 27.2913 150.565 27.7834C151.657 28.2658 152.909 28.6568 154.289 28.8393C154.978 28.9273 155.699 28.9827 156.44 28.9469C156.81 28.9273 157.187 28.9176 157.567 28.885C157.944 28.8296 158.328 28.7709 158.715 28.7122C160.252 28.4092 161.822 27.829 163.291 26.9263C164.756 26.0235 166.113 24.8014 167.201 23.299C168.286 21.7965 169.109 20.0171 169.496 18.0845C169.876 16.1519 169.847 14.0824 169.335 12.078C168.821 10.0802 167.86 8.13132 166.424 6.52787L165.87 5.92168C165.687 5.71636 165.471 5.55015 165.274 5.36113C165.067 5.18514 164.88 4.98308 164.658 4.82664L164.005 4.34104C163.795 4.17157 163.563 4.03469 163.33 3.89781C163.101 3.75767 162.871 3.62079 162.642 3.48065C162.399 3.36333 162.16 3.24926 161.92 3.13194C161.678 3.02113 161.445 2.89077 161.193 2.80929C159.219 2.03038 157.118 1.7338 155.105 1.88046C153.093 2.02386 151.169 2.59745 149.52 3.52302C147.864 4.43881 146.468 5.66422 145.389 7.02976C144.308 8.39856 143.547 9.90425 143.075 11.4067C142.606 12.9156 142.479 14.4115 142.485 15.7966C142.524 17.185 142.78 18.4658 143.151 19.5869C143.521 20.7113 144.009 21.6792 144.511 22.4907V22.4516C142.692 25.6911 141.803 27.2717 141.662 27.5194C141.807 27.2717 142.715 25.7041 144.576 22.494L144.59 22.4744L144.576 22.4549C144.082 21.6434 143.603 20.6787 143.239 19.5608C142.878 18.443 142.629 17.1752 142.597 15.7966C142.597 14.4213 142.728 12.9417 143.196 11.449C143.668 9.96291 144.426 8.47352 145.498 7.12102C146.566 5.77177 147.95 4.56266 149.589 3.6599C151.221 2.74737 153.126 2.18355 155.112 2.04341C157.098 1.90327 159.177 2.19659 161.124 2.96572C161.373 3.04394 161.602 3.1743 161.842 3.28511C162.078 3.39918 162.317 3.51324 162.553 3.63057C162.779 3.76745 163.005 3.90433 163.235 4.04121C163.464 4.17809 163.694 4.31171 163.9 4.48118L164.543 4.96026C164.762 5.11344 164.946 5.31224 165.149 5.48823C165.343 5.674 165.559 5.84021 165.739 6.04227L166.287 6.64193C167.706 8.22583 168.653 10.1519 169.162 12.1237C169.666 14.1019 169.699 16.1486 169.325 18.0584C168.945 19.9682 168.136 21.7313 167.064 23.2142C165.992 24.7036 164.651 25.916 163.202 26.809C161.753 27.7085 160.199 28.2853 158.678 28.5884C158.295 28.6471 157.915 28.7057 157.544 28.7611C157.167 28.7937 156.794 28.8035 156.43 28.8263C155.696 28.8654 154.981 28.81 154.299 28.7253C152.929 28.5493 151.686 28.1647 150.601 27.6922C149.516 27.2098 148.592 26.633 147.818 26.0463L147.566 25.8541L147.759 26.105L147.763 26.1115L147.786 26.0463C143.891 26.9817 141.954 27.451 141.662 27.5194Z" fill="#263238"/>
<path d="M159.77 14.8448C159.77 15.5716 160.364 16.1647 161.098 16.1647C161.832 16.1647 162.425 15.5748 162.425 14.8448C162.425 14.1181 161.832 13.5249 161.098 13.5249C160.364 13.5249 159.77 14.1181 159.77 14.8448Z" fill="#263238"/>
<path d="M154.463 14.8448C154.463 15.5716 155.056 16.1647 155.79 16.1647C156.525 16.1647 157.118 15.5748 157.118 14.8448C157.118 14.1181 156.525 13.5249 155.79 13.5249C155.056 13.5249 154.463 14.1181 154.463 14.8448Z" fill="#263238"/>
<path d="M149.169 14.1884C148.802 14.8206 149.021 15.6256 149.654 15.9906C150.29 16.3556 151.1 16.1373 151.467 15.5083C151.834 14.876 151.614 14.071 150.982 13.706C150.346 13.341 149.533 13.5561 149.169 14.1884Z" fill="#263238"/>
</g>
<defs>
<clipPath id="clip0_129_1371">
<rect width="237" height="117" fill="white"/>
</clipPath>
</defs>
</svg>
