<svg width="17" height="17" viewBox="0 0 17 17" fill="none" xmlns="http://www.w3.org/2000/svg">
<g clip-path="url(#clip0_129_945)">
<path d="M12.7493 0.00353709L10.5448 0C8.06814 0 6.4676 1.64209 6.4676 4.18367V6.11262H4.25109C4.05956 6.11262 3.90445 6.26789 3.90445 6.45943V9.25426C3.90445 9.44579 4.05973 9.60089 4.25109 9.60089H6.4676V16.6531C6.4676 16.8447 6.6227 16.9998 6.81424 16.9998H9.70616C9.89769 16.9998 10.0528 16.8445 10.0528 16.6531V9.60089H12.6444C12.836 9.60089 12.9911 9.44579 12.9911 9.25426L12.9921 6.45943C12.9921 6.36746 12.9555 6.27939 12.8906 6.21431C12.8257 6.14922 12.7373 6.11262 12.6453 6.11262H10.0528V4.47742C10.0528 3.69148 10.2401 3.2925 11.2639 3.2925L12.7489 3.29197C12.9403 3.29197 13.0954 3.13669 13.0954 2.94533V0.350172C13.0954 0.158992 12.9405 0.00389079 12.7493 0.00353709Z" fill="#0A033C"/>
</g>
<defs>
<clipPath id="clip0_129_945">
<rect width="16.9116" height="16.9114" fill="white" transform="scale(1.00523)"/>
</clipPath>
</defs>
</svg>
