<svg width="24" height="24" viewBox="0 0 24 24" fill="none" xmlns="http://www.w3.org/2000/svg">
<path d="M8.46026 11.2895L14.1203 5.63955C14.2132 5.54582 14.3238 5.47143 14.4457 5.42066C14.5675 5.36989 14.6983 5.34375 14.8303 5.34375C14.9623 5.34375 15.093 5.36989 15.2148 5.42066C15.3367 5.47143 15.4473 5.54582 15.5403 5.63955C15.7265 5.82691 15.8311 6.08036 15.8311 6.34455C15.8311 6.60873 15.7265 6.86219 15.5403 7.04955L10.5903 12.0495L15.5403 16.9995C15.7265 17.1869 15.8311 17.4404 15.8311 17.7045C15.8311 17.9687 15.7265 18.2222 15.5403 18.4095C15.4476 18.504 15.3372 18.5792 15.2153 18.6307C15.0935 18.6822 14.9626 18.709 14.8303 18.7095C14.698 18.709 14.5671 18.6822 14.4452 18.6307C14.3233 18.5792 14.2129 18.504 14.1203 18.4095L8.46026 12.7595C8.35876 12.6659 8.27775 12.5523 8.22234 12.4258C8.16693 12.2993 8.13833 12.1627 8.13833 12.0245C8.13833 11.8864 8.16693 11.7498 8.22234 11.6233C8.27775 11.4968 8.35876 11.3832 8.46026 11.2895Z" fill="#D97356"/>
</svg>
