<svg width="22" height="18" viewBox="0 0 22 18" fill="none" xmlns="http://www.w3.org/2000/svg">
<g clip-path="url(#clip0_131_224)">
<path d="M6.94644 17.5282C15.1935 17.5282 19.7035 10.8131 19.7035 4.98998C19.7035 4.79925 19.6996 4.60938 19.6908 4.42037C20.5663 3.79835 21.3272 3.02212 21.9274 2.13848C21.124 2.48944 20.2595 2.7257 19.3526 2.83224C20.2782 2.28668 20.9889 1.42367 21.3242 0.394874C20.4579 0.899623 19.4986 1.26648 18.4771 1.46454C17.6589 0.608001 16.4941 0.0722656 15.2043 0.0722656C12.7283 0.0722656 10.7204 2.04575 10.7204 4.47836C10.7204 4.82416 10.7598 5.16052 10.8367 5.48315C7.11025 5.29887 3.80592 3.54534 1.59448 0.879001C1.20943 1.53023 0.987394 2.2867 0.987394 3.09387C0.987394 4.62273 1.77895 5.9724 2.98265 6.76198C2.24704 6.73965 1.55602 6.54118 0.952048 6.21084C0.951388 6.22933 0.951385 6.24735 0.951385 6.26711C0.951385 8.40126 2.49689 10.1831 4.54846 10.5869C4.1717 10.6878 3.77531 10.7419 3.36618 10.7419C3.07772 10.7419 2.79667 10.714 2.5235 10.6625C3.09432 12.4134 4.74954 13.6875 6.71194 13.7231C5.17736 14.9053 3.24423 15.6094 1.14323 15.6094C0.781767 15.6094 0.424682 15.5892 0.0737305 15.5484C2.05806 16.7985 4.41426 17.5279 6.94668 17.5279" fill="black"/>
</g>
<defs>
<clipPath id="clip0_131_224">
<rect width="22" height="17.6" fill="white"/>
</clipPath>
</defs>
</svg>
