<svg width="20" height="20" viewBox="0 0 20 20" fill="none" xmlns="http://www.w3.org/2000/svg">
<path d="M15.8335 5.83366H13.3335V5.00033C13.3335 4.11627 12.9823 3.26842 12.3572 2.6433C11.7321 2.01818 10.8842 1.66699 10.0002 1.66699C9.11611 1.66699 8.26826 2.01818 7.64314 2.6433C7.01802 3.26842 6.66683 4.11627 6.66683 5.00033V5.83366H4.16683C3.94582 5.83366 3.73385 5.92146 3.57757 6.07774C3.42129 6.23402 3.3335 6.44598 3.3335 6.66699V15.8337C3.3335 16.4967 3.59689 17.1326 4.06573 17.6014C4.53457 18.0703 5.17045 18.3337 5.8335 18.3337H14.1668C14.8299 18.3337 15.4658 18.0703 15.9346 17.6014C16.4034 17.1326 16.6668 16.4967 16.6668 15.8337V6.66699C16.6668 6.44598 16.579 6.23402 16.4228 6.07774C16.2665 5.92146 16.0545 5.83366 15.8335 5.83366ZM8.3335 5.00033C8.3335 4.5583 8.50909 4.13437 8.82165 3.82181C9.13421 3.50925 9.55813 3.33366 10.0002 3.33366C10.4422 3.33366 10.8661 3.50925 11.1787 3.82181C11.4912 4.13437 11.6668 4.5583 11.6668 5.00033V5.83366H8.3335V5.00033ZM15.0002 15.8337C15.0002 16.0547 14.9124 16.2666 14.7561 16.4229C14.5998 16.5792 14.3878 16.667 14.1668 16.667H5.8335C5.61248 16.667 5.40052 16.5792 5.24424 16.4229C5.08796 16.2666 5.00016 16.0547 5.00016 15.8337V7.50033H6.66683V8.33366C6.66683 8.55467 6.75463 8.76663 6.91091 8.92291C7.06719 9.0792 7.27915 9.16699 7.50016 9.16699C7.72118 9.16699 7.93314 9.0792 8.08942 8.92291C8.2457 8.76663 8.3335 8.55467 8.3335 8.33366V7.50033H11.6668V8.33366C11.6668 8.55467 11.7546 8.76663 11.9109 8.92291C12.0672 9.0792 12.2791 9.16699 12.5002 9.16699C12.7212 9.16699 12.9331 9.0792 13.0894 8.92291C13.2457 8.76663 13.3335 8.55467 13.3335 8.33366V7.50033H15.0002V15.8337Z" fill="#D97356"/>
</svg>
