<svg width="179" height="179" viewBox="0 0 179 179" fill="none" xmlns="http://www.w3.org/2000/svg">
<g filter="url(#filter0_d_129_4310)">
<rect x="70.079" y="45.0508" width="38.842" height="38.842" rx="10" fill="white"/>
</g>
<g clip-path="url(#clip0_129_4310)">
<path d="M90.2613 75.0802C89.7424 75.0802 89.4329 74.5661 89.5929 74.1258L92.64 65.746C92.7743 65.3769 93.1825 65.1865 93.5516 65.3206C93.9208 65.4549 94.1112 65.8631 93.9769 66.2322L90.9298 74.6118C90.8246 74.9007 90.5519 75.0802 90.2613 75.0802Z" fill="#3AB4FB"/>
<path d="M97.8795 75.0802C97.5898 75.0802 97.3176 74.9018 97.2118 74.614L94.1341 66.2342C93.9987 65.8655 94.188 65.4569 94.5566 65.3215C94.9252 65.1859 95.3339 65.3752 95.4693 65.7438L98.547 74.1236C98.7204 74.5955 98.3648 75.0802 97.8795 75.0802Z" fill="#1D9CFD"/>
<path d="M99.4033 53.8507H88.7378C87.5037 53.8507 86.5032 54.8512 86.5032 56.0853V64.4655C86.5032 65.6995 87.5037 66.7001 88.7378 66.7001H99.4033C100.637 66.7001 101.638 65.6995 101.638 64.4655V56.0853C101.638 54.8512 100.637 53.8507 99.4033 53.8507Z" fill="#EFF6FE"/>
<path d="M99.4032 53.8507H93.977V66.7001H99.4032C100.637 66.7001 101.638 65.6995 101.638 64.4655V56.0853C101.638 54.8512 100.637 53.8507 99.4032 53.8507Z" fill="#D9E4EF"/>
<path d="M84.9795 58.3711C84.9795 60.0819 83.5926 61.4688 81.8818 61.4688C80.1709 61.4688 78.7841 60.0819 78.7841 58.3711C78.7841 56.6601 80.1709 55.2732 81.8818 55.2732C83.5926 55.2732 84.9795 56.6601 84.9795 58.3711Z" fill="#FFCFBE"/>
<path d="M88.8009 65.8636C88.4496 65.6878 88.3073 65.2607 88.4829 64.9094L90.3875 61.1003C90.5632 60.7489 90.9905 60.6067 91.3417 60.7823C91.693 60.9581 91.8353 61.3852 91.6597 61.7365L89.7552 65.5454C89.5792 65.8973 89.1517 66.039 88.8009 65.8636Z" fill="#FFB826"/>
<path d="M84.9796 58.3713C84.9796 60.0821 83.5927 61.469 81.8813 61.469V55.2732C83.5927 55.2732 84.9796 56.6601 84.9796 58.3713Z" fill="#F9BCAA"/>
<path d="M97.8793 57.9392H90.2613C89.8685 57.9392 89.5501 57.6207 89.5501 57.228C89.5501 56.8352 89.8685 56.5168 90.2613 56.5168H97.8793C98.272 56.5168 98.5906 56.8352 98.5906 57.228C98.5906 57.6207 98.2722 57.9392 97.8793 57.9392Z" fill="#3AB4FB"/>
<path d="M97.8794 60.9866H94.6882C94.2953 60.9866 93.977 60.6682 93.977 60.2754C93.977 59.8826 94.2953 59.5642 94.6882 59.5642H97.8794C98.2722 59.5642 98.5906 59.8826 98.5906 60.2754C98.5906 60.6682 98.2722 60.9866 97.8794 60.9866Z" fill="#1D9CFD"/>
<path d="M97.8794 64.033H94.6882C94.2953 64.033 93.977 63.7144 93.977 63.3218C93.977 62.929 94.2953 62.6106 94.6882 62.6106H97.8794C98.2722 62.6106 98.5906 62.929 98.5906 63.3218C98.5906 63.7144 98.2722 64.033 97.8794 64.033Z" fill="#1D9CFD"/>
<path d="M97.8794 56.5168H93.977V57.9392H97.8794C98.2722 57.9392 98.5906 57.6207 98.5906 57.228C98.5906 56.8352 98.2722 56.5168 97.8794 56.5168Z" fill="#1D9CFD"/>
<path d="M84.167 75.0798H79.5964C79.2035 75.0798 78.8851 74.7614 78.8851 74.3686V70.393C78.0004 70.0953 77.3616 69.258 77.3616 68.2741V65.9888C77.3616 64.7795 77.8322 63.6442 78.6866 62.792C79.5249 61.9515 80.6899 61.4687 81.8819 61.4687H82.5103C83.7579 61.4687 84.4891 61.9256 85.5139 62.4351C86.6424 62.9963 88.0504 63.6964 88.9483 64.1437C89.7768 64.5554 90.1735 65.5209 89.8753 66.395C89.8744 66.3977 89.8735 66.4005 89.8725 66.4033C89.6931 66.9341 89.2908 67.3618 88.7687 67.5766C88.2449 67.7898 87.6579 67.7672 87.1553 67.5159C86.4385 67.1573 85.5526 66.7145 84.8785 66.3776V74.3686C84.8783 74.7614 84.5599 75.0798 84.167 75.0798Z" fill="#FF7579"/>
<path d="M88.9481 64.1437C88.0502 63.6964 86.6422 62.9963 85.5135 62.4351C84.4889 61.9256 83.7577 61.4687 82.5101 61.4687H81.8815C81.8815 61.4687 81.8815 61.4687 81.8813 61.4687V75.0798H84.1668C84.5597 75.0798 84.8781 74.7614 84.8781 74.3686V66.3776C85.5524 66.7145 86.4383 67.1573 87.1551 67.5159C87.6576 67.7672 88.2447 67.7896 88.7683 67.5766C89.2904 67.3618 89.6929 66.9341 89.8723 66.4031C89.8733 66.4003 89.8742 66.3976 89.8751 66.3948C90.1733 65.5209 89.7766 64.5554 88.9481 64.1437Z" fill="#FE4A60"/>
</g>
<defs>
<filter id="filter0_d_129_4310" x="0" y="0" width="179" height="179" filterUnits="userSpaceOnUse" color-interpolation-filters="sRGB">
<feFlood flood-opacity="0" result="BackgroundImageFix"/>
<feColorMatrix in="SourceAlpha" type="matrix" values="0 0 0 0 0 0 0 0 0 0 0 0 0 0 0 0 0 0 127 0" result="hardAlpha"/>
<feOffset dy="25"/>
<feGaussianBlur stdDeviation="35"/>
<feColorMatrix type="matrix" values="0 0 0 0 0.0392157 0 0 0 0 0.0117647 0 0 0 0 0.235294 0 0 0 0.15 0"/>
<feBlend mode="normal" in2="BackgroundImageFix" result="effect1_dropShadow_129_4310"/>
<feBlend mode="normal" in="SourceGraphic" in2="effect1_dropShadow_129_4310" result="shape"/>
</filter>
<clipPath id="clip0_129_4310">
<rect width="24.2489" height="24.2489" fill="white" transform="translate(77.3616 52.3334) scale(1.00113)"/>
</clipPath>
</defs>
</svg>
