<svg width="17" height="14" viewBox="0 0 17 14" fill="none" xmlns="http://www.w3.org/2000/svg">
<g clip-path="url(#clip0_129_952)">
<path d="M5.36765 13.5436C11.7404 13.5436 15.2253 8.35466 15.2253 3.85501C15.2253 3.70763 15.2223 3.56092 15.2156 3.41486C15.8921 2.93421 16.48 2.3344 16.9438 1.65159C16.323 1.92278 15.655 2.10535 14.9542 2.18767C15.6695 1.76611 16.2186 1.09924 16.4777 0.304261C15.8083 0.694293 15.067 0.977771 14.2777 1.13082C13.6455 0.468949 12.7454 0.0549733 11.7487 0.0549733C9.83543 0.0549733 8.2839 1.57994 8.2839 3.45967C8.2839 3.72688 8.31429 3.98679 8.37374 4.2361C5.49423 4.0937 2.9409 2.73871 1.23206 0.678358C0.934516 1.18158 0.762947 1.76612 0.762947 2.38984C0.762947 3.57123 1.37461 4.61415 2.30473 5.22428C1.73631 5.20702 1.20234 5.05366 0.735634 4.7984C0.735124 4.81269 0.735122 4.82662 0.735122 4.84189C0.735122 6.49099 1.92937 7.86786 3.51467 8.17986C3.22354 8.25786 2.91724 8.29969 2.60109 8.29969C2.37819 8.29969 2.16102 8.27813 1.94994 8.23828C2.39102 9.59126 3.67005 10.5758 5.18644 10.6033C4.00064 11.5168 2.50686 12.0609 0.883363 12.0609C0.604054 12.0609 0.328125 12.0453 0.0569366 12.0138C1.59028 12.9797 3.41097 13.5434 5.36784 13.5434" fill="#0A033C"/>
</g>
<defs>
<clipPath id="clip0_129_952">
<rect width="16.9116" height="13.5293" fill="white" transform="scale(1.00523)"/>
</clipPath>
</defs>
</svg>
