<svg width="246" height="114" viewBox="0 0 246 114" fill="none" xmlns="http://www.w3.org/2000/svg">
<path d="M207.736 113.418C207.736 113.418 234.546 118.273 243.079 99.9037C254.152 76.0716 231.404 58.0019 213.958 61.3685C175.943 68.7046 185.097 -12.2277 124.088 4.28978C106.933 8.93391 60.5819 -18.6563 47.655 25.5829C44.5807 36.1026 33.6901 37.261 17.8799 43.9364C-13.062 56.9997 1.08549 113.638 23.195 113.861C45.3044 114.083 207.736 113.418 207.736 113.418Z" fill="#EDDCFF"/>
<path d="M151.011 105.181C145.484 101.095 140.177 106.431 132.438 102.943C124.699 99.4538 140.619 82.2279 134.207 76.9946C127.796 71.7613 117.183 82.8816 117.183 82.8816C117.183 82.8816 135.755 59.9863 128.68 57.1305C121.605 54.2746 76.8563 46.9739 76.8563 46.9739L68.771 92.9698C67.1176 90.86 63.6135 88.1396 60.5789 91.5723C56.5421 96.1387 70.0766 105.974 67.9396 107.964C65.8027 109.955 60.6975 101.524 56.3783 104.822C52.0592 108.119 57.5989 113.775 57.5989 113.775L69.7202 113.941C69.7202 113.941 69.7217 113.793 69.7256 113.524C79.7926 113.524 155.217 113.524 155.217 113.524C155.217 113.524 156.539 109.267 151.011 105.181Z" fill="#A8D29F"/>
<path d="M93.1935 44.4652L87.6265 109.745C87.6265 109.745 87.0432 113.703 90.0279 113.71C94.935 113.721 114.453 113.71 114.453 113.71C114.453 113.71 110.759 112.886 110.804 111.032C110.858 108.848 117.311 43.8476 117.311 43.8476L93.1935 44.4652Z" fill="#E04E3B"/>
<path d="M116.036 112.525C115.071 112.528 96.4287 112.586 91.6503 112.525C89.5679 112.499 89.2021 110.699 89.185 109.533C89.1764 108.974 89.2482 108.561 89.2482 108.561L89.3932 106.865L89.7621 102.541L90.0881 98.7201L90.5069 93.8107L90.8594 89.6665L94.8151 43.2805L118.933 42.6637C118.933 42.6637 116.215 69.8662 114.292 89.6672C114.077 91.8732 113.873 93.9891 113.684 95.9635C113.622 96.5942 113.564 97.2103 113.507 97.8102C113.328 99.6839 113.165 101.404 113.024 102.923C112.949 103.723 112.881 104.467 112.818 105.149C112.573 107.819 112.429 109.524 112.428 109.848C112.427 110.037 112.443 110.213 112.474 110.377C112.87 112.457 115.674 112.525 116.036 112.525Z" fill="#FF6652"/>
<path d="M150.411 8.94278H34.6223L48.1825 62.6603L50.0394 70.0164L56.3551 95.0369H173.69L150.411 8.94278Z" fill="#FF6652"/>
<path d="M34.6223 8.94278L32.7436 9.56041L53.8563 96.9059L56.3551 95.0369L34.6223 8.94278Z" fill="#FF6652"/>
<path d="M53.8561 96.9056H170.469L173.689 95.0365H56.3549L53.8561 96.9056Z" fill="#E04E3B"/>
<path d="M94.8076 113.735H120.056V112.552H94.8076V113.735Z" fill="#FF6652"/>
<path d="M113.637 96.9055L113.507 97.81L89.762 102.541L90.088 98.7207L90.2432 96.9055H113.637Z" fill="#E04E3B"/>
<path opacity="0.4" d="M116.037 112.525C115.071 112.528 96.429 112.586 91.6505 112.525C89.5682 112.5 89.2024 110.699 89.1853 109.533L112.818 105.148C112.572 107.819 112.429 109.524 112.427 109.848C112.426 110.037 112.443 110.213 112.474 110.376C112.87 112.458 115.675 112.525 116.037 112.525Z" fill="#E04E3B"/>
<path opacity="0.4" d="M106.373 78.1234L56.355 95.037L52.0835 78.1134L106.373 78.1234Z" fill="#E04E3B"/>
<path d="M150.411 8.94278H34.6223L52.0734 78.1133L169.198 78.1356L150.411 8.94278Z" fill="#8434DC"/>
<path d="M118.133 86.883C117.798 85.1863 116.132 83.8103 114.412 83.8103C112.691 83.8103 111.567 85.1855 111.902 86.883C112.237 88.5798 113.902 89.9558 115.623 89.9558C117.343 89.955 118.467 88.5798 118.133 86.883Z" fill="#E04E3B"/>
<path d="M163.738 75.1364H55.3241L43.0461 26.9006L42.1048 23.2018L41.3015 20.0467L39.4188 12.6483H146.269L148.338 20.0467L149.22 23.2018L150.253 26.9006L163.738 75.1364Z" fill="#E9F3FE"/>
<path d="M146.269 12.6483H39.4188L41.3015 20.0467H148.338L146.269 12.6483Z" fill="#9C4DF4"/>
<path d="M77.6324 31.7844H88.4411L89.8433 37.1277H79.0347L77.6324 31.7844Z" fill="#8434DC"/>
<path d="M57.5474 37.1275H68.3553L69.6936 42.227H58.9138L57.5474 37.1275Z" fill="#8434DC"/>
<path d="M110.167 31.7844H120.975L122.378 37.1277H111.569L110.167 31.7844Z" fill="#8434DC"/>
<path d="M112.908 42.5921H123.717L125.055 47.6916H114.275L112.908 42.5921Z" fill="#8434DC"/>
<path d="M104.859 53.1569H126.534L127.877 58.5001H106.261L104.859 53.1569Z" fill="#8434DC"/>
<path d="M151.782 31.6285H44.1286V31.9393H151.782V31.6285Z" fill="#9C4DF4"/>
<path d="M153.245 36.9717H45.6743V37.2824H153.245V36.9717Z" fill="#9C4DF4"/>
<path d="M154.708 42.3148H46.7421V42.6255H154.708V42.3148Z" fill="#9C4DF4"/>
<path d="M156.17 47.6589H48.3319V47.9696H156.17V47.6589Z" fill="#9C4DF4"/>
<path d="M157.633 53.002H49.7023V53.3128H157.633V53.002Z" fill="#9C4DF4"/>
<path d="M159.096 58.3452H50.9913V58.6559H159.096V58.3452Z" fill="#9C4DF4"/>
<path d="M160.559 63.6873H52.3197V63.998H160.559V63.6873Z" fill="#9C4DF4"/>
<path d="M162.022 69.0304H53.7758V69.3411H162.022V69.0304Z" fill="#9C4DF4"/>
<path d="M44.5429 15.068C44.025 15.068 43.7099 15.4818 43.8386 15.9925C43.9681 16.5032 44.4922 16.917 45.01 16.917C45.5279 16.917 45.843 16.5032 45.7143 15.9925C45.5856 15.4818 45.0615 15.068 44.5429 15.068Z" fill="#E9F3FE"/>
<path d="M47.6591 15.068C47.1413 15.068 46.8262 15.4818 46.9549 15.9925C47.0843 16.5032 47.6084 16.917 48.1263 16.917C48.6441 16.917 48.9592 16.5032 48.8305 15.9925C48.7011 15.4818 48.177 15.068 47.6591 15.068Z" fill="#E9F3FE"/>
<path d="M52.1859 15.9925C52.0564 15.4818 51.5323 15.068 51.0145 15.068C50.4966 15.068 50.1815 15.4818 50.3102 15.9925C50.4397 16.5032 50.9638 16.917 51.4816 16.917C51.9995 16.917 52.3146 16.5032 52.1859 15.9925Z" fill="#E9F3FE"/>
<path d="M153.709 75.1763L154.013 75.0979L141.364 26.9013H150.253L149.22 23.2025H140.393L140.383 23.164L140.231 23.2025H129.585L129.575 23.164L129.423 23.2025H118.777L118.767 23.164L118.614 23.2025H107.968L107.958 23.164L107.806 23.2025H97.1595L97.1493 23.164L96.9973 23.2025H86.3516L86.3407 23.164L86.1886 23.2025H75.5429L75.5328 23.164L75.3799 23.2025H64.7342L64.7241 23.164L64.572 23.2025H53.9256L53.9154 23.164L53.7633 23.2025H42.1046L43.0459 26.9013H54.5713L67.2408 75.1763L67.545 75.0979L54.8965 26.9013H65.38L78.0487 75.1763L78.3537 75.0979L65.7052 26.9013H76.1887L88.8574 75.1763L89.1624 75.0979L76.5139 26.9013H86.9966L99.6661 75.1763L99.9702 75.0979L87.3218 26.9013H97.8052L110.475 75.1763L110.779 75.0979L98.1305 26.9013H108.614L121.283 75.1763L121.588 75.0979L108.939 26.9013H119.423L132.091 75.1763L132.396 75.0979L119.747 26.9013H130.23L142.9 75.1763L143.204 75.0979L130.556 26.9013H141.039L153.709 75.1763Z" fill="#9C4DF4"/>
<path d="M228.143 54.621H205.522V76.9318H228.143V54.621Z" fill="#E04E3B"/>
<path d="M235.12 54.621H212.497V76.9318H235.12V54.621Z" fill="#EE9849"/>
<path d="M224.048 69.4979C223.135 69.5018 222.398 70.234 222.402 71.1339C222.406 72.0338 223.149 72.7599 224.061 72.7568C224.974 72.753 225.71 72.0207 225.707 71.1208C225.704 70.2209 224.96 69.4941 224.048 69.4979Z" fill="#EBF2F9"/>
<path d="M224.062 61.803C224.975 61.7992 225.712 61.0669 225.708 60.167C225.704 59.2671 224.961 58.541 224.049 58.5441C223.136 58.548 222.399 59.2802 222.403 60.1801C222.407 61.08 223.15 61.8069 224.062 61.803Z" fill="#EBF2F9"/>
<path d="M231.108 64.1175L216.949 64.1754L216.962 67.4343L231.122 67.3763L231.108 64.1175Z" fill="#EBF2F9"/>
<path d="M30.9817 70.0791H11.6433V89.1509H30.9817V70.0791Z" fill="#4A75CB"/>
<path d="M36.9452 70.0791H17.6067V89.1509H36.9452V70.0791Z" fill="#699DEE"/>
<path d="M33.5195 78.2221H21.4154V81.008H33.5195V78.2221Z" fill="#EBF2F9"/>
<path d="M194.371 113.875H231.831V76.9316L194.371 76.9316L194.371 113.875Z" fill="#E04E3B"/>
<path d="M220.281 76.9314H182.821V113.874H220.281V76.9314Z" fill="#FF6652"/>
<path d="M212.901 92.7055H203.914V83.8426H198.442V92.7055H189.456V98.1011H198.442V106.964H203.914V98.1011H212.901V92.7055Z" fill="#EBF2F9"/>
<path d="M220.281 76.9314L231.831 82.4785V76.9314H220.281Z" fill="#C95C12"/>
<path d="M241.735 113.943H4.26579C4.14958 113.943 4.05365 113.849 4.05365 113.734C4.05365 113.619 4.1488 113.525 4.26579 113.525H241.735C241.851 113.525 241.947 113.619 241.947 113.734C241.946 113.849 241.851 113.943 241.735 113.943Z" fill="#283250"/>
<path d="M38.5115 89.1505H13.7964V113.525H38.5115V89.1505Z" fill="#E04E3B"/>
<path d="M46.132 89.1505H21.4169V113.525H46.132V89.1505Z" fill="#FF6652"/>
<path d="M40.8326 105.363L36.572 101.297L40.6961 97.094L38.1014 94.6181L33.978 98.8199L29.7174 94.7534L27.2069 97.3116L31.4675 101.379L27.3441 105.581L29.9381 108.057L34.0615 103.855L38.3221 107.921L40.8326 105.363Z" fill="#EBF2F9"/>
<path d="M21.4168 89.1505L13.7964 93.7069V89.1505H21.4168Z" fill="#C95C12"/>
<path d="M146.844 49.8346C146.844 49.8346 152.606 55.6209 152.882 57.8345C153.159 60.0481 150.139 63.5108 150.139 63.5108L146.844 49.8346Z" fill="#E58638"/>
<path d="M144.376 110.718C144.376 110.718 144.253 112.668 143.898 113.507H136.694C136.816 113.228 137.099 112.87 137.756 112.757C138.884 112.562 140.772 111.781 141.456 110.31C142.175 108.763 144.376 110.718 144.376 110.718Z" fill="#163560"/>
<path d="M152.971 110.718C152.971 110.718 152.849 112.668 152.495 113.507H145.291C145.412 113.228 145.695 112.87 146.352 112.757C147.48 112.562 149.369 111.781 150.052 110.31C150.771 108.763 152.971 110.718 152.971 110.718Z" fill="#163560"/>
<path d="M140.101 77.1816C140.101 77.1816 141.11 83.5486 144.876 94.8513C148.642 106.154 149.155 111.048 149.155 111.048L153.195 110.937C153.195 110.937 153.229 98.584 151.494 92.9007C149.758 87.2175 151.119 72.4106 151.119 72.4106L140.101 77.1816Z" fill="#163560"/>
<path d="M138.135 72.7585C138.135 72.7585 137.992 82.3529 139.675 94.1339C141.358 105.915 140.788 110.915 140.788 110.915L144.819 111.048C144.819 111.048 147.228 99.2626 146.538 93.3663C145.847 87.47 149.837 73.133 149.837 73.133L138.135 72.7585Z" fill="#1C468A"/>
<path d="M145.939 50.306L143.791 51.695L140.687 51.1243C140.73 50.8774 140.935 49.8529 141.122 48.9253C141.133 48.8707 141.144 48.8161 141.155 48.7623C141.314 47.9731 141.452 47.2947 141.452 47.2947L144.352 46.0333L145.433 45.5626C145.43 45.5795 145.35 46.4387 145.338 46.564C145.135 48.7923 145.939 50.306 145.939 50.306Z" fill="#FFB27D"/>
<path d="M151.386 73.9435C150.763 76.7486 140.387 77.0808 137.712 74.535C137.408 74.245 137.393 72.8944 137.508 71.0738C137.732 67.5172 138.453 62.167 138.481 59.4334C138.495 58.1136 138.678 56.763 138.924 55.5369C139.445 52.9241 140.24 50.8736 140.24 50.8736C140.24 50.8736 145.308 49.2576 146.256 49.5329C150.825 50.8559 152.01 71.1384 151.386 73.9435Z" fill="#EE9849"/>
<path d="M137.508 71.0737C137.733 67.5172 138.454 62.167 138.482 59.4334C138.496 58.1136 138.679 56.7629 138.925 55.5369L141.973 55.0062C141.973 55.0062 144.953 67.0126 137.508 71.0737Z" fill="#E58638"/>
<path d="M139.159 66.1157C139.159 66.1157 139.366 66.6057 138.93 66.9341C138.494 67.2633 138.211 67.7956 138.311 68.1855C138.411 68.5747 139.369 69.21 139.7 69.1077C140.031 69.0054 140.707 68.4924 140.634 68.287C140.562 68.0817 141.089 66.4842 140.279 65.8696C139.471 65.2551 139.159 66.1157 139.159 66.1157Z" fill="#FFB27D"/>
<path d="M142.568 50.1531C142.568 50.1531 139.595 50.7015 137.225 54.145C134.856 57.5877 133.298 60.1482 133.734 61.3888C134.171 62.6295 138.149 66.9336 138.834 66.9336C139.52 66.9336 140.626 66.4422 140.689 65.3353C140.689 65.3353 137.888 61.1958 138.44 60.5758C138.675 60.3105 142.075 57.5885 142.561 58.8183C143.365 60.852 142.568 50.1531 142.568 50.1531Z" fill="#EE9849"/>
<path d="M145.12 46.6031C144.484 47.6668 142.111 48.5867 141.122 48.9244C141.132 48.8698 141.144 48.8152 141.154 48.7613C141.314 47.9722 141.452 47.2938 141.452 47.2938L144.352 46.0324C144.993 46.0239 145.383 46.1655 145.12 46.6031Z" fill="#FCA56B"/>
<path d="M140.36 47.1202C140.36 47.1202 145.03 48.557 145.892 45.675C146.755 42.793 147.939 41.037 144.993 39.9979C142.048 38.9588 141.137 39.8887 140.612 40.7817C140.087 41.6746 139.167 46.6718 140.36 47.1202Z" fill="#FFB27D"/>
<path d="M140.795 40.5043C140.795 40.5043 141.093 43.8586 141.796 43.7125C142.5 43.5663 143.138 43.4586 143.035 44.4701C142.932 45.4807 141.956 46.6483 144.124 46.8275C146.292 47.0067 149.407 41.4935 148.812 40.4497C147.093 37.4377 138.312 36.8301 140.795 40.5043Z" fill="#163560"/>
<path d="M141.482 49.6044C141.542 49.579 145.22 48.5091 145.62 48.6391C146.019 48.7691 146.256 49.5313 146.256 49.5313L140.24 50.8727C140.24 50.8727 140.714 49.9236 141.482 49.6044Z" fill="#E58638"/>
<path d="M25.2401 58.095C25.2401 58.095 23.2904 55.8514 25.12 54.427C25.12 54.427 26.456 53.6294 27.5463 53.694C27.5463 53.694 26.0021 56.2476 26.502 56.5014C27.0019 56.7552 28.0143 53.534 28.0143 53.534C28.0143 53.534 31.0551 53.2433 32.0339 53.7071C32.0339 53.7071 29.4345 55.8053 29.9819 55.9299C30.5294 56.0545 33.3379 53.9955 33.3379 53.9955C33.3379 53.9955 36.1681 54.4708 36.0176 56.1729C35.8671 57.8758 34.8914 58.4012 34.4625 58.3566C34.0335 58.3112 31.5262 57.3674 31.4716 57.7136C31.417 58.0597 32.9261 59.1919 33.9829 59.2449C33.9829 59.2449 31.9871 61.4155 30.6612 60.7886C29.3354 60.1625 29.2215 59.1696 28.3948 58.7973C27.5681 58.425 26.8623 58.4258 27.2039 58.8057C27.5455 59.1857 29.0414 59.5549 29.514 60.3794C29.9866 61.2039 30.4109 61.76 29.039 61.557C27.6672 61.3532 25.4367 60.3633 25.3384 59.2295C25.2401 58.0958 25.2401 58.095 25.2401 58.095Z" fill="#82B378"/>
<path d="M34.6255 56.2189C34.6255 56.2189 26.938 55.9267 25.2402 58.0949C25.2402 58.0949 24.865 59.204 23.7092 60.2139L23.5291 60.6977C23.5291 60.6977 24.8611 59.3124 25.3377 59.2286C25.3384 59.2286 24.5929 56.5427 34.6255 56.2189Z" fill="#82B378"/>
<path d="M23.7093 60.2139C23.7093 60.2139 22.059 61.4176 21.9444 63.5674L22.2438 63.5936C22.2438 63.5936 22.7711 61.3699 23.7233 60.5008C24.6764 59.6316 23.7093 60.2139 23.7093 60.2139Z" fill="#82B378"/>
<path d="M18.4229 55.2735C18.4229 55.2735 21.5245 53.5606 20.077 51.2362C20.077 51.2362 18.9189 49.8087 17.6788 49.4418C17.6788 49.4418 18.3402 52.9084 17.6788 52.9899C17.0175 53.0714 17.2241 49.0749 17.2241 49.0749C17.2241 49.0749 13.9571 47.5251 12.675 47.6474C12.675 47.6474 14.7012 51.0324 14.0398 50.9509C13.3784 50.8693 11.1035 47.4435 11.1035 47.4435C11.1035 47.4435 7.75379 46.8321 7.21644 48.7896C6.67909 50.747 7.54712 51.7262 8.04392 51.8485C8.53993 51.9708 11.7243 51.93 11.6416 52.3376C11.5589 52.7453 9.40875 53.3983 8.20926 53.0306C8.20926 53.0306 9.53275 56.2526 11.2696 56.0896C13.0064 55.9265 13.5438 54.8658 14.6193 54.7843C15.6948 54.7028 16.4801 54.9881 15.9428 55.2735C15.4054 55.5588 13.5859 55.3673 12.7171 56.0949C11.8483 56.8233 11.1456 57.2717 12.7584 57.5979C14.3713 57.924 17.2663 57.7202 17.845 56.4964C18.4229 55.2735 18.4229 55.2735 18.4229 55.2735Z" fill="#A8D29F"/>
<path d="M8.74678 49.4014C8.74678 49.4014 17.431 52.175 18.4238 55.2739C18.4238 55.2739 18.3825 56.6606 19.2505 58.2513V58.8627C19.2505 58.8627 18.3404 56.7829 17.8443 56.4976C17.8443 56.4976 19.7879 53.8056 8.74678 49.4014Z" fill="#82B378"/>
<path d="M19.2508 58.2507C19.2508 58.2507 20.5899 60.2567 19.8263 62.698L19.4816 62.6064C19.4816 62.6064 19.8162 59.9175 19.1151 58.5645C18.4147 57.2124 19.2508 58.2507 19.2508 58.2507Z" fill="#82B378"/>
<path d="M23.3576 52.9118C23.3576 52.9118 19.2694 50.6536 21.177 47.5893C21.177 47.5893 22.7033 45.7079 24.3387 45.2241C24.3387 45.2241 23.4668 49.7937 24.3387 49.9013C25.2107 50.009 24.9385 44.7403 24.9385 44.7403C24.9385 44.7403 29.2451 42.6975 30.9344 42.859C30.9344 42.859 28.2632 47.3208 29.1351 47.2132C30.0071 47.1055 33.0058 42.5898 33.0058 42.5898C33.0058 42.5898 37.4208 41.7837 38.1298 44.3642C38.8387 46.9447 37.6938 48.2346 37.0394 48.3961C36.3851 48.5576 32.1877 48.5038 32.2969 49.0414C32.406 49.5791 35.2402 50.439 36.8211 49.9552C36.8211 49.9552 35.0764 54.2024 32.7874 53.9871C30.4976 53.7717 29.7895 52.3742 28.3724 52.2665C26.9553 52.1588 25.9196 52.5357 26.6277 52.9118C27.3367 53.2879 29.7349 53.0349 30.8798 53.9948C32.0247 54.9547 32.9512 55.5461 30.8252 55.9761C28.6992 56.406 24.8839 56.1376 24.1204 54.5247C23.3576 52.9118 23.3576 52.9118 23.3576 52.9118Z" fill="#A8D29F"/>
<path d="M36.1127 45.1696C36.1127 45.1696 24.6652 48.8254 23.3573 52.9111C23.3573 52.9111 23.4119 54.7386 22.267 56.8353V57.6414C22.267 57.6414 23.4665 54.8994 24.1201 54.5233C24.1209 54.524 21.5589 50.9752 36.1127 45.1696Z" fill="#82B378"/>
<path d="M22.2672 56.8358C22.2672 56.8358 20.5015 59.4794 21.5084 62.6983L21.9623 62.5783C21.9623 62.5783 21.5216 59.0333 22.445 57.2504C23.3692 55.4675 22.2672 56.8358 22.2672 56.8358Z" fill="#82B378"/>
<path d="M23.2196 69.6768C27.6424 69.6768 31.2276 66.141 31.2276 61.7792H15.2115C15.2115 66.141 18.7968 69.6768 23.2196 69.6768Z" fill="#FF6652"/>
<path d="M25.1899 69.6169C24.8639 69.6569 24.5324 69.6776 24.1947 69.6776C19.7719 69.6776 16.1867 66.1411 16.1867 61.7792H18.1762C18.177 65.8088 21.2366 69.1331 25.1899 69.6169Z" fill="#FFB973"/>
<path d="M30.3508 69.1049H16.0887C15.5428 69.1049 15.1006 69.541 15.1006 70.0794H31.3389C31.3389 69.541 30.8967 69.1049 30.3508 69.1049Z" fill="#FF6652"/>
<path d="M31.4101 61.7792H14.9479V62.0215H31.4101V61.7792Z" fill="#E04E3B"/>
</svg>
