<svg width="11" height="11" viewBox="0 0 11 11" fill="none" xmlns="http://www.w3.org/2000/svg">
<g clip-path="url(#clip0_129_4258)">
<path d="M5.99034 3.01989C5.71751 3.29214 5.27531 3.29214 5.00248 3.01989C4.72972 2.74764 4.72972 2.3062 5.00248 2.03395C5.27531 1.7617 5.71751 1.7617 5.99034 2.03395C6.2631 2.3062 6.2631 2.74764 5.99034 3.01989Z" fill="#D97356"/>
<path d="M6.94508 4.07621C6.85998 4.07621 6.77488 4.04373 6.71009 3.97869C6.58051 3.84894 6.58077 3.63871 6.71051 3.50922C6.97345 3.24679 7.11822 2.89791 7.11822 2.52689C7.11822 2.15586 6.97345 1.80699 6.71051 1.54456C6.58077 1.41498 6.58051 1.20483 6.71009 1.075C6.83959 0.945256 7.04982 0.945004 7.17956 1.07458C7.56822 1.46248 7.78222 1.97819 7.78222 2.52689C7.78222 3.0755 7.56822 3.59129 7.17956 3.97919C7.11477 4.04389 7.02993 4.07621 6.94508 4.07621Z" fill="#D97356"/>
<path d="M7.69599 5.05358C7.61089 5.05358 7.5258 5.02111 7.46101 4.95615C7.33143 4.82632 7.33168 4.61617 7.46143 4.48659C7.98595 3.96308 8.2749 3.2671 8.2749 2.5268C8.2749 1.78651 7.98595 1.09053 7.46143 0.567011C7.33168 0.437433 7.33143 0.227287 7.46101 0.0974568C7.59058 -0.0322896 7.80073 -0.0325413 7.93048 0.0970372C8.58072 0.746021 8.93891 1.60893 8.93882 2.5268C8.93882 3.44468 8.58072 4.30767 7.93048 4.95665C7.86569 5.02127 7.78084 5.05358 7.69599 5.05358Z" fill="#D97356"/>
<path d="M4.04715 4.07624C3.9623 4.07624 3.87745 4.04393 3.81258 3.97922C3.42393 3.59132 3.20992 3.07553 3.20992 2.52692C3.20992 1.97822 3.42393 1.46251 3.81258 1.07461C3.94233 0.945036 4.15256 0.945204 4.28205 1.07503C4.41163 1.20478 4.41138 1.41501 4.28163 1.54459C4.0187 1.80702 3.87393 2.15589 3.87393 2.52692C3.87393 2.89795 4.0187 3.24682 4.28163 3.50925C4.41138 3.63874 4.41163 3.84897 4.28205 3.97872C4.21726 4.04367 4.13216 4.07624 4.04715 4.07624Z" fill="#D97356"/>
<path d="M3.29618 5.05363C3.21125 5.05363 3.1264 5.02131 3.06161 4.95661C2.41137 4.30763 2.05326 3.44472 2.05326 2.52684C2.05326 1.60888 2.41137 0.745979 3.06161 0.0969952C3.19136 -0.0324994 3.40159 -0.0323315 3.53108 0.0974988C3.66066 0.227245 3.66041 0.437391 3.53066 0.566969C3.00614 1.09049 2.71719 1.78647 2.71719 2.52676C2.71719 3.26705 3.00614 3.96312 3.53066 4.48664C3.66041 4.61621 3.66066 4.82636 3.53108 4.95619C3.46629 5.02115 3.38119 5.05363 3.29618 5.05363Z" fill="#D97356"/>
<path d="M9.87155 5.62715H1.12023C0.691299 5.62715 0.343603 5.97485 0.343603 6.4037V10.223C0.343603 10.6519 0.691299 10.9996 1.12023 10.9996H9.87146C10.3004 10.9996 10.6481 10.6519 10.6481 10.223V6.4037C10.6481 5.97485 10.3004 5.62715 9.87155 5.62715ZM2.89749 10.0032H1.6743C1.49101 10.0032 1.34238 9.85456 1.34238 9.67119V6.95558C1.34238 6.77229 1.49101 6.62358 1.6743 6.62358C1.85767 6.62358 2.0063 6.77221 2.0063 6.95558V9.33918H2.89749C3.08086 9.33918 3.22949 9.48781 3.22949 9.67119C3.22949 9.85456 3.08086 10.0032 2.89749 10.0032ZM4.25806 9.67119C4.25806 9.85456 4.10943 10.0032 3.92606 10.0032C3.74268 10.0032 3.59405 9.85456 3.59405 9.67119V6.95558C3.59405 6.77229 3.74268 6.62358 3.92606 6.62358C4.10943 6.62358 4.25806 6.77221 4.25806 6.95558V9.67119ZM7.05137 7.05159L6.23152 9.76711C6.23144 9.76736 6.23136 9.76761 6.23127 9.76787C6.14223 10.0718 5.68829 10.0643 5.59614 9.76787C5.59605 9.76761 5.59597 9.76736 5.59589 9.76711L4.77603 7.05159C4.72308 6.87602 4.82236 6.6908 4.99793 6.63776C5.17333 6.58481 5.35872 6.68409 5.41167 6.85966L5.91371 8.52244L6.41574 6.85966C6.46878 6.68409 6.654 6.58472 6.82956 6.63776C7.00505 6.6908 7.10441 6.87602 7.05137 7.05159ZM9.09383 7.81043C9.2772 7.81043 9.42583 7.95906 9.42583 8.14243C9.42583 8.32572 9.2772 8.47443 9.09383 8.47443H8.1517V9.33918H9.27267C9.45604 9.33918 9.60467 9.48781 9.60467 9.67119C9.60467 9.85456 9.45604 10.0032 9.27267 10.0032H7.8197C7.63632 10.0032 7.48769 9.85456 7.48769 9.67119V6.95558C7.48769 6.77229 7.63632 6.62358 7.8197 6.62358H9.3174C9.50069 6.62358 9.6494 6.77221 9.6494 6.95558C9.6494 7.13896 9.50069 7.28758 9.3174 7.28758H8.15162V7.81043H9.09383Z" fill="#D97356"/>
</g>
<defs>
<clipPath id="clip0_129_4258">
<rect width="10.2857" height="10.2857" fill="white" transform="scale(1.06945)"/>
</clipPath>
</defs>
</svg>
