<svg width="12" height="12" viewBox="0 0 12 12" fill="none" xmlns="http://www.w3.org/2000/svg">
<path d="M8.50034 6.7054L6.35534 4.5854C6.30886 4.53853 6.25356 4.50134 6.19263 4.47595C6.1317 4.45057 6.06635 4.4375 6.00034 4.4375C5.93433 4.4375 5.86898 4.45057 5.80805 4.47595C5.74712 4.50134 5.69182 4.53853 5.64534 4.5854L3.52534 6.7054C3.47848 6.75188 3.44128 6.80718 3.41589 6.86811C3.39051 6.92904 3.37744 6.99439 3.37744 7.0604C3.37744 7.12641 3.39051 7.19176 3.41589 7.25269C3.44128 7.31362 3.47848 7.36892 3.52534 7.4154C3.61902 7.50852 3.74575 7.5608 3.87784 7.5608C4.00993 7.5608 4.13666 7.50852 4.23034 7.4154L6.00034 5.6454L7.77034 7.4154C7.86347 7.50777 7.98917 7.55985 8.12034 7.5604C8.18614 7.56078 8.25138 7.54817 8.31229 7.52328C8.37321 7.4984 8.42862 7.46174 8.47534 7.4154C8.52388 7.37059 8.56306 7.31661 8.59061 7.25657C8.61816 7.19653 8.63355 7.13163 8.63587 7.06561C8.6382 6.99959 8.62741 6.93377 8.60415 6.87194C8.58089 6.81012 8.54561 6.75351 8.50034 6.7054Z" fill="white"/>
</svg>
