<svg width="18" height="18" viewBox="0 0 18 18" fill="none" xmlns="http://www.w3.org/2000/svg">
<path d="M9.00039 2.45312C7.22281 2.45312 6.99972 2.4609 6.30156 2.49267C5.60477 2.52458 5.12915 2.6349 4.71298 2.79676C4.28249 2.96394 3.91732 3.18758 3.55351 3.55153C3.18943 3.91535 2.9658 4.28053 2.79808 4.7109C2.63581 5.12721 2.52536 5.60299 2.494 6.29953C2.46277 6.99771 2.45459 7.22094 2.45459 8.99858C2.45459 10.7762 2.4625 10.9986 2.49413 11.6968C2.52618 12.3936 2.63649 12.8693 2.79822 13.2854C2.96553 13.7159 3.18916 14.0811 3.5531 14.4449C3.91677 14.809 4.28194 15.0332 4.71216 15.2004C5.1286 15.3623 5.60436 15.4726 6.30102 15.5045C6.99918 15.5363 7.22213 15.544 8.99957 15.544C10.7773 15.544 10.9997 15.5363 11.6979 15.5045C12.3947 15.4726 12.8708 15.3623 13.2873 15.2004C13.7176 15.0332 14.0822 14.809 14.4459 14.4449C14.81 14.0811 15.0336 13.7159 15.2013 13.2856C15.3622 12.8693 15.4727 12.3935 15.5054 11.6969C15.5368 10.9988 15.545 10.7762 15.545 8.99858C15.545 7.22094 15.5368 6.99785 15.5054 6.29967C15.4727 5.60285 15.3622 5.12721 15.2013 4.71103C15.0336 4.28053 14.81 3.91535 14.4459 3.55153C14.0818 3.18744 13.7177 2.96381 13.2869 2.79676C12.8696 2.6349 12.3937 2.52458 11.6969 2.49267C10.9987 2.4609 10.7765 2.45312 8.99835 2.45312H9.00039ZM8.41323 3.63267C8.58749 3.6324 8.78194 3.63267 9.00039 3.63267C10.748 3.63267 10.9551 3.63894 11.6452 3.67031C12.2834 3.69949 12.6297 3.80612 12.8605 3.89572C13.1659 4.01435 13.3837 4.15617 13.6126 4.38526C13.8417 4.61435 13.9835 4.83253 14.1024 5.13799C14.192 5.36844 14.2988 5.71481 14.3278 6.35299C14.3592 7.04299 14.366 7.25026 14.366 8.99708C14.366 10.7439 14.3592 10.9512 14.3278 11.6412C14.2986 12.2793 14.192 12.6257 14.1024 12.8562C13.9838 13.1616 13.8417 13.3791 13.6126 13.6081C13.3835 13.8372 13.166 13.979 12.8605 14.0976C12.63 14.1876 12.2834 14.294 11.6452 14.3232C10.9552 14.3545 10.748 14.3613 9.00039 14.3613C7.25267 14.3613 7.04554 14.3545 6.35556 14.3232C5.7174 14.2937 5.37105 14.1871 5.14019 14.0975C4.83474 13.9788 4.61657 13.837 4.38749 13.6079C4.1584 13.3788 4.01659 13.1612 3.89768 12.8556C3.80809 12.6252 3.70132 12.2788 3.67228 11.6406C3.64092 10.9506 3.63464 10.7433 3.63464 8.99544C3.63464 7.24753 3.64092 7.04135 3.67228 6.35135C3.70146 5.71317 3.80809 5.36681 3.89768 5.13608C4.01632 4.83062 4.1584 4.61244 4.38749 4.38335C4.61657 4.15426 4.83474 4.01244 5.14019 3.89353C5.37091 3.80353 5.7174 3.69717 6.35556 3.66785C6.95936 3.64058 7.19336 3.6324 8.41323 3.63103V3.63267ZM12.4942 4.71949C12.0606 4.71949 11.7088 5.0709 11.7088 5.50467C11.7088 5.9383 12.0606 6.29012 12.4942 6.29012C12.9278 6.29012 13.2796 5.9383 13.2796 5.50467C13.2796 5.07103 12.9278 4.71921 12.4942 4.71921V4.71949ZM9.00039 5.63721C7.14413 5.63721 5.63913 7.14226 5.63913 8.99858C5.63913 10.8549 7.14413 12.3593 9.00039 12.3593C10.8567 12.3593 12.3611 10.8549 12.3611 8.99858C12.3611 7.14226 10.8565 5.63721 9.00025 5.63721H9.00039ZM9.00039 6.81676C10.2053 6.81676 11.1821 7.79353 11.1821 8.99858C11.1821 10.2035 10.2053 11.1804 9.00039 11.1804C7.79538 11.1804 6.81864 10.2035 6.81864 8.99858C6.81864 7.79353 7.79538 6.81676 9.00039 6.81676Z" fill="white"/>
</svg>
