<svg width="19" height="19" viewBox="0 0 19 19" fill="none" xmlns="http://www.w3.org/2000/svg">
<g clip-path="url(#clip0_129_4071)">
<path d="M1.11319 0L2.29328 16.6286L9.50723 18.9998L16.7212 16.6286L17.9013 0H1.11319Z" fill="#FF7816"/>
<path d="M17.9012 0L16.7211 16.6286L9.50713 18.9998V0H17.9012Z" fill="#FF4B00"/>
<path d="M14.7511 5.04641H6.50168L6.70202 7.82959H14.5507L14.0719 14.5685L9.50752 16.0938L4.9431 14.5685L4.78727 12.3198H7.01382L7.05832 12.9321L9.50752 13.7447L11.9567 12.9321L12.157 10.0561H4.62028L4.10815 2.81987H14.9069L14.7511 5.04641Z" fill="#ECECF1"/>
<path d="M14.5503 7.82971L14.0715 14.5686L9.50713 16.0939V13.7448L11.9563 12.9322L12.1567 10.0563H9.50713V7.82971H14.5503Z" fill="#E2E2E7"/>
<path d="M14.9065 2.81987L14.7507 5.04641H9.50713V2.81987H14.9065Z" fill="#E2E2E7"/>
</g>
<defs>
<clipPath id="clip0_129_4071">
<rect width="18.2264" height="18.2264" fill="white" transform="scale(1.04243)"/>
</clipPath>
</defs>
</svg>
