<svg width="84" height="14" viewBox="0 0 84 14" fill="none" xmlns="http://www.w3.org/2000/svg">
<path d="M13.9635 5.29043C13.8718 4.99462 13.6204 4.78452 13.3229 4.75654L9.28214 4.37368L7.68431 0.47114C7.56649 0.185135 7.29817 0 7.00006 0C6.70194 0 6.43362 0.185134 6.31581 0.471809L4.71797 4.37368L0.676558 4.75654C0.379615 4.78519 0.128816 4.99462 0.0366355 5.29043C-0.0555451 5.58625 0.0295857 5.91071 0.254216 6.11523L3.30856 8.91042L2.40791 13.0504C2.342 13.3548 2.45523 13.6694 2.69727 13.852C2.82737 13.9501 2.97958 14 3.13307 14C3.26541 14 3.39668 13.9628 3.5145 13.8892L7.00006 11.7154L10.4843 13.8892C10.7393 14.0493 11.0607 14.0347 11.3022 13.852C11.5444 13.6689 11.6575 13.3541 11.5916 13.0504L10.6909 8.91042L13.7453 6.11579C13.9699 5.91071 14.0557 5.5868 13.9635 5.29043Z" fill="#FFC107"/>
<path d="M31.443 5.29043C31.3513 4.99462 31.0999 4.78452 30.8024 4.75654L26.7616 4.37368L25.1638 0.47114C25.046 0.185135 24.7777 0 24.4795 0C24.1814 0 23.9131 0.185134 23.7953 0.471809L22.1975 4.37368L18.1561 4.75654C17.8591 4.78519 17.6083 4.99462 17.5161 5.29043C17.4239 5.58625 17.5091 5.91071 17.7337 6.11523L20.7881 8.91042L19.8874 13.0504C19.8215 13.3548 19.9347 13.6694 20.1768 13.852C20.3069 13.9501 20.4591 14 20.6126 14C20.7449 14 20.8762 13.9628 20.994 13.8892L24.4795 11.7154L27.9638 13.8892C28.2188 14.0493 28.5402 14.0347 28.7817 13.852C29.0238 13.6689 29.137 13.3541 29.0711 13.0504L28.1704 8.91042L31.2247 6.11579C31.4494 5.91071 31.5352 5.5868 31.443 5.29043Z" fill="#FFC107"/>
<path d="M48.922 5.29043C48.8303 4.99462 48.5789 4.78452 48.2814 4.75654L44.2406 4.37368L42.6428 0.47114C42.525 0.185135 42.2567 0 41.9586 0C41.6604 0 41.3921 0.185134 41.2743 0.471809L39.6765 4.37368L35.6351 4.75654C35.3381 4.78519 35.0873 4.99462 34.9951 5.29043C34.903 5.58625 34.9881 5.91071 35.2127 6.11523L38.2671 8.91042L37.3664 13.0504C37.3005 13.3548 37.4137 13.6694 37.6558 13.852C37.7859 13.9501 37.9381 14 38.0916 14C38.2239 14 38.3552 13.9628 38.473 13.8892L41.9586 11.7154L45.4428 13.8892C45.6978 14.0493 46.0192 14.0347 46.2607 13.852C46.5028 13.6689 46.616 13.3541 46.5501 13.0504L45.6494 8.91042L48.7038 6.11579C48.9284 5.91071 49.0142 5.5868 48.922 5.29043Z" fill="#FFC107"/>
<path d="M66.4015 5.29043C66.3098 4.99462 66.0584 4.78452 65.7609 4.75654L61.7201 4.37368L60.1223 0.47114C60.0045 0.185135 59.7362 0 59.438 0C59.1399 0 58.8716 0.185134 58.7538 0.471809L57.156 4.37368L53.1145 4.75654C52.8176 4.78519 52.5668 4.99462 52.4746 5.29043C52.3824 5.58625 52.4676 5.91071 52.6922 6.11523L55.7466 8.91042L54.8459 13.0504C54.78 13.3548 54.8932 13.6694 55.1353 13.852C55.2654 13.9501 55.4176 14 55.5711 14C55.7034 14 55.8347 13.9628 55.9525 13.8892L59.438 11.7154L62.9223 13.8892C63.1773 14.0493 63.4987 14.0347 63.7402 13.852C63.9823 13.6689 64.0955 13.3541 64.0296 13.0504L63.1289 8.91042L66.1832 6.11579C66.4079 5.91071 66.4936 5.5868 66.4015 5.29043Z" fill="#FFC107"/>
<path d="M83.881 5.29043C83.7893 4.99462 83.5379 4.78452 83.2404 4.75654L79.1996 4.37368L77.6018 0.47114C77.484 0.185135 77.2157 0 76.9175 0C76.6194 0 76.3511 0.185134 76.2333 0.471809L74.6355 4.37368L70.594 4.75654C70.2971 4.78519 70.0463 4.99462 69.9541 5.29043C69.8619 5.58625 69.9471 5.91071 70.1717 6.11523L73.226 8.91042L72.3254 13.0504C72.2595 13.3548 72.3727 13.6694 72.6147 13.852C72.7448 13.9501 72.8971 14 73.0505 14C73.1829 14 73.3142 13.9628 73.432 13.8892L76.9175 11.7154L80.4018 13.8892C80.6568 14.0493 80.9782 14.0347 81.2197 13.852C81.4618 13.6689 81.5749 13.3541 81.509 13.0504L80.6084 8.91042L83.6627 6.11579C83.8874 5.91071 83.9731 5.5868 83.881 5.29043Z" fill="#FFC107"/>
</svg>
