<svg width="11" height="11" viewBox="0 0 11 11" fill="none" xmlns="http://www.w3.org/2000/svg">
<g clip-path="url(#clip0_129_4271)">
<path d="M5.50003 0C2.46245 0 0 2.46245 0 5.50003C0 8.53761 2.46245 11.0001 5.50003 11.0001C8.53761 11.0001 11.0001 8.53761 11.0001 5.50003C10.9968 2.4638 8.53627 0.0032457 5.50003 0ZM7.8163 5.67527C7.77823 5.75165 7.71633 5.81357 7.63993 5.85164V5.8536L4.49706 7.42505C4.30296 7.52202 4.06702 7.44332 3.97001 7.24923C3.94244 7.19405 3.92823 7.13314 3.92858 7.07147V3.9286C3.92849 3.71163 4.10429 3.53567 4.32126 3.53555C4.38229 3.53553 4.44248 3.54971 4.49706 3.57699L7.63993 5.14843C7.83412 5.2452 7.9131 5.48108 7.8163 5.67527Z" fill="#00C968"/>
</g>
<defs>
<clipPath id="clip0_129_4271">
<rect width="11.0001" height="11.0001" rx="4" fill="white"/>
</clipPath>
</defs>
</svg>
