<svg width="179" height="179" viewBox="0 0 179 179" fill="none" xmlns="http://www.w3.org/2000/svg">
<g filter="url(#filter0_d_129_4350)">
<rect x="70.079" y="45.0508" width="38.842" height="38.842" rx="10" fill="white"/>
</g>
<g clip-path="url(#clip0_129_4350)">
<path d="M80.9613 65.0283H79.7977C79.5975 65.0287 79.4256 65.1708 79.3875 65.3674L77.5543 74.7765C77.5067 75.0223 77.5716 75.2765 77.7313 75.4694C77.8909 75.6622 78.1285 75.7735 78.3788 75.7727H87.4071C87.4071 76.2331 88.3447 76.6098 89.4999 76.6098C90.6551 76.6098 91.5927 76.2331 91.5927 75.7727H100.621C100.871 75.7735 101.109 75.6622 101.268 75.4694C101.428 75.2765 101.493 75.0223 101.445 74.7765L99.6122 65.3674C99.5742 65.1708 99.4022 65.0287 99.202 65.0283H80.9613Z" fill="#E64C3C"/>
<path d="M89.4997 66.2461V74.0982C88.8874 73.8322 88.2492 73.6302 87.5953 73.4955C85.1098 72.9551 82.5252 73.0866 80.1073 73.8764C79.9683 73.9188 79.8173 73.8867 79.7076 73.7914C79.5979 73.6961 79.5449 73.5511 79.5674 73.4076L80.9612 65.0281L81.0784 64.3207C81.1084 64.1412 81.2501 64.0012 81.4299 63.9733C81.7146 63.9315 82.0076 63.8896 82.3005 63.8561C82.812 64.8503 83.8361 65.4755 84.9542 65.4759C85.0295 65.4759 85.1007 65.4717 85.1718 65.4676C85.4506 65.4458 85.7251 65.3867 85.988 65.2918C85.9889 65.3007 85.9918 65.3092 85.9964 65.3169C86.3096 66.1941 87.141 66.7791 88.0724 66.7776C88.5969 66.7794 89.1042 66.5905 89.4997 66.2461Z" fill="#F5EFCA"/>
<path d="M98.8922 73.876C96.4743 73.0862 93.8897 72.9547 91.4042 73.4951C90.7503 73.6299 90.1121 73.8318 89.4998 74.0978V66.2457C89.5878 66.1737 89.669 66.0939 89.7425 66.0071C90.1607 66.1734 90.6067 66.2587 91.0568 66.2582H91.0819C91.1036 66.5575 91.2177 66.8427 91.4084 67.0744C91.8146 67.476 92.3225 67.7596 92.8775 67.8948C93.2803 68.0234 93.6395 68.261 93.9155 68.5812C94.1616 68.886 94.5785 68.9932 94.941 68.8449C95.2601 68.7071 95.4672 68.3931 95.4684 68.0455C95.4688 67.9545 95.4547 67.8641 95.4265 67.7776C95.3847 67.6478 95.3386 67.5181 95.2842 67.3925C95.1792 67.1332 95.0414 66.8884 94.874 66.6642C95.7041 66.2153 96.2871 65.4154 96.4604 64.4877C96.4729 64.471 96.4896 64.4543 96.5022 64.4375C96.6454 64.269 96.7626 64.08 96.8496 63.8767C97.0924 63.9059 97.3309 63.9352 97.5695 63.9729C97.7494 64.0008 97.8911 64.1408 97.9211 64.3203L98.0383 65.0277L99.4321 73.4072C99.4546 73.5507 99.4016 73.6958 99.2919 73.791C99.1822 73.8863 99.0311 73.9184 98.8922 73.876Z" fill="#F9EAB0"/>
<path d="M91.5926 75.7728C91.5926 76.2332 90.6551 76.6099 89.4998 76.6099C88.3446 76.6099 87.4071 76.2332 87.4071 75.7728L87.5954 73.4959C88.2493 73.6307 88.8875 73.8326 89.4998 74.0986C90.1122 73.8326 90.7504 73.6307 91.4043 73.4959L91.5926 75.7728Z" fill="#C03A2B"/>
<path d="M97.0339 63.0023C97.0335 63.3035 96.9708 63.6013 96.8498 63.8771C96.7627 64.0804 96.6456 64.2695 96.5024 64.438C96.4898 64.4547 96.4731 64.4715 96.4605 64.4882C96.2873 65.4159 95.7043 66.2157 94.8742 66.6647C95.0416 66.8889 95.1794 67.1336 95.2844 67.393C95.3388 67.5185 95.3848 67.6483 95.4267 67.7781C95.4548 67.8645 95.469 67.955 95.4685 68.0459C95.4674 68.3936 95.2603 68.7075 94.9412 68.8454C94.5786 68.9937 94.1617 68.8865 93.9157 68.5817C93.6397 68.2614 93.2804 68.0238 92.8777 67.8953C92.3226 67.7601 91.8148 67.4765 91.4085 67.0749C91.2179 66.8432 91.1038 66.558 91.0821 66.2587H91.057C90.6069 66.2591 90.1609 66.1739 89.7427 66.0076C89.6692 66.0943 89.5879 66.1742 89.4999 66.2461C89.1044 66.5905 88.5971 66.7794 88.0726 66.7777C87.1412 66.7791 86.3098 66.1941 85.9966 65.3169C85.992 65.3093 85.9891 65.3007 85.9882 65.2918C85.7253 65.3867 85.4508 65.4459 85.172 65.4676C85.1009 65.4718 85.0297 65.476 84.9544 65.476C83.8232 65.4752 82.7892 64.8362 82.2826 63.8247C81.7759 62.8132 81.8834 61.6025 82.5603 60.6961C82.5099 60.5594 82.4844 60.4148 82.4849 60.2692C82.4824 59.6506 82.9169 59.1163 83.5229 58.9926C83.5252 58.9903 83.5281 58.9888 83.5313 58.9884C83.5271 58.9381 83.5229 58.8879 83.5229 58.8335C83.5224 58.6014 83.5709 58.3717 83.6652 58.1596C83.9323 57.542 84.541 57.1422 85.2139 57.1425C85.4677 57.1413 85.7183 57.1986 85.9464 57.31C86.392 56.5597 87.2001 56.1 88.0726 56.1003C88.6713 56.0982 89.2497 56.3173 89.6966 56.7156C89.9532 56.3017 90.4199 56.0664 90.9052 56.1061C91.3906 56.1458 91.8128 56.4539 91.9987 56.904C92.1182 56.8906 92.2384 56.8836 92.3587 56.883C93.9804 56.8857 95.33 58.1298 95.4644 59.746H95.4769C95.8218 59.746 96.1524 59.8832 96.3959 60.1275C96.6393 60.3717 96.7755 60.7028 96.7744 61.0477C96.7736 61.2732 96.716 61.4948 96.607 61.6922C96.8848 62.0725 97.0343 62.5314 97.0339 63.0023Z" fill="#FB7B76"/>
<path d="M89.4999 53.589C89.2687 53.589 89.0813 53.4016 89.0813 53.1705V52.7519C89.0813 52.5208 89.2687 52.3334 89.4999 52.3334C89.731 52.3334 89.9184 52.5208 89.9184 52.7519V53.1705C89.9184 53.4016 89.731 53.589 89.4999 53.589Z" fill="#F0C419"/>
<path d="M96.2457 56.4705C96.0764 56.4704 95.9238 56.3685 95.8591 56.2121C95.7943 56.0557 95.8301 55.8757 95.9498 55.756L96.3683 55.3375C96.4734 55.2286 96.629 55.185 96.7754 55.2233C96.9217 55.2616 97.036 55.3759 97.0743 55.5222C97.1126 55.6686 97.069 55.8242 96.9602 55.9293L96.5416 56.3478C96.4631 56.4263 96.3567 56.4705 96.2457 56.4705Z" fill="#F0C419"/>
<path d="M82.7544 56.4705C82.6434 56.4705 82.5369 56.4263 82.4585 56.3478L82.0399 55.9293C81.9311 55.8242 81.8875 55.6686 81.9258 55.5222C81.9641 55.3759 82.0783 55.2616 82.2247 55.2233C82.371 55.185 82.5266 55.2286 82.6317 55.3375L83.0503 55.756C83.17 55.8757 83.2058 56.0557 83.141 56.2121C83.0762 56.3685 82.9236 56.4704 82.7544 56.4705Z" fill="#F0C419"/>
<path d="M85.9761 54.7086C85.8068 54.7086 85.6542 54.6067 85.5893 54.4503L85.1088 53.2901C85.0477 53.1513 85.0665 52.9902 85.158 52.8692C85.2494 52.7482 85.3991 52.6861 85.5494 52.7069C85.6996 52.7277 85.8268 52.8282 85.8819 52.9695L86.3628 54.1297C86.4055 54.2323 86.4056 54.3477 86.3631 54.4504C86.3207 54.5531 86.2391 54.6347 86.1364 54.6772C86.0855 54.6979 86.0311 54.7086 85.9761 54.7086Z" fill="#F0C419"/>
<path d="M93.0235 54.7086C92.9685 54.7085 92.9141 54.6976 92.8632 54.6768C92.7606 54.6343 92.6791 54.5527 92.6366 54.4501C92.5942 54.3475 92.5942 54.2323 92.6368 54.1297L93.1177 52.9695C93.1728 52.8282 93.3 52.7277 93.4502 52.7069C93.6005 52.6861 93.7502 52.7482 93.8416 52.8692C93.9331 52.9902 93.9518 53.1513 93.8908 53.2901L93.4102 54.4503C93.3454 54.6067 93.1928 54.7086 93.0235 54.7086Z" fill="#F0C419"/>
<path d="M98.0069 59.6924C97.8067 59.693 97.6341 59.5518 97.5951 59.3555C97.556 59.1592 97.6614 58.9627 97.8466 58.8867L99.0068 58.4062C99.145 58.349 99.3032 58.3699 99.4218 58.4609C99.5404 58.552 99.6014 58.6994 99.5819 58.8477C99.5623 58.9959 99.4652 59.1225 99.327 59.1797L98.1672 59.6602C98.1164 59.6814 98.0619 59.6923 98.0069 59.6924Z" fill="#F0C419"/>
<path d="M80.9928 59.6924C80.9377 59.6923 80.8833 59.6814 80.8325 59.6602L79.6727 59.1797C79.5345 59.1225 79.4373 58.9959 79.4178 58.8477C79.3982 58.6994 79.4593 58.552 79.5779 58.4609C79.6965 58.3699 79.8547 58.349 79.9929 58.4062L81.1531 58.8867C81.3382 58.9627 81.4436 59.1592 81.4046 59.3555C81.3655 59.5518 81.1929 59.693 80.9928 59.6924Z" fill="#F0C419"/>
<path d="M96.5028 64.438C96.4903 64.4547 96.4735 64.4714 96.461 64.4882C96.3872 64.8913 96.2335 65.2755 96.0089 65.6183C95.7898 65.6805 95.5629 65.7115 95.3351 65.7104C94.9203 65.7092 94.5116 65.6102 94.1422 65.4216C93.9673 65.328 93.8031 65.2157 93.6525 65.0867C93.4855 65.1514 93.3083 65.1854 93.1293 65.1872C92.5764 65.19 92.07 64.8784 91.8234 64.3835C91.7561 64.2497 91.7653 64.0901 91.8476 63.9649C91.9298 63.8397 92.0726 63.768 92.2222 63.7766C92.3717 63.7852 92.5053 63.873 92.5726 64.0068C92.6553 64.1655 92.8017 64.2814 92.9752 64.3254C93.1486 64.3693 93.3326 64.3372 93.4809 64.237C93.6483 64.1228 93.7485 63.9333 93.7487 63.7306C93.7494 63.6336 93.7279 63.5377 93.686 63.4502C93.6017 63.2478 93.6878 63.0146 93.8835 62.9157C94.0791 62.8168 94.318 62.8856 94.431 63.0735C94.5328 63.2776 94.5858 63.5025 94.5859 63.7306C94.5825 64.023 94.4905 64.3076 94.3222 64.5468C94.3891 64.5928 94.4561 64.6389 94.5231 64.6765C94.7742 64.8058 95.0526 64.8732 95.3351 64.8733C95.7644 64.8756 96.1798 64.7208 96.5028 64.438Z" fill="#FF5364"/>
<path d="M91.3838 62.7941C91.926 62.4205 92.2989 61.848 92.4214 61.2011C92.4526 61.0529 92.4013 60.8995 92.2874 60.7999C92.1735 60.7002 92.0147 60.6698 91.872 60.7203C91.7294 60.7709 91.6251 60.8945 91.5993 61.0437C91.5173 61.4754 91.2682 61.8573 90.9062 62.1064C90.2098 62.5754 89.2759 62.4689 88.7029 61.8553C88.547 61.6842 88.2819 61.6719 88.1109 61.8278C87.9398 61.9838 87.9276 62.2488 88.0835 62.4199C88.4385 62.8119 88.9078 63.0825 89.4249 63.1934C89.1905 63.523 88.8107 63.7183 88.4062 63.7174C88.175 63.7174 87.9876 63.9048 87.9876 64.136C87.9876 64.3671 88.175 64.5545 88.4062 64.5545C89.2727 64.558 90.0501 64.0228 90.3562 63.2122C90.7255 63.1508 91.0766 63.008 91.3838 62.7941Z" fill="#FF5364"/>
<path d="M95.2845 67.3932C94.9768 67.5502 94.6463 67.6576 94.3051 67.7113C94.2829 67.7148 94.2605 67.7162 94.2381 67.7155C94.0177 67.7176 93.8334 67.5483 93.8169 67.3284C93.8003 67.1086 93.9571 66.9136 94.1753 66.8826C94.418 66.8459 94.6537 66.7725 94.8743 66.6649C95.0417 66.8891 95.1795 67.1339 95.2845 67.3932Z" fill="#FF5364"/>
<path d="M85.9593 64.471C85.9382 64.5885 85.927 64.7075 85.9258 64.8268C85.925 64.9838 85.9461 65.1402 85.9886 65.2914C85.7257 65.3863 85.4511 65.4454 85.1724 65.4672C85.1188 65.2621 85.0907 65.0513 85.0887 64.8394C84.3514 64.7589 83.7926 64.137 83.7912 63.3953C83.7898 63.1622 83.9767 62.9716 84.2097 62.9684C84.3202 62.9677 84.4264 63.011 84.505 63.0888C84.5835 63.1665 84.6279 63.2723 84.6283 63.3828V63.3953C84.6346 63.7261 84.8964 63.9952 85.2268 64.0106C85.2847 63.8218 85.3648 63.6406 85.4654 63.4707C85.5216 63.3747 85.6142 63.3055 85.7221 63.2787C85.8301 63.2519 85.9443 63.2698 86.0388 63.3284C86.2356 63.45 86.2989 63.7068 86.1811 63.906C86.0749 64.08 85.9998 64.2712 85.9593 64.471Z" fill="#FF5364"/>
<path d="M92.1829 66.92C91.9314 67.0005 91.6717 67.0524 91.4086 67.0749C91.2179 66.8431 91.1038 66.558 91.0821 66.2587C91.1226 66.2594 91.1631 66.258 91.2035 66.2545C91.4521 66.2387 91.6979 66.1938 91.936 66.1206C92.0803 66.071 92.2402 66.104 92.3532 66.2066C92.4661 66.3092 92.5143 66.4652 92.4789 66.6136C92.4435 66.7621 92.33 66.8795 92.1829 66.92Z" fill="#FF5364"/>
<path d="M88.5797 59.4489C88.5797 59.2178 88.3923 59.0304 88.1612 59.0304C87.0983 59.0315 86.237 59.8929 86.2358 60.9557C86.2358 61.1869 86.4232 61.3743 86.6544 61.3743C86.8855 61.3743 87.0729 61.1869 87.0729 60.9557C87.0729 60.6671 87.1876 60.3903 87.3917 60.1862C87.5958 59.9821 87.8726 59.8675 88.1612 59.8675C88.3923 59.8675 88.5797 59.6801 88.5797 59.4489Z" fill="#FF5364"/>
<path d="M83.1164 61.8017C83.0404 61.8018 82.9658 61.7809 82.9008 61.7414C82.5557 61.5332 82.2946 61.2104 82.1629 60.8294C82.0992 60.6482 82.0668 60.4576 82.0671 60.2656C82.0671 59.317 82.8346 58.5473 83.7831 58.5445C84.3267 58.5424 84.8384 58.8005 85.1598 59.2389C85.249 59.3589 85.2673 59.5175 85.2079 59.6548C85.1486 59.7921 85.0204 59.8872 84.8718 59.9044C84.7233 59.9217 84.5768 59.8583 84.4876 59.7382C84.3235 59.5144 84.0623 59.3824 83.7848 59.3833C83.3887 59.3855 83.0423 59.6509 82.9371 60.0329C82.8319 60.4148 82.9936 60.8201 83.3328 61.0249C83.4941 61.1218 83.5708 61.3145 83.5203 61.4958C83.4698 61.6771 83.3046 61.8024 83.1164 61.8021V61.8017Z" fill="#FF5364"/>
<path d="M92.0983 57.8209C91.8672 57.8209 91.6798 57.6335 91.6798 57.4024C91.6798 56.9161 91.2856 56.5219 90.7994 56.5219C90.3131 56.5219 89.9189 56.9161 89.9189 57.4024C89.9189 57.6335 89.7315 57.8209 89.5004 57.8209C89.2692 57.8209 89.0818 57.6335 89.0818 57.4024C89.0818 56.4538 89.8508 55.6848 90.7994 55.6848C91.7479 55.6848 92.5169 56.4538 92.5169 57.4024C92.5169 57.5134 92.4728 57.6198 92.3943 57.6983C92.3158 57.7768 92.2094 57.8209 92.0983 57.8209Z" fill="#FF5364"/>
<path d="M96.0244 62.6465C95.8301 62.6446 95.6626 62.5092 95.6201 62.3195C95.5776 62.1299 95.6712 61.9359 95.8461 61.8512C96.0129 61.7729 96.1514 61.6448 96.2425 61.4846C96.4554 61.1217 96.3813 60.6588 96.0658 60.3805C95.7502 60.1022 95.2817 60.0866 94.9483 60.3432C94.7634 60.4819 94.501 60.4444 94.3623 60.2595C94.2236 60.0745 94.2611 59.8122 94.446 59.6735C94.7389 59.4517 95.0957 59.3307 95.4631 59.3286C96.2718 59.3231 96.9751 59.8815 97.1532 60.6703C97.3313 61.4591 96.9361 62.2655 96.2035 62.608C96.1475 62.6341 96.0862 62.6472 96.0244 62.6465Z" fill="#FF5364"/>
</g>
<defs>
<filter id="filter0_d_129_4350" x="0" y="0" width="179" height="179" filterUnits="userSpaceOnUse" color-interpolation-filters="sRGB">
<feFlood flood-opacity="0" result="BackgroundImageFix"/>
<feColorMatrix in="SourceAlpha" type="matrix" values="0 0 0 0 0 0 0 0 0 0 0 0 0 0 0 0 0 0 127 0" result="hardAlpha"/>
<feOffset dy="25"/>
<feGaussianBlur stdDeviation="35"/>
<feColorMatrix type="matrix" values="0 0 0 0 0.0392157 0 0 0 0 0.0117647 0 0 0 0 0.235294 0 0 0 0.15 0"/>
<feBlend mode="normal" in2="BackgroundImageFix" result="effect1_dropShadow_129_4350"/>
<feBlend mode="normal" in="SourceGraphic" in2="effect1_dropShadow_129_4350" result="shape"/>
</filter>
<clipPath id="clip0_129_4350">
<rect width="24.2489" height="24.2489" fill="white" transform="translate(77.3616 52.3334) scale(1.00113)"/>
</clipPath>
</defs>
</svg>
