<svg width="35" height="35" viewBox="0 0 35 35" fill="none" xmlns="http://www.w3.org/2000/svg">
<g clip-path="url(#clip0_129_2936)">
<path d="M24.166 8.10645L14.5401 22.0548L13.176 33.2135L27.4304 35.0002L29.8046 15.2821L24.166 8.10645Z" fill="#D97356"/>
<path d="M34.1003 0.876508C33.5605 0.336674 32.8173 0.0374655 32.0567 0.00410617C31.2289 -0.0321927 30.3803 0.246577 29.7504 0.876508L22.635 8.01541L23.3402 8.72061L24.085 9.46538L26.198 7.3282C28.2028 8.65369 30.9116 8.41518 32.6503 6.67646L34.1003 5.22649C35.3 4.02678 35.3 2.07615 34.1003 0.876508ZM32.6503 3.77645L31.2004 5.22642C30.2541 6.17272 28.8422 6.37294 27.6986 5.82723L31.2004 2.32648C31.6009 1.92596 32.2498 1.92596 32.6503 2.32648C33.0499 2.72604 33.0499 3.37689 32.6503 3.77645Z" fill="#516373"/>
<path d="M26.1981 7.32793C28.2029 8.65342 30.9117 8.41491 32.6505 6.67619L34.1004 5.22622C35.3001 4.02658 35.3001 2.07595 34.1004 0.876309C33.5606 0.336475 32.8175 0.0372656 32.0568 0.00390625L23.3403 8.72041L24.0851 9.46519L26.1981 7.32793ZM31.2006 2.32628C31.6011 1.92576 32.25 1.92576 32.6505 2.32628C33.0501 2.72584 33.0501 3.37669 32.6505 3.77625L31.2006 5.22622C30.2543 6.17252 28.8424 6.37274 27.6988 5.82703L31.2006 2.32628Z" fill="#3E4D59"/>
<path d="M24.3349 7.72461H14.2345L0 21.9097L5.07541 26.9851L10.1508 32.0605L24.3359 17.8654V7.72461H24.3349Z" fill="#FF6652"/>
<path d="M24.336 17.8654V7.72461L5.07544 26.9851L10.1508 32.0605L24.336 17.8654Z" fill="#E64A36"/>
<path d="M19.0089 14.5408L18.2647 13.7966L17.5589 13.0908L15.9623 14.6875C14.8216 14.1503 13.4273 14.3241 12.4841 15.2657C11.291 16.4588 11.285 18.395 12.4649 19.5962C12.9139 20.0534 12.8596 20.6911 12.4841 21.0666C12.0875 21.4631 11.4253 21.4784 11.0155 21.0457C10.6356 20.6447 10.6412 20.0095 11.0341 19.6166L9.58217 18.1666C8.64216 19.109 8.46818 20.503 9.00549 21.6442L7.4082 23.2415L8.11394 23.9472L8.85817 24.6915L10.4547 23.0949C11.7848 23.7233 13.0999 23.3507 13.9341 22.5166C15.0376 21.413 15.2347 19.5413 13.9155 18.1458C13.5356 17.7438 13.5412 17.1097 13.9341 16.7167C14.3261 16.3227 14.9637 16.3181 15.3638 16.6975C15.7872 17.099 15.7868 17.7629 15.384 18.1667L16.834 19.6167C17.7765 18.6741 17.951 17.2793 17.4125 16.1372L19.0089 14.5408Z" fill="white"/>
<path d="M15.3842 18.166L16.8342 19.616C17.7768 18.6735 17.9512 17.2786 17.4128 16.1365L19.0092 14.5401L18.2649 13.7959L15.364 16.6968C15.7874 17.0983 15.787 17.7622 15.3842 18.166Z" fill="white"/>
<path d="M10.4548 23.0947C11.7848 23.723 13.1 23.3504 13.9341 22.5163C15.0377 21.4127 15.2347 19.541 13.9155 18.1455L12.465 19.596C12.914 20.0533 12.8597 20.6909 12.4842 21.0664C12.0876 21.4629 11.4254 21.4782 11.0155 21.0455L8.11401 23.947L8.85824 24.6913L10.4548 23.0947Z" fill="white"/>
</g>
<defs>
<clipPath id="clip0_129_2936">
<rect width="35" height="35" fill="white"/>
</clipPath>
</defs>
</svg>
