<svg width="179" height="179" viewBox="0 0 179 179" fill="none" xmlns="http://www.w3.org/2000/svg">
<g filter="url(#filter0_d_129_4327)">
<rect x="70.079" y="45.0508" width="38.842" height="38.842" rx="10" fill="white"/>
</g>
<g clip-path="url(#clip0_129_4327)">
<path d="M90.4212 56.5802C90.2302 56.5805 90.0631 56.4515 90.0152 56.2666C89.9673 56.0817 90.0506 55.8878 90.2178 55.7954C93.4172 54.0207 97.3257 52.698 98.6981 54.3137C98.8484 54.4898 98.8274 54.7544 98.6513 54.9047C98.4751 55.0549 98.2105 55.0339 98.0603 54.8578C97.3554 54.0295 94.5749 54.3371 90.6238 56.5295C90.5615 56.5631 90.4919 56.5805 90.4212 56.5802Z" fill="#E57E25"/>
<path d="M80.3966 67.7238C80.225 67.7239 80.0707 67.6192 80.0073 67.4597C79.4343 66.0178 80.7323 63.5374 83.4813 60.8235C83.6482 60.6783 83.8993 60.6881 84.0544 60.8458C84.2095 61.0034 84.2152 61.2546 84.0673 61.4191C81.3095 64.1439 80.4317 66.261 80.785 67.1504C80.8363 67.2792 80.8205 67.4252 80.7427 67.54C80.6649 67.6548 80.5353 67.7237 80.3966 67.7238Z" fill="#E57E25"/>
<path d="M88.6879 56.6415C88.6164 56.6416 88.5461 56.6233 88.4837 56.5884C84.4161 54.3081 81.7495 54.0632 80.9915 54.7986C80.826 54.9605 80.5606 54.9575 80.3988 54.7919C80.237 54.6264 80.24 54.3611 80.4055 54.1993C81.8935 52.7511 85.7631 54.1063 88.8893 55.8576C89.0557 55.9506 89.1383 56.1444 89.09 56.3289C89.0418 56.5134 88.8749 56.642 88.6842 56.6415H88.6879Z" fill="#E57E25"/>
<path d="M98.6201 67.6815C98.4839 67.6815 98.3562 67.6152 98.2778 67.5038C98.1995 67.3923 98.1802 67.2497 98.2263 67.1215C98.621 66.0236 97.3285 63.7852 94.9331 61.4187C94.7731 61.2555 94.7735 60.9942 94.9341 60.8315C95.0946 60.6689 95.3559 60.6652 95.5211 60.8231C98.2288 63.4981 99.5343 65.9583 99.0136 67.4044C98.9539 67.5705 98.7966 67.6813 98.6201 67.6815Z" fill="#E57E25"/>
<path d="M86.1517 73.2605H84.8961C84.6649 73.2605 84.4775 73.0731 84.4775 72.8419C84.4775 72.6108 84.6649 72.4234 84.8961 72.4234H86.1517C86.3829 72.4234 86.5703 72.6108 86.5703 72.8419C86.5703 73.0731 86.3829 73.2605 86.1517 73.2605Z" fill="#7F8284"/>
<path d="M94.1045 73.2605H92.8489C92.6177 73.2605 92.4303 73.0731 92.4303 72.8419C92.4303 72.6108 92.6177 72.4234 92.8489 72.4234H94.1045C94.3357 72.4234 94.5231 72.6108 94.5231 72.8419C94.5231 73.0731 94.3357 73.2605 94.1045 73.2605Z" fill="#7F8284"/>
<path d="M97.0008 62.2699C96.835 63.9864 96.0826 65.5932 94.8703 66.8196C93.5961 68.0813 92.8699 69.7939 92.8487 71.587H86.1518C86.1488 70.6998 85.9651 69.8225 85.6118 69.0087C85.2577 68.1936 84.7553 67.4513 84.1302 66.8196C82.202 64.8636 81.4927 62.0125 82.2795 59.381C83.0663 56.7495 85.2243 54.7557 87.9097 54.1792C88.1031 54.1397 88.2426 53.9706 88.2446 53.7732V53.589C88.2446 52.8956 88.8068 52.3334 89.5002 52.3334C90.1937 52.3334 90.7559 52.8956 90.7559 53.589V53.7732C90.7578 53.9706 90.8974 54.1397 91.0908 54.1792C94.8284 54.9856 97.3693 58.464 97.0008 62.2699Z" fill="#F0C419"/>
<path d="M95.6622 62.2699C95.5489 63.9278 94.9389 65.5132 93.9118 66.8196C92.8324 68.1738 92.2466 69.8553 92.251 71.587H86.7495C86.7486 70.7086 86.5986 69.8368 86.3058 69.0087C86.0269 68.2154 85.6153 67.4752 85.0886 66.8196C84.0615 65.5132 83.4515 63.9278 83.3382 62.2699C83.0356 58.3397 85.2159 54.9535 88.1935 54.1792C88.3654 54.1203 88.4775 53.9547 88.4685 53.7732V53.589C88.4119 52.959 88.8712 52.4001 89.5002 52.3334C89.7864 52.3398 90.0544 52.4751 90.2293 52.7017C90.429 52.954 90.5358 53.2673 90.532 53.589V53.7732C90.5229 53.9547 90.635 54.1203 90.8069 54.1792C93.7846 54.9535 95.9648 58.3397 95.6622 62.2699Z" fill="#F3D55B"/>
<path d="M92.8486 71.5865V74.0978C92.8473 74.5596 92.4733 74.9336 92.0115 74.935H86.9889C86.5271 74.9336 86.1531 74.5596 86.1517 74.0978V71.5865H92.8486Z" fill="#95A5A5"/>
<path d="M91.5931 75.1443C91.5931 75.9521 90.6556 76.6092 89.5003 76.6092C88.3451 76.6092 87.4076 75.9521 87.4076 75.1443C87.4074 75.0738 87.4158 75.0035 87.4327 74.935H91.568C91.5849 75.0035 91.5933 75.0738 91.5931 75.1443Z" fill="#393F4A"/>
<path d="M82.2791 68.6576C81.6656 68.6914 81.0582 68.5206 80.5522 68.172C80.4262 68.083 80.3594 67.9319 80.3784 67.7788C80.3974 67.6257 80.499 67.4955 80.6429 67.4398C80.7868 67.3842 80.9496 67.4123 81.0666 67.5128C81.6668 67.9803 83.015 67.9167 84.7654 67.3391C86.3477 66.7956 87.8633 66.0746 89.2833 65.1898C89.8341 64.855 90.3715 64.5038 90.8863 64.1489C92.9456 62.7559 94.8075 61.0915 96.4217 59.2007C97.7871 57.5369 98.4672 56.0519 98.2416 55.2278C98.1824 55.0054 98.3136 54.777 98.5356 54.7162C98.7575 54.6555 98.9868 54.7853 99.049 55.0068C99.4412 56.4395 98.1889 58.3669 97.0692 59.7314C95.4055 61.6826 93.4859 63.4002 91.3627 64.8378C90.8365 65.202 90.2836 65.5611 89.7186 65.9056C88.2434 66.8237 86.6689 67.5717 85.0253 68.1352C84.1418 68.4478 83.2157 68.6239 82.2791 68.6576Z" fill="#F29C1F"/>
<path d="M96.7201 68.6605C95.7827 68.6286 94.8559 68.451 93.9732 68.134C92.3306 67.5704 90.7571 66.8227 89.2828 65.9051C88.7169 65.5603 88.164 65.2011 87.6379 64.8366C85.5145 63.399 83.5948 61.6813 81.9309 59.7302C80.7978 58.3489 79.5367 56.4022 79.9637 54.9674C80.0308 54.7475 80.2628 54.6229 80.4833 54.6884C80.7037 54.754 80.83 54.9851 80.766 55.206C80.5228 56.026 81.2005 57.5189 82.5796 59.1995C84.1936 61.0904 86.0552 62.7549 88.1142 64.148C88.6274 64.5034 89.1665 64.8541 89.7181 65.1898C91.1371 66.0741 92.6518 66.7947 94.2331 67.3379C96.0659 67.9427 97.4807 67.9795 98.0193 67.4366C98.1823 67.2726 98.4474 67.2718 98.6114 67.4348C98.7754 67.5977 98.7762 67.8628 98.6133 68.0268C98.0932 68.4841 97.4107 68.7126 96.7201 68.6605Z" fill="#F29C1F"/>
<path d="M80.5013 69.0757C81.3103 69.0757 81.9662 68.4198 81.9662 67.6108C81.9662 66.8017 81.3103 66.1458 80.5013 66.1458C79.6922 66.1458 79.0363 66.8017 79.0363 67.6108C79.0363 68.4198 79.6922 69.0757 80.5013 69.0757Z" fill="#3B97D3"/>
<path d="M80.5013 56.1001C81.3103 56.1001 81.9662 55.4443 81.9662 54.6352C81.9662 53.8261 81.3103 53.1703 80.5013 53.1703C79.6922 53.1703 79.0363 53.8261 79.0363 54.6352C79.0363 55.4443 79.6922 56.1001 80.5013 56.1001Z" fill="#3B97D3"/>
<path d="M98.4991 69.0757C99.3081 69.0757 99.964 68.4198 99.964 67.6108C99.964 66.8017 99.3081 66.1458 98.4991 66.1458C97.69 66.1458 97.0341 66.8017 97.0341 67.6108C97.0341 68.4198 97.69 69.0757 98.4991 69.0757Z" fill="#3B97D3"/>
<path d="M98.4991 56.1001C99.3081 56.1001 99.964 55.4443 99.964 54.6352C99.964 53.8261 99.3081 53.1703 98.4991 53.1703C97.69 53.1703 97.0341 53.8261 97.0341 54.6352C97.0341 55.4443 97.69 56.1001 98.4991 56.1001Z" fill="#3B97D3"/>
<path d="M84.262 59.3411C84.1169 59.3411 83.9821 59.266 83.9059 59.1425C83.8297 59.019 83.8228 58.8648 83.8878 58.7351C84.6738 57.161 86.0844 55.9892 87.7758 55.5051C87.9213 55.4588 88.0804 55.4954 88.1911 55.6006C88.3018 55.7057 88.3464 55.8628 88.3075 56.0105C88.2686 56.1581 88.1524 56.2729 88.0043 56.31C86.539 56.73 85.3172 57.7457 84.6366 59.1097C84.5657 59.2516 84.4207 59.3412 84.262 59.3411Z" fill="white"/>
</g>
<defs>
<filter id="filter0_d_129_4327" x="0" y="0" width="179" height="179" filterUnits="userSpaceOnUse" color-interpolation-filters="sRGB">
<feFlood flood-opacity="0" result="BackgroundImageFix"/>
<feColorMatrix in="SourceAlpha" type="matrix" values="0 0 0 0 0 0 0 0 0 0 0 0 0 0 0 0 0 0 127 0" result="hardAlpha"/>
<feOffset dy="25"/>
<feGaussianBlur stdDeviation="35"/>
<feColorMatrix type="matrix" values="0 0 0 0 0.0392157 0 0 0 0 0.0117647 0 0 0 0 0.235294 0 0 0 0.15 0"/>
<feBlend mode="normal" in2="BackgroundImageFix" result="effect1_dropShadow_129_4327"/>
<feBlend mode="normal" in="SourceGraphic" in2="effect1_dropShadow_129_4327" result="shape"/>
</filter>
<clipPath id="clip0_129_4327">
<rect width="24.2489" height="24.2489" fill="white" transform="translate(77.3621 52.3334) scale(1.00113)"/>
</clipPath>
</defs>
</svg>
