<svg width="17" height="17" viewBox="0 0 17 17" fill="none" xmlns="http://www.w3.org/2000/svg">
<g clip-path="url(#clip0_129_4293)">
<path d="M12.5341 10.1398C12.0985 9.70416 11.6062 9.35353 11.0856 9.08791C11.0031 9.0472 10.9338 8.98408 10.8856 8.90578C10.8373 8.82748 10.8121 8.73717 10.8129 8.64521L10.9545 7.39147C9.47414 6.8673 7.63249 6.83189 6.09542 7.37022L6.19813 8.64875C6.19459 8.84354 6.08479 9.01 5.92188 9.09499C5.39772 9.35708 4.90897 9.71124 4.47335 10.1469C4.2821 10.3381 3.96335 10.3381 3.77211 10.1469L2.5467 8.92145C2.35545 8.73021 2.21024 8.415 2.47587 8.14938C5.76605 4.8592 11.2379 4.86274 14.5245 8.14938C14.776 8.40083 14.652 8.72312 14.4572 8.91791L13.2354 10.1398C13.0441 10.331 12.7254 10.331 12.5341 10.1398Z" fill="white"/>
</g>
<defs>
<clipPath id="clip0_129_4293">
<rect width="12" height="12" fill="white" transform="matrix(0.708327 0.708327 0.708327 -0.708327 0 8.5)"/>
</clipPath>
</defs>
</svg>
